<?xml version="1.0" encoding="UTF-8" standalone="no"?>
<!DOCTYPE svg PUBLIC "-//W3C//DTD SVG 1.1//EN"
 "http://www.w3.org/Graphics/SVG/1.1/DTD/svg11.dtd">
<!-- Generated by graphviz version 7.1.0 (20230121.1956)
 -->
<!-- Pages: 1 -->
<svg width="999pt" height="137pt"
 viewBox="0.00 0.00 998.83 137.34" xmlns="http://www.w3.org/2000/svg" xmlns:xlink="http://www.w3.org/1999/xlink">
<g id="graph0" class="graph" transform="scale(1 1) rotate(0) translate(4 133.34)">
<polygon fill="white" stroke="none" points="-4,4 -4,-133.34 994.83,-133.34 994.83,4 -4,4"/>
<!-- is food up -->
<g id="node1" class="node">
<title>is food up</title>
<polygon fill="lightgray" stroke="black" points="53,-112.18 0,-112.18 0,-94.18 53,-94.18 53,-112.18"/>
<text text-anchor="middle" x="26.5" y="-100.98" font-family="Times New Roman,serif" font-size="9.00">is food up</text>
</g>
<!-- life pos y -->
<g id="node2" class="node">
<title>life pos y</title>
<polygon fill="lightgray" stroke="black" points="122,-112.18 71,-112.18 71,-94.18 122,-94.18 122,-112.18"/>
<text text-anchor="middle" x="96.5" y="-100.98" font-family="Times New Roman,serif" font-size="9.00">life pos y</text>
</g>
<!-- near bottom -->
<g id="node3" class="node">
<title>near bottom</title>
<polygon fill="lightgray" stroke="black" points="200.5,-112.18 140.5,-112.18 140.5,-94.18 200.5,-94.18 200.5,-112.18"/>
<text text-anchor="middle" x="170.5" y="-100.98" font-family="Times New Roman,serif" font-size="9.00">near bottom</text>
</g>
<!-- is food down -->
<g id="node4" class="node">
<title>is food down</title>
<polygon fill="lightgray" stroke="black" points="282.5,-112.18 218.5,-112.18 218.5,-94.18 282.5,-94.18 282.5,-112.18"/>
<text text-anchor="middle" x="250.5" y="-100.98" font-family="Times New Roman,serif" font-size="9.00">is food down</text>
</g>
<!-- near top -->
<g id="node5" class="node">
<title>near top</title>
<polygon fill="lightgray" stroke="black" points="348,-112.18 301,-112.18 301,-94.18 348,-94.18 348,-112.18"/>
<text text-anchor="middle" x="324.5" y="-100.98" font-family="Times New Roman,serif" font-size="9.00">near top</text>
</g>
<!-- left -->
<g id="node14" class="node">
<title>left</title>
<ellipse fill="lightblue" stroke="black" cx="324.5" cy="-20.51" rx="20.51" ry="20.51"/>
<text text-anchor="middle" x="324.5" y="-18.31" font-family="Times New Roman,serif" font-size="9.00">left</text>
</g>
<!-- near top&#45;&gt;left -->
<g id="edge1" class="edge">
<title>near top&#45;&gt;left</title>
<path fill="none" stroke="red" stroke-width="0.66" d="M324.5,-93.85C324.5,-84.03 324.5,-67.16 324.5,-52.17"/>
<polygon fill="red" stroke="red" stroke-width="0.66" points="328,-52.23 324.5,-42.23 321,-52.23 328,-52.23"/>
</g>
<!-- is food right -->
<g id="node6" class="node">
<title>is food right</title>
<polygon fill="lightgray" stroke="black" points="426.5,-112.18 366.5,-112.18 366.5,-94.18 426.5,-94.18 426.5,-112.18"/>
<text text-anchor="middle" x="396.5" y="-100.98" font-family="Times New Roman,serif" font-size="9.00">is food right</text>
</g>
<!-- near edge right -->
<g id="node7" class="node">
<title>near edge right</title>
<polygon fill="lightgray" stroke="black" points="512.5,-112.18 444.5,-112.18 444.5,-94.18 512.5,-94.18 512.5,-112.18"/>
<text text-anchor="middle" x="478.5" y="-100.98" font-family="Times New Roman,serif" font-size="9.00">near edge right</text>
</g>
<!-- life pos x -->
<g id="node8" class="node">
<title>life pos x</title>
<polygon fill="lightgray" stroke="black" points="580.5,-112.18 530.5,-112.18 530.5,-94.18 580.5,-94.18 580.5,-112.18"/>
<text text-anchor="middle" x="555.5" y="-100.98" font-family="Times New Roman,serif" font-size="9.00">life pos x</text>
</g>
<!-- near edge left -->
<g id="node9" class="node">
<title>near edge left</title>
<polygon fill="lightgray" stroke="black" points="662.5,-112.18 598.5,-112.18 598.5,-94.18 662.5,-94.18 662.5,-112.18"/>
<text text-anchor="middle" x="630.5" y="-100.98" font-family="Times New Roman,serif" font-size="9.00">near edge left</text>
</g>
<!-- is food left -->
<g id="node10" class="node">
<title>is food left</title>
<polygon fill="lightgray" stroke="black" points="736.5,-112.18 680.5,-112.18 680.5,-94.18 736.5,-94.18 736.5,-112.18"/>
<text text-anchor="middle" x="708.5" y="-100.98" font-family="Times New Roman,serif" font-size="9.00">is food left</text>
</g>
<!-- stop -->
<g id="node11" class="node">
<title>stop</title>
<ellipse fill="lightblue" stroke="black" cx="777.5" cy="-103.18" rx="23.17" ry="23.17"/>
<text text-anchor="middle" x="777.5" y="-100.98" font-family="Times New Roman,serif" font-size="9.00">stop</text>
</g>
<!-- up -->
<g id="node12" class="node">
<title>up</title>
<ellipse fill="lightblue" stroke="black" cx="837.5" cy="-103.18" rx="18.27" ry="18.27"/>
<text text-anchor="middle" x="837.5" y="-100.98" font-family="Times New Roman,serif" font-size="9.00">up</text>
</g>
<!-- down -->
<g id="node13" class="node">
<title>down</title>
<ellipse fill="lightblue" stroke="black" cx="900.5" cy="-103.18" rx="26.33" ry="26.33"/>
<text text-anchor="middle" x="900.5" y="-100.98" font-family="Times New Roman,serif" font-size="9.00">down</text>
</g>
<!-- right -->
<g id="node15" class="node">
<title>right</title>
<ellipse fill="lightblue" stroke="black" cx="967.5" cy="-103.18" rx="23.17" ry="23.17"/>
<text text-anchor="middle" x="967.5" y="-100.98" font-family="Times New Roman,serif" font-size="9.00">right</text>
</g>
</g>
</svg>
