<?xml version="1.0" encoding="UTF-8" standalone="no"?>
<!DOCTYPE svg PUBLIC "-//W3C//DTD SVG 1.1//EN"
 "http://www.w3.org/Graphics/SVG/1.1/DTD/svg11.dtd">
<!-- Generated by graphviz version 7.1.0 (20230121.1956)
 -->
<!-- Pages: 1 -->
<svg width="305pt" height="114pt"
 viewBox="0.00 0.00 304.72 114.33" xmlns="http://www.w3.org/2000/svg" xmlns:xlink="http://www.w3.org/1999/xlink">
<g id="graph0" class="graph" transform="scale(1 1) rotate(0) translate(4 110.33)">
<polygon fill="white" stroke="none" points="-4,4 -4,-110.33 300.72,-110.33 300.72,4 -4,4"/>
<!-- pos y -->
<g id="node1" class="node">
<title>pos y</title>
<polygon fill="lightgray" stroke="black" points="190.38,-106.33 152.38,-106.33 152.38,-88.33 190.38,-88.33 190.38,-106.33"/>
<text text-anchor="middle" x="171.38" y="-95.13" font-family="Times New Roman,serif" font-size="9.00">pos y</text>
</g>
<!-- stop -->
<g id="node5" class="node">
<title>stop</title>
<ellipse fill="lightblue" stroke="black" cx="273.38" cy="-26.16" rx="23.17" ry="23.17"/>
<text text-anchor="middle" x="273.38" y="-23.96" font-family="Times New Roman,serif" font-size="9.00">stop</text>
</g>
<!-- pos y&#45;&gt;stop -->
<g id="edge1" class="edge">
<title>pos y&#45;&gt;stop</title>
<path fill="none" stroke="green" stroke-width="0.23" d="M185.35,-87.89C199.45,-79.27 221.75,-65.34 240.38,-52.33 242.71,-50.7 245.1,-48.98 247.48,-47.23"/>
<polygon fill="green" stroke="green" stroke-width="0.23" points="249.25,-50.28 255.16,-41.49 245.05,-44.68 249.25,-50.28"/>
</g>
<!-- up -->
<g id="node6" class="node">
<title>up</title>
<ellipse fill="lightblue" stroke="black" cx="18.38" cy="-26.16" rx="18.27" ry="18.27"/>
<text text-anchor="middle" x="18.38" y="-23.96" font-family="Times New Roman,serif" font-size="9.00">up</text>
</g>
<!-- pos y&#45;&gt;up -->
<g id="edge2" class="edge">
<title>pos y&#45;&gt;up</title>
<path fill="none" stroke="green" stroke-width="0.28" d="M152.1,-90.55C121.82,-81.33 64.69,-63.18 46.38,-52.33 43.66,-50.71 40.97,-48.81 38.39,-46.78"/>
<polygon fill="green" stroke="green" stroke-width="0.28" points="40.82,-44.25 30.96,-40.37 36.24,-49.55 40.82,-44.25"/>
</g>
<!-- down -->
<g id="node7" class="node">
<title>down</title>
<ellipse fill="lightblue" stroke="black" cx="81.38" cy="-26.16" rx="26.33" ry="26.33"/>
<text text-anchor="middle" x="81.38" y="-23.96" font-family="Times New Roman,serif" font-size="9.00">down</text>
</g>
<!-- pos y&#45;&gt;down -->
<g id="edge3" class="edge">
<title>pos y&#45;&gt;down</title>
<path fill="none" stroke="green" stroke-width="0.45" d="M160.35,-87.85C147.92,-78.3 127.24,-62.4 110.16,-49.28"/>
<polygon fill="green" stroke="green" stroke-width="0.45" points="112.72,-46.83 102.66,-43.51 108.46,-52.38 112.72,-46.83"/>
</g>
<!-- left -->
<g id="node8" class="node">
<title>left</title>
<ellipse fill="lightblue" stroke="black" cx="146.38" cy="-26.16" rx="20.51" ry="20.51"/>
<text text-anchor="middle" x="146.38" y="-23.96" font-family="Times New Roman,serif" font-size="9.00">left</text>
</g>
<!-- pos y&#45;&gt;left -->
<g id="edge4" class="edge">
<title>pos y&#45;&gt;left</title>
<path fill="none" stroke="red" stroke-width="0.24" d="M168.32,-87.85C165.39,-79.73 160.79,-67.03 156.57,-55.34"/>
<polygon fill="red" stroke="red" stroke-width="0.24" points="159.96,-54.43 153.27,-46.21 153.38,-56.81 159.96,-54.43"/>
</g>
<!-- right -->
<g id="node9" class="node">
<title>right</title>
<ellipse fill="lightblue" stroke="black" cx="208.38" cy="-26.16" rx="23.17" ry="23.17"/>
<text text-anchor="middle" x="208.38" y="-23.96" font-family="Times New Roman,serif" font-size="9.00">right</text>
</g>
<!-- pos y&#45;&gt;right -->
<g id="edge5" class="edge">
<title>pos y&#45;&gt;right</title>
<path fill="none" stroke="red" stroke-width="0.18" d="M175.92,-87.85C180.19,-79.88 186.81,-67.48 192.97,-55.97"/>
<polygon fill="red" stroke="red" stroke-width="0.18" points="196,-57.74 197.63,-47.27 189.82,-54.44 196,-57.74"/>
</g>
<!-- food distanse -->
<g id="node2" class="node">
<title>food distanse</title>
<polygon fill="lightgray" stroke="black" points="273.88,-106.33 208.88,-106.33 208.88,-88.33 273.88,-88.33 273.88,-106.33"/>
<text text-anchor="middle" x="241.38" y="-95.13" font-family="Times New Roman,serif" font-size="9.00">food distanse</text>
</g>
<!-- food distanse&#45;&gt;stop -->
<g id="edge6" class="edge">
<title>food distanse&#45;&gt;stop</title>
<path fill="none" stroke="red" stroke-width="0.37" d="M245.31,-87.85C248.87,-80.15 254.34,-68.32 259.51,-57.14"/>
<polygon fill="red" stroke="red" stroke-width="0.37" points="262.66,-58.67 263.69,-48.12 256.31,-55.73 262.66,-58.67"/>
</g>
<!-- food distanse&#45;&gt;up -->
<g id="edge7" class="edge">
<title>food distanse&#45;&gt;up</title>
<path fill="none" stroke="green" stroke-width="0.2" d="M208.42,-89.83C156.65,-79.5 60.68,-59.72 46.38,-52.33 43.57,-50.87 40.82,-49.07 38.21,-47.1"/>
<polygon fill="green" stroke="green" stroke-width="0.2" points="40.54,-44.49 30.66,-40.66 36,-49.81 40.54,-44.49"/>
</g>
<!-- food distanse&#45;&gt;down -->
<g id="edge8" class="edge">
<title>food distanse&#45;&gt;down</title>
<path fill="none" stroke="red" stroke-width="0.14" d="M209.53,-87.85C183.63,-80.32 146.57,-68.08 116.38,-52.33 114.39,-51.29 112.38,-50.14 110.39,-48.93"/>
<polygon fill="red" stroke="red" stroke-width="0.14" points="112.31,-46.01 102.03,-43.46 108.48,-51.87 112.31,-46.01"/>
</g>
<!-- food distanse&#45;&gt;left -->
<g id="edge9" class="edge">
<title>food distanse&#45;&gt;left</title>
<path fill="none" stroke="red" stroke-width="0.35" d="M228.16,-87.95C214.83,-79.36 193.79,-65.46 176.38,-52.33 174.1,-50.6 171.75,-48.76 169.42,-46.89"/>
<polygon fill="red" stroke="red" stroke-width="0.35" points="172.06,-44.53 162.12,-40.87 167.61,-49.93 172.06,-44.53"/>
</g>
<!-- food distanse&#45;&gt;right -->
<g id="edge10" class="edge">
<title>food distanse&#45;&gt;right</title>
<path fill="none" stroke="green" stroke-width="0.16" d="M237.34,-87.85C233.63,-80.07 227.91,-68.08 222.53,-56.8"/>
<polygon fill="green" stroke="green" stroke-width="0.16" points="225.71,-55.34 218.24,-47.83 219.39,-58.36 225.71,-55.34"/>
</g>
<!-- near wall -->
<g id="node3" class="node">
<title>near wall</title>
<polygon fill="lightgray" stroke="black" points="79.88,-106.33 30.88,-106.33 30.88,-88.33 79.88,-88.33 79.88,-106.33"/>
<text text-anchor="middle" x="55.38" y="-95.13" font-family="Times New Roman,serif" font-size="9.00">near wall</text>
</g>
<!-- near wall&#45;&gt;stop -->
<g id="edge11" class="edge">
<title>near wall&#45;&gt;stop</title>
<path fill="none" stroke="red" stroke-width="0.5" d="M80.04,-90.53C129.99,-78.78 238.55,-53.2 240.38,-52.33 242.83,-51.17 245.28,-49.8 247.66,-48.32"/>
<polygon fill="red" stroke="red" stroke-width="0.5" points="249.63,-51.22 255.84,-42.64 245.63,-45.47 249.63,-51.22"/>
</g>
<!-- near wall&#45;&gt;up -->
<g id="edge12" class="edge">
<title>near wall&#45;&gt;up</title>
<path fill="none" stroke="green" stroke-width="0.21" d="M50.85,-87.85C46.03,-78.85 38.21,-64.21 31.44,-51.57"/>
<polygon fill="green" stroke="green" stroke-width="0.21" points="34.72,-50.27 26.92,-43.11 28.55,-53.58 34.72,-50.27"/>
</g>
<!-- near wall&#45;&gt;down -->
<g id="edge13" class="edge">
<title>near wall&#45;&gt;down</title>
<path fill="none" stroke="red" stroke-width="0.3" d="M58.57,-87.85C61.16,-80.96 64.99,-70.76 68.78,-60.69"/>
<polygon fill="red" stroke="red" stroke-width="0.3" points="71.95,-62.2 72.19,-51.61 65.4,-59.74 71.95,-62.2"/>
</g>
<!-- near wall&#45;&gt;left -->
<g id="edge14" class="edge">
<title>near wall&#45;&gt;left</title>
<path fill="none" stroke="green" stroke-width="0.29" d="M67.27,-88.14C79.7,-79.49 99.69,-65.32 116.38,-52.33 118.65,-50.56 120.98,-48.7 123.3,-46.81"/>
<polygon fill="green" stroke="green" stroke-width="0.29" points="125.19,-49.79 130.66,-40.72 120.72,-44.4 125.19,-49.79"/>
</g>
<!-- near wall&#45;&gt;right -->
<g id="edge15" class="edge">
<title>near wall&#45;&gt;right</title>
<path fill="none" stroke="green" stroke-width="0.15" d="M80.01,-89.87C105.18,-82.71 144.93,-69.82 176.38,-52.33 178.6,-51.09 180.82,-49.71 183.01,-48.25"/>
<polygon fill="green" stroke="green" stroke-width="0.15" points="184.94,-51.17 190.97,-42.46 180.83,-45.51 184.94,-51.17"/>
</g>
<!-- pos x -->
<g id="node4" class="node">
<title>pos x</title>
<polygon fill="lightgray" stroke="black" points="134.38,-106.33 98.38,-106.33 98.38,-88.33 134.38,-88.33 134.38,-106.33"/>
<text text-anchor="middle" x="116.38" y="-95.13" font-family="Times New Roman,serif" font-size="9.00">pos x</text>
</g>
<!-- pos x&#45;&gt;stop -->
<g id="edge16" class="edge">
<title>pos x&#45;&gt;stop</title>
<path fill="none" stroke="red" stroke-width="0.23" d="M134.46,-90.68C164.1,-81.29 221.6,-62.49 240.38,-52.33 242.88,-50.98 245.39,-49.44 247.85,-47.82"/>
<polygon fill="red" stroke="red" stroke-width="0.23" points="249.52,-50.92 255.64,-42.27 245.47,-45.22 249.52,-50.92"/>
</g>
<!-- pos x&#45;&gt;up -->
<g id="edge17" class="edge">
<title>pos x&#45;&gt;up</title>
<path fill="none" stroke="red" stroke-width="0.15" d="M101.42,-87.93C86.91,-79.55 64.49,-65.99 46.38,-52.33 43.83,-50.4 41.23,-48.28 38.69,-46.13"/>
<polygon fill="red" stroke="red" stroke-width="0.15" points="41.36,-43.82 31.55,-39.83 36.73,-49.07 41.36,-43.82"/>
</g>
<!-- pos x&#45;&gt;down -->
<g id="edge18" class="edge">
<title>pos x&#45;&gt;down</title>
<path fill="none" stroke="red" stroke-width="0.27" d="M112.09,-87.85C108.45,-80.65 102.98,-69.84 97.67,-59.34"/>
<polygon fill="red" stroke="red" stroke-width="0.27" points="100.91,-57.99 93.27,-50.64 94.66,-61.15 100.91,-57.99"/>
</g>
<!-- pos x&#45;&gt;left -->
<g id="edge19" class="edge">
<title>pos x&#45;&gt;left</title>
<path fill="none" stroke="green" stroke-width="0.29" d="M120.06,-87.85C123.63,-79.62 129.25,-66.67 134.37,-54.85"/>
<polygon fill="green" stroke="green" stroke-width="0.29" points="137.57,-56.28 138.34,-45.71 131.15,-53.5 137.57,-56.28"/>
</g>
<!-- pos x&#45;&gt;right -->
<g id="edge20" class="edge">
<title>pos x&#45;&gt;right</title>
<path fill="none" stroke="green" stroke-width="0.15" d="M127.97,-88C140.12,-79.24 159.72,-64.98 176.38,-52.33 178.4,-50.79 180.49,-49.19 182.57,-47.58"/>
<polygon fill="green" stroke="green" stroke-width="0.15" points="184.61,-50.43 190.35,-41.52 180.31,-44.91 184.61,-50.43"/>
</g>
</g>
</svg>
