<?xml version="1.0" encoding="UTF-8" standalone="no"?>
<!DOCTYPE svg PUBLIC "-//W3C//DTD SVG 1.1//EN"
 "http://www.w3.org/Graphics/SVG/1.1/DTD/svg11.dtd">
<!-- Generated by graphviz version 7.1.0 (20230121.1956)
 -->
<!-- Pages: 1 -->
<svg width="746pt" height="114pt"
 viewBox="0.00 0.00 746.00 114.33" xmlns="http://www.w3.org/2000/svg" xmlns:xlink="http://www.w3.org/1999/xlink">
<g id="graph0" class="graph" transform="scale(1 1) rotate(0) translate(4 110.33)">
<polygon fill="white" stroke="none" points="-4,4 -4,-110.33 742,-110.33 742,4 -4,4"/>
<!-- is food up -->
<g id="node1" class="node">
<title>is food up</title>
<polygon fill="lightgray" stroke="black" points="295.5,-106.33 242.5,-106.33 242.5,-88.33 295.5,-88.33 295.5,-106.33"/>
<text text-anchor="middle" x="269" y="-95.13" font-family="Times New Roman,serif" font-size="9.00">is food up</text>
</g>
<!-- down -->
<g id="node13" class="node">
<title>down</title>
<ellipse fill="lightblue" stroke="black" cx="231" cy="-26.16" rx="26.33" ry="26.33"/>
<text text-anchor="middle" x="231" y="-23.96" font-family="Times New Roman,serif" font-size="9.00">down</text>
</g>
<!-- is food up&#45;&gt;down -->
<g id="edge4" class="edge">
<title>is food up&#45;&gt;down</title>
<path fill="none" stroke="green" stroke-width="0.14" d="M264.34,-87.85C260.28,-80.46 254.14,-69.28 248.23,-58.52"/>
<polygon fill="green" stroke="green" stroke-width="0.14" points="251.36,-56.95 243.48,-49.87 245.22,-60.32 251.36,-56.95"/>
</g>
<!-- left -->
<g id="node14" class="node">
<title>left</title>
<ellipse fill="lightblue" stroke="black" cx="419" cy="-26.16" rx="20.51" ry="20.51"/>
<text text-anchor="middle" x="419" y="-23.96" font-family="Times New Roman,serif" font-size="9.00">left</text>
</g>
<!-- is food up&#45;&gt;left -->
<g id="edge19" class="edge">
<title>is food up&#45;&gt;left</title>
<path fill="none" stroke="red" stroke-width="0.31" d="M295.03,-87.85C318.18,-79.91 352.64,-67.07 381,-52.33 385.42,-50.03 389.96,-47.34 394.3,-44.59"/>
<polygon fill="red" stroke="red" stroke-width="0.31" points="396,-47.66 402.42,-39.23 392.14,-41.82 396,-47.66"/>
</g>
<!-- life pos y -->
<g id="node2" class="node">
<title>life pos y</title>
<polygon fill="lightgray" stroke="black" points="651.5,-106.33 600.5,-106.33 600.5,-88.33 651.5,-88.33 651.5,-106.33"/>
<text text-anchor="middle" x="626" y="-95.13" font-family="Times New Roman,serif" font-size="9.00">life pos y</text>
</g>
<!-- life pos y&#45;&gt;left -->
<g id="edge20" class="edge">
<title>life pos y&#45;&gt;left</title>
<path fill="none" stroke="red" stroke-width="0.13" d="M600.28,-90.43C555.19,-79.99 465.37,-58.77 452,-52.33 448.62,-50.7 445.25,-48.69 442.03,-46.52"/>
<polygon fill="red" stroke="red" stroke-width="0.13" points="444.22,-43.79 434.09,-40.7 440.08,-49.43 444.22,-43.79"/>
</g>
<!-- near bottom -->
<g id="node3" class="node">
<title>near bottom</title>
<polygon fill="lightgray" stroke="black" points="224,-106.33 164,-106.33 164,-88.33 224,-88.33 224,-106.33"/>
<text text-anchor="middle" x="194" y="-95.13" font-family="Times New Roman,serif" font-size="9.00">near bottom</text>
</g>
<!-- up -->
<g id="node12" class="node">
<title>up</title>
<ellipse fill="lightblue" stroke="black" cx="119" cy="-26.16" rx="18.27" ry="18.27"/>
<text text-anchor="middle" x="119" y="-23.96" font-family="Times New Roman,serif" font-size="9.00">up</text>
</g>
<!-- near bottom&#45;&gt;up -->
<g id="edge11" class="edge">
<title>near bottom&#45;&gt;up</title>
<path fill="none" stroke="red" stroke-width="0.21" d="M184.8,-87.85C173.54,-77.46 154.15,-59.58 139.32,-45.9"/>
<polygon fill="red" stroke="red" stroke-width="0.21" points="142.02,-43.63 132.29,-39.42 137.27,-48.77 142.02,-43.63"/>
</g>
<!-- near bottom&#45;&gt;down -->
<g id="edge2" class="edge">
<title>near bottom&#45;&gt;down</title>
<path fill="none" stroke="red" stroke-width="0.23" d="M198.54,-87.85C202.42,-80.59 208.26,-69.67 213.92,-59.09"/>
<polygon fill="red" stroke="red" stroke-width="0.23" points="217,-60.76 218.63,-50.29 210.82,-57.46 217,-60.76"/>
</g>
<!-- near bottom&#45;&gt;left -->
<g id="edge10" class="edge">
<title>near bottom&#45;&gt;left</title>
<path fill="none" stroke="green" stroke-width="0.45" d="M224.31,-89.81C273.5,-79.14 366.69,-58.51 381,-52.33 385.45,-50.4 389.95,-47.96 394.22,-45.35"/>
<polygon fill="green" stroke="green" stroke-width="0.45" points="396.08,-48.32 402.51,-39.9 392.23,-42.47 396.08,-48.32"/>
</g>
<!-- right -->
<g id="node15" class="node">
<title>right</title>
<ellipse fill="lightblue" stroke="black" cx="349" cy="-26.16" rx="23.17" ry="23.17"/>
<text text-anchor="middle" x="349" y="-23.96" font-family="Times New Roman,serif" font-size="9.00">right</text>
</g>
<!-- near bottom&#45;&gt;right -->
<g id="edge15" class="edge">
<title>near bottom&#45;&gt;right</title>
<path fill="none" stroke="red" stroke-width="0.19" d="M213.01,-87.85C239.38,-76.08 287.36,-54.67 318.7,-40.68"/>
<polygon fill="red" stroke="red" stroke-width="0.19" points="319.88,-43.99 327.58,-36.72 317.03,-37.6 319.88,-43.99"/>
</g>
<!-- is food down -->
<g id="node4" class="node">
<title>is food down</title>
<polygon fill="lightgray" stroke="black" points="64,-106.33 0,-106.33 0,-88.33 64,-88.33 64,-106.33"/>
<text text-anchor="middle" x="32" y="-95.13" font-family="Times New Roman,serif" font-size="9.00">is food down</text>
</g>
<!-- is food down&#45;&gt;up -->
<g id="edge12" class="edge">
<title>is food down&#45;&gt;up</title>
<path fill="none" stroke="red" stroke-width="0.3" d="M42.67,-87.85C56.16,-77.12 79.73,-58.39 97.11,-44.56"/>
<polygon fill="red" stroke="red" stroke-width="0.3" points="99.07,-47.48 104.72,-38.51 94.72,-42 99.07,-47.48"/>
</g>
<!-- is food down&#45;&gt;down -->
<g id="edge13" class="edge">
<title>is food down&#45;&gt;down</title>
<path fill="none" stroke="green" stroke-width="0.25" d="M56.4,-87.85C91.52,-75.64 156.46,-53.07 196.48,-39.16"/>
<polygon fill="green" stroke="green" stroke-width="0.25" points="197.43,-42.54 205.73,-35.95 195.13,-35.92 197.43,-42.54"/>
</g>
<!-- is food down&#45;&gt;right -->
<g id="edge9" class="edge">
<title>is food down&#45;&gt;right</title>
<path fill="none" stroke="green" stroke-width="0.18" d="M64.22,-90.01C67.19,-89.44 70.15,-88.87 73,-88.33 158.71,-71.97 181.23,-73.02 266,-52.33 283.16,-48.14 302.02,-42.5 317.42,-37.63"/>
<polygon fill="green" stroke="green" stroke-width="0.18" points="318.27,-41.03 326.73,-34.64 316.13,-34.37 318.27,-41.03"/>
</g>
<!-- near top -->
<g id="node5" class="node">
<title>near top</title>
<polygon fill="lightgray" stroke="black" points="507.5,-106.33 460.5,-106.33 460.5,-88.33 507.5,-88.33 507.5,-106.33"/>
<text text-anchor="middle" x="484" y="-95.13" font-family="Times New Roman,serif" font-size="9.00">near top</text>
</g>
<!-- stop -->
<g id="node11" class="node">
<title>stop</title>
<ellipse fill="lightblue" stroke="black" cx="484" cy="-26.16" rx="23.17" ry="23.17"/>
<text text-anchor="middle" x="484" y="-23.96" font-family="Times New Roman,serif" font-size="9.00">stop</text>
</g>
<!-- near top&#45;&gt;stop -->
<g id="edge16" class="edge">
<title>near top&#45;&gt;stop</title>
<path fill="none" stroke="green" stroke-width="0.48" d="M484,-87.85C484,-80.83 484,-70.39 484,-60.14"/>
<polygon fill="green" stroke="green" stroke-width="0.48" points="487.5,-60.41 484,-50.41 480.5,-60.41 487.5,-60.41"/>
</g>
<!-- near top&#45;&gt;left -->
<g id="edge21" class="edge">
<title>near top&#45;&gt;left</title>
<path fill="none" stroke="green" stroke-width="0.16" d="M476.03,-87.85C467.02,-78.26 451.99,-62.27 439.62,-49.11"/>
<polygon fill="green" stroke="green" stroke-width="0.16" points="442.28,-46.82 432.88,-41.93 437.18,-51.62 442.28,-46.82"/>
</g>
<!-- near top&#45;&gt;right -->
<g id="edge3" class="edge">
<title>near top&#45;&gt;right</title>
<path fill="none" stroke="red" stroke-width="0.26" d="M463.99,-87.95C444.51,-79.58 414.24,-66.03 389,-52.33 384.92,-50.11 380.68,-47.64 376.56,-45.14"/>
<polygon fill="red" stroke="red" stroke-width="0.26" points="378.5,-42.22 368.16,-39.91 374.8,-48.17 378.5,-42.22"/>
</g>
<!-- is food right -->
<g id="node6" class="node">
<title>is food right</title>
<polygon fill="lightgray" stroke="black" points="374,-106.33 314,-106.33 314,-88.33 374,-88.33 374,-106.33"/>
<text text-anchor="middle" x="344" y="-95.13" font-family="Times New Roman,serif" font-size="9.00">is food right</text>
</g>
<!-- is food right&#45;&gt;stop -->
<g id="edge5" class="edge">
<title>is food right&#45;&gt;stop</title>
<path fill="none" stroke="green" stroke-width="0.11" d="M368.5,-87.86C390.26,-79.92 422.61,-67.09 449,-52.33 451.87,-50.72 454.79,-48.92 457.66,-47.04"/>
<polygon fill="green" stroke="green" stroke-width="0.11" points="459.62,-49.95 465.86,-41.39 455.64,-44.18 459.62,-49.95"/>
</g>
<!-- is food right&#45;&gt;down -->
<g id="edge1" class="edge">
<title>is food right&#45;&gt;down</title>
<path fill="none" stroke="red" stroke-width="0.16" d="M330.14,-87.85C313.18,-77.46 283.96,-59.58 261.63,-45.91"/>
<polygon fill="red" stroke="red" stroke-width="0.16" points="263.7,-43.08 253.35,-40.84 260.05,-49.05 263.7,-43.08"/>
</g>
<!-- is food right&#45;&gt;right -->
<g id="edge18" class="edge">
<title>is food right&#45;&gt;right</title>
<path fill="none" stroke="green" stroke-width="0.44" d="M344.61,-87.85C345.12,-80.83 345.87,-70.39 346.62,-60.14"/>
<polygon fill="green" stroke="green" stroke-width="0.44" points="350.09,-60.57 347.32,-50.34 343.11,-60.06 350.09,-60.57"/>
</g>
<!-- near edge right -->
<g id="node7" class="node">
<title>near edge right</title>
<polygon fill="lightgray" stroke="black" points="738,-106.33 670,-106.33 670,-88.33 738,-88.33 738,-106.33"/>
<text text-anchor="middle" x="704" y="-95.13" font-family="Times New Roman,serif" font-size="9.00">near edge right</text>
</g>
<!-- near edge right&#45;&gt;stop -->
<g id="edge14" class="edge">
<title>near edge right&#45;&gt;stop</title>
<path fill="none" stroke="red" stroke-width="0.2" d="M677.02,-87.85C636.34,-75.06 559.43,-50.88 515.98,-37.22"/>
<polygon fill="red" stroke="red" stroke-width="0.2" points="517.09,-33.9 506.51,-34.24 515,-40.58 517.09,-33.9"/>
</g>
<!-- life pos x -->
<g id="node8" class="node">
<title>life pos x</title>
<polygon fill="lightgray" stroke="black" points="442,-106.33 392,-106.33 392,-88.33 442,-88.33 442,-106.33"/>
<text text-anchor="middle" x="417" y="-95.13" font-family="Times New Roman,serif" font-size="9.00">life pos x</text>
</g>
<!-- life pos x&#45;&gt;stop -->
<g id="edge23" class="edge">
<title>life pos x&#45;&gt;stop</title>
<path fill="none" stroke="green" stroke-width="0.16" d="M425.22,-87.85C434.15,-78.62 448.83,-63.46 461.29,-50.61"/>
<polygon fill="green" stroke="green" stroke-width="0.16" points="463.69,-53.16 468.13,-43.54 458.66,-48.29 463.69,-53.16"/>
</g>
<!-- life pos x&#45;&gt;down -->
<g id="edge6" class="edge">
<title>life pos x&#45;&gt;down</title>
<path fill="none" stroke="red" stroke-width="0.21" d="M394.19,-87.85C361.96,-75.86 302.82,-53.87 265.28,-39.91"/>
<polygon fill="red" stroke="red" stroke-width="0.21" points="266.66,-36.69 256.07,-36.49 264.22,-43.25 266.66,-36.69"/>
</g>
<!-- life pos x&#45;&gt;left -->
<g id="edge25" class="edge">
<title>life pos x&#45;&gt;left</title>
<path fill="none" stroke="red" stroke-width="0.17" d="M417.25,-87.85C417.47,-80.11 417.81,-68.22 418.14,-57"/>
<polygon fill="red" stroke="red" stroke-width="0.17" points="421.63,-57.39 418.42,-47.29 414.63,-57.18 421.63,-57.39"/>
</g>
<!-- life pos x&#45;&gt;right -->
<g id="edge17" class="edge">
<title>life pos x&#45;&gt;right</title>
<path fill="none" stroke="red" stroke-width="0.19" d="M408.66,-87.85C399.59,-78.62 384.69,-63.46 372.05,-50.61"/>
<polygon fill="red" stroke="red" stroke-width="0.19" points="374.64,-48.25 365.14,-43.58 369.65,-53.16 374.64,-48.25"/>
</g>
<!-- near edge left -->
<g id="node9" class="node">
<title>near edge left</title>
<polygon fill="lightgray" stroke="black" points="146,-106.33 82,-106.33 82,-88.33 146,-88.33 146,-106.33"/>
<text text-anchor="middle" x="114" y="-95.13" font-family="Times New Roman,serif" font-size="9.00">near edge left</text>
</g>
<!-- near edge left&#45;&gt;down -->
<g id="edge24" class="edge">
<title>near edge left&#45;&gt;down</title>
<path fill="none" stroke="green" stroke-width="0.41" d="M128.35,-87.85C145.94,-77.45 176.26,-59.52 199.41,-45.84"/>
<polygon fill="green" stroke="green" stroke-width="0.41" points="201.15,-48.87 207.98,-40.77 197.59,-42.85 201.15,-48.87"/>
</g>
<!-- is food left -->
<g id="node10" class="node">
<title>is food left</title>
<polygon fill="lightgray" stroke="black" points="582,-106.33 526,-106.33 526,-88.33 582,-88.33 582,-106.33"/>
<text text-anchor="middle" x="554" y="-95.13" font-family="Times New Roman,serif" font-size="9.00">is food left</text>
</g>
<!-- is food left&#45;&gt;stop -->
<g id="edge8" class="edge">
<title>is food left&#45;&gt;stop</title>
<path fill="none" stroke="red" stroke-width="0.29" d="M545.42,-87.85C536.02,-78.56 520.54,-63.27 507.47,-50.36"/>
<polygon fill="red" stroke="red" stroke-width="0.29" points="510.01,-47.94 500.43,-43.4 505.09,-52.92 510.01,-47.94"/>
</g>
<!-- is food left&#45;&gt;left -->
<g id="edge7" class="edge">
<title>is food left&#45;&gt;left</title>
<path fill="none" stroke="green" stroke-width="0.31" d="M530.12,-87.93C508.93,-80.03 477.47,-67.23 452,-52.33 448.92,-50.52 445.8,-48.48 442.77,-46.35"/>
<polygon fill="green" stroke="green" stroke-width="0.31" points="445.06,-43.7 434.95,-40.55 440.89,-49.32 445.06,-43.7"/>
</g>
<!-- is food left&#45;&gt;right -->
<g id="edge22" class="edge">
<title>is food left&#45;&gt;right</title>
<path fill="none" stroke="green" stroke-width="0.54" d="M525.81,-89.89C485.49,-80.51 413.53,-63.02 389,-52.33 384.85,-50.52 380.64,-48.32 376.58,-45.99"/>
<polygon fill="green" stroke="green" stroke-width="0.54" points="378.54,-43.09 368.18,-40.85 374.88,-49.06 378.54,-43.09"/>
</g>
</g>
</svg>
