<?xml version="1.0" encoding="UTF-8" standalone="no"?>
<!DOCTYPE svg PUBLIC "-//W3C//DTD SVG 1.1//EN"
 "http://www.w3.org/Graphics/SVG/1.1/DTD/svg11.dtd">
<!-- Generated by graphviz version 7.1.0 (20230121.1956)
 -->
<!-- Pages: 1 -->
<svg width="870pt" height="187pt"
 viewBox="0.00 0.00 869.94 187.10" xmlns="http://www.w3.org/2000/svg" xmlns:xlink="http://www.w3.org/1999/xlink">
<g id="graph0" class="graph" transform="scale(1 1) rotate(0) translate(4 183.1)">
<polygon fill="white" stroke="none" points="-4,4 -4,-183.1 865.94,-183.1 865.94,4 -4,4"/>
<!-- is food up -->
<g id="node1" class="node">
<title>is food up</title>
<polygon fill="lightgray" stroke="black" points="71.06,-115.71 18.06,-115.71 18.06,-97.71 71.06,-97.71 71.06,-115.71"/>
<text text-anchor="middle" x="44.56" y="-104.51" font-family="Times New Roman,serif" font-size="9.00">is food up</text>
</g>
<!-- down -->
<g id="node13" class="node">
<title>down</title>
<ellipse fill="lightblue" stroke="black" cx="120.56" cy="-26.16" rx="26.33" ry="26.33"/>
<text text-anchor="middle" x="120.56" y="-23.96" font-family="Times New Roman,serif" font-size="9.00">down</text>
</g>
<!-- is food up&#45;&gt;down -->
<g id="edge5" class="edge">
<title>is food up&#45;&gt;down</title>
<path fill="none" stroke="green" stroke-width="0.26" d="M52.69,-97.3C62.82,-86.83 80.62,-68.44 95.44,-53.12"/>
<polygon fill="green" stroke="green" stroke-width="0.26" points="97.73,-55.79 102.16,-46.17 92.7,-50.92 97.73,-55.79"/>
</g>
<!-- right -->
<g id="node15" class="node">
<title>right</title>
<ellipse fill="lightblue" stroke="black" cx="269.56" cy="-26.16" rx="23.17" ry="23.17"/>
<text text-anchor="middle" x="269.56" y="-23.96" font-family="Times New Roman,serif" font-size="9.00">right</text>
</g>
<!-- is food up&#45;&gt;right -->
<g id="edge24" class="edge">
<title>is food up&#45;&gt;right</title>
<path fill="none" stroke="red" stroke-width="0.34" d="M60.83,-97.27C66.94,-94.26 73.98,-90.96 80.56,-88.33 134.39,-66.73 199.07,-47.11 237.1,-36.19"/>
<polygon fill="red" stroke="red" stroke-width="0.34" points="237.94,-39.59 246.6,-33.49 236.02,-32.86 237.94,-39.59"/>
</g>
<!-- life pos y -->
<g id="node2" class="node">
<title>life pos y</title>
<polygon fill="lightgray" stroke="black" points="371.06,-115.71 320.06,-115.71 320.06,-97.71 371.06,-97.71 371.06,-115.71"/>
<text text-anchor="middle" x="345.56" y="-104.51" font-family="Times New Roman,serif" font-size="9.00">life pos y</text>
</g>
<!-- up -->
<g id="node12" class="node">
<title>up</title>
<ellipse fill="lightblue" stroke="black" cx="417.56" cy="-26.16" rx="18.27" ry="18.27"/>
<text text-anchor="middle" x="417.56" y="-23.96" font-family="Times New Roman,serif" font-size="9.00">up</text>
</g>
<!-- life pos y&#45;&gt;up -->
<g id="edge9" class="edge">
<title>life pos y&#45;&gt;up</title>
<path fill="none" stroke="green" stroke-width="0.15" d="M353.26,-97.3C364.05,-85.54 383.99,-63.78 398.82,-47.61"/>
<polygon fill="green" stroke="green" stroke-width="0.15" points="401.29,-50.09 405.47,-40.35 396.13,-45.36 401.29,-50.09"/>
</g>
<!-- left -->
<g id="node14" class="node">
<title>left</title>
<ellipse fill="lightblue" stroke="black" cx="606.56" cy="-26.16" rx="20.51" ry="20.51"/>
<text text-anchor="middle" x="606.56" y="-23.96" font-family="Times New Roman,serif" font-size="9.00">left</text>
</g>
<!-- life pos y&#45;&gt;left -->
<g id="edge13" class="edge">
<title>life pos y&#45;&gt;left</title>
<path fill="none" stroke="red" stroke-width="0.2" d="M360.94,-97.25C366.95,-94.17 373.96,-90.83 380.56,-88.33 448.67,-62.48 532.18,-42.85 576.14,-33.39"/>
<polygon fill="red" stroke="red" stroke-width="0.2" points="576.83,-36.83 585.89,-31.33 575.38,-29.98 576.83,-36.83"/>
</g>
<!-- life pos y&#45;&gt;right -->
<g id="edge7" class="edge">
<title>life pos y&#45;&gt;right</title>
<path fill="none" stroke="red" stroke-width="0.18" d="M337.42,-97.3C326.76,-86.29 307.62,-66.51 292.38,-50.76"/>
<polygon fill="red" stroke="red" stroke-width="0.18" points="294.93,-48.36 285.46,-43.6 289.9,-53.22 294.93,-48.36"/>
</g>
<!-- near bottom -->
<g id="node3" class="node">
<title>near bottom</title>
<polygon fill="lightgray" stroke="black" points="523.56,-115.71 463.56,-115.71 463.56,-97.71 523.56,-97.71 523.56,-115.71"/>
<text text-anchor="middle" x="493.56" y="-104.51" font-family="Times New Roman,serif" font-size="9.00">near bottom</text>
</g>
<!-- stop -->
<g id="node11" class="node">
<title>stop</title>
<ellipse fill="lightblue" stroke="black" cx="720.56" cy="-26.16" rx="23.17" ry="23.17"/>
<text text-anchor="middle" x="720.56" y="-23.96" font-family="Times New Roman,serif" font-size="9.00">stop</text>
</g>
<!-- near bottom&#45;&gt;stop -->
<g id="edge10" class="edge">
<title>near bottom&#45;&gt;stop</title>
<path fill="none" stroke="red" stroke-width="0.37" d="M511.25,-97.35C517.87,-94.35 525.5,-91.04 532.56,-88.33 586.44,-67.62 650.67,-47.72 688.39,-36.51"/>
<polygon fill="red" stroke="red" stroke-width="0.37" points="689.16,-39.93 697.76,-33.74 687.18,-33.21 689.16,-39.93"/>
</g>
<!-- near bottom&#45;&gt;up -->
<g id="edge20" class="edge">
<title>near bottom&#45;&gt;up</title>
<path fill="none" stroke="green" stroke-width="0.25" d="M485.42,-97.3C473.97,-85.47 452.74,-63.53 437.07,-47.33"/>
<polygon fill="green" stroke="green" stroke-width="0.25" points="439.61,-44.92 430.14,-40.17 434.58,-49.79 439.61,-44.92"/>
</g>
<!-- near bottom&#45;&gt;right -->
<g id="edge16" class="edge">
<title>near bottom&#45;&gt;right</title>
<path fill="none" stroke="red" stroke-width="0.21" d="M475.85,-97.37C469.23,-94.37 461.61,-91.06 454.56,-88.33 401.64,-67.84 338.65,-47.95 301.5,-36.66"/>
<polygon fill="red" stroke="red" stroke-width="0.21" points="302.62,-33.34 292.04,-33.8 300.6,-40.04 302.62,-33.34"/>
</g>
<!-- is food down -->
<g id="node4" class="node">
<title>is food down</title>
<polygon fill="lightgray" stroke="black" points="153.56,-115.71 89.56,-115.71 89.56,-97.71 153.56,-97.71 153.56,-115.71"/>
<text text-anchor="middle" x="121.56" y="-104.51" font-family="Times New Roman,serif" font-size="9.00">is food down</text>
</g>
<!-- is food down&#45;&gt;right -->
<g id="edge21" class="edge">
<title>is food down&#45;&gt;right</title>
<path fill="none" stroke="red" stroke-width="0.19" d="M137.39,-97.3C161.86,-84.32 209.23,-59.18 240.11,-42.79"/>
<polygon fill="red" stroke="red" stroke-width="0.19" points="241.68,-45.92 248.87,-38.14 238.4,-39.74 241.68,-45.92"/>
</g>
<!-- near top -->
<g id="node5" class="node">
<title>near top</title>
<polygon fill="lightgray" stroke="black" points="219.06,-115.71 172.06,-115.71 172.06,-97.71 219.06,-97.71 219.06,-115.71"/>
<text text-anchor="middle" x="195.56" y="-104.51" font-family="Times New Roman,serif" font-size="9.00">near top</text>
</g>
<!-- near top&#45;&gt;up -->
<g id="edge22" class="edge">
<title>near top&#45;&gt;up</title>
<path fill="none" stroke="green" stroke-width="0.41" d="M210.08,-97.37C215.74,-94.3 222.35,-90.94 228.56,-88.33 284.24,-64.86 352.23,-44.86 389.6,-34.58"/>
<polygon fill="green" stroke="green" stroke-width="0.41" points="390.4,-37.99 399.13,-31.99 388.56,-31.24 390.4,-37.99"/>
</g>
<!-- near top&#45;&gt;down -->
<g id="edge14" class="edge">
<title>near top&#45;&gt;down</title>
<path fill="none" stroke="red" stroke-width="0.15" d="M187.53,-97.3C177.53,-86.83 159.97,-68.44 145.34,-53.12"/>
<polygon fill="red" stroke="red" stroke-width="0.15" points="148.03,-50.87 138.59,-46.05 142.97,-55.7 148.03,-50.87"/>
</g>
<!-- is food right -->
<g id="node6" class="node">
<title>is food right</title>
<polygon fill="lightgray" stroke="black" points="747.56,-179.1 687.56,-179.1 687.56,-161.1 747.56,-161.1 747.56,-179.1"/>
<text text-anchor="middle" x="717.56" y="-167.9" font-family="Times New Roman,serif" font-size="9.00">is food right</text>
</g>
<!-- is food right&#45;&gt;stop -->
<g id="edge3" class="edge">
<title>is food right&#45;&gt;stop</title>
<path fill="none" stroke="green" stroke-width="0.24" stroke-dasharray="1,5" d="M737.75,-160.66C752.01,-153.5 770.05,-141.72 778.56,-125.1 786,-110.55 784.61,-103.51 778.56,-88.33 772.06,-72.05 758.95,-57.61 746.83,-46.86"/>
<polygon fill="green" stroke="green" stroke-width="0.24" points="749.28,-44.34 739.38,-40.58 744.77,-49.7 749.28,-44.34"/>
</g>
<!-- is food right&#45;&gt;down -->
<g id="edge23" class="edge">
<title>is food right&#45;&gt;down</title>
<path fill="none" stroke="green" stroke-width="0.15" d="M687.32,-168.36C554.95,-165.01 32.15,-150.2 8.56,-125.1 -22.77,-91.76 42.85,-57.68 86.27,-39.84"/>
<polygon fill="green" stroke="green" stroke-width="0.15" points="87.49,-43.12 95.48,-36.16 84.9,-36.62 87.49,-43.12"/>
</g>
<!-- is food right&#45;&gt;left -->
<g id="edge12" class="edge">
<title>is food right&#45;&gt;left</title>
<path fill="none" stroke="green" stroke-width="0.22" d="M701.93,-160.67C688.56,-152.85 669.48,-140.16 656.56,-125.1 638.83,-104.42 625.33,-76.38 616.85,-55.6"/>
<polygon fill="green" stroke="green" stroke-width="0.22" points="620.14,-54.38 613.22,-46.36 613.62,-56.94 620.14,-54.38"/>
</g>
<!-- 25 -->
<g id="node17" class="node">
<title>25</title>
<ellipse fill="white" stroke="black" cx="843.56" cy="-106.71" rx="18.27" ry="18.27"/>
<text text-anchor="middle" x="843.56" y="-104.51" font-family="Times New Roman,serif" font-size="9.00">25</text>
</g>
<!-- is food right&#45;&gt;25 -->
<g id="edge26" class="edge">
<title>is food right&#45;&gt;25</title>
<path fill="none" stroke="green" stroke-width="0.2" d="M736.44,-160.66C755.54,-152.03 785.82,-138.09 811.56,-125.1 813.88,-123.92 816.28,-122.68 818.67,-121.42"/>
<polygon fill="green" stroke="green" stroke-width="0.2" points="820.28,-124.53 827.43,-116.71 816.97,-118.36 820.28,-124.53"/>
</g>
<!-- near edge right -->
<g id="node7" class="node">
<title>near edge right</title>
<polygon fill="lightgray" stroke="black" points="609.56,-115.71 541.56,-115.71 541.56,-97.71 609.56,-97.71 609.56,-115.71"/>
<text text-anchor="middle" x="575.56" y="-104.51" font-family="Times New Roman,serif" font-size="9.00">near edge right</text>
</g>
<!-- near edge right&#45;&gt;up -->
<g id="edge18" class="edge">
<title>near edge right&#45;&gt;up</title>
<path fill="none" stroke="red" stroke-width="0.21" d="M558.65,-97.3C530.82,-83.47 475.24,-55.84 442.76,-39.69"/>
<polygon fill="red" stroke="red" stroke-width="0.21" points="444.67,-36.73 434.16,-35.42 441.55,-43 444.67,-36.73"/>
</g>
<!-- near edge right&#45;&gt;left -->
<g id="edge1" class="edge">
<title>near edge right&#45;&gt;left</title>
<path fill="none" stroke="green" stroke-width="0.31" d="M578.87,-97.3C582.85,-87.24 589.7,-69.87 595.59,-54.93"/>
<polygon fill="green" stroke="green" stroke-width="0.31" points="598.7,-56.59 599.12,-46.01 592.19,-54.02 598.7,-56.59"/>
</g>
<!-- life pos x -->
<g id="node8" class="node">
<title>life pos x</title>
<polygon fill="lightgray" stroke="black" points="715.56,-115.71 665.56,-115.71 665.56,-97.71 715.56,-97.71 715.56,-115.71"/>
<text text-anchor="middle" x="690.56" y="-104.51" font-family="Times New Roman,serif" font-size="9.00">life pos x</text>
</g>
<!-- life pos x&#45;&gt;stop -->
<g id="edge15" class="edge">
<title>life pos x&#45;&gt;stop</title>
<path fill="none" stroke="green" stroke-width="0.18" d="M693.77,-97.3C697.38,-87.85 703.45,-71.95 708.9,-57.68"/>
<polygon fill="green" stroke="green" stroke-width="0.18" points="712.14,-59 712.44,-48.41 705.6,-56.5 712.14,-59"/>
</g>
<!-- life pos x&#45;&gt;up -->
<g id="edge19" class="edge">
<title>life pos x&#45;&gt;up</title>
<path fill="none" stroke="red" stroke-width="0.29" d="M665.36,-98.46C614.11,-83.72 498.09,-50.34 445,-35.06"/>
<polygon fill="red" stroke="red" stroke-width="0.29" points="445.98,-31.7 435.4,-32.3 444.04,-38.43 445.98,-31.7"/>
</g>
<!-- life pos x&#45;&gt;left -->
<g id="edge4" class="edge">
<title>life pos x&#45;&gt;left</title>
<path fill="none" stroke="red" stroke-width="0.24" d="M681.57,-97.3C669.09,-85.64 646.11,-64.15 628.86,-48.02"/>
<polygon fill="red" stroke="red" stroke-width="0.24" points="631.35,-45.56 621.66,-41.28 626.57,-50.67 631.35,-45.56"/>
</g>
<!-- near edge left -->
<g id="node9" class="node">
<title>near edge left</title>
<polygon fill="lightgray" stroke="black" points="301.56,-115.71 237.56,-115.71 237.56,-97.71 301.56,-97.71 301.56,-115.71"/>
<text text-anchor="middle" x="269.56" y="-104.51" font-family="Times New Roman,serif" font-size="9.00">near edge left</text>
</g>
<!-- near edge left&#45;&gt;stop -->
<g id="edge11" class="edge">
<title>near edge left&#45;&gt;stop</title>
<path fill="none" stroke="red" stroke-width="0.19" d="M286.32,-97.29C293.6,-93.99 302.33,-90.48 310.56,-88.33 451.59,-51.48 493.71,-81.36 636.56,-52.33 654.18,-48.74 673.42,-43.11 689.04,-38.08"/>
<polygon fill="red" stroke="red" stroke-width="0.19" points="690.05,-41.43 698.46,-34.98 687.86,-34.78 690.05,-41.43"/>
</g>
<!-- near edge left&#45;&gt;up -->
<g id="edge6" class="edge">
<title>near edge left&#45;&gt;up</title>
<path fill="none" stroke="red" stroke-width="0.48" d="M285.39,-97.3C311.1,-83.66 362.09,-56.6 392.68,-40.37"/>
<polygon fill="red" stroke="red" stroke-width="0.48" points="393.99,-43.63 401.18,-35.85 390.71,-37.45 393.99,-43.63"/>
</g>
<!-- near edge left&#45;&gt;down -->
<g id="edge8" class="edge">
<title>near edge left&#45;&gt;down</title>
<path fill="none" stroke="red" stroke-width="0.14" d="M253.61,-97.3C229.56,-84.63 183.51,-60.35 152.41,-43.96"/>
<polygon fill="red" stroke="red" stroke-width="0.14" points="154.34,-41.02 143.87,-39.45 151.08,-47.21 154.34,-41.02"/>
</g>
<!-- near edge left&#45;&gt;right -->
<g id="edge17" class="edge">
<title>near edge left&#45;&gt;right</title>
<path fill="none" stroke="red" stroke-width="0.14" d="M269.56,-97.3C269.56,-88.35 269.56,-73.61 269.56,-59.94"/>
<polygon fill="red" stroke="red" stroke-width="0.14" points="273.06,-60.02 269.56,-50.02 266.06,-60.02 273.06,-60.02"/>
</g>
<!-- is food left -->
<g id="node10" class="node">
<title>is food left</title>
<polygon fill="lightgray" stroke="black" points="445.56,-115.71 389.56,-115.71 389.56,-97.71 445.56,-97.71 445.56,-115.71"/>
<text text-anchor="middle" x="417.56" y="-104.51" font-family="Times New Roman,serif" font-size="9.00">is food left</text>
</g>
<!-- is food left&#45;&gt;up -->
<g id="edge2" class="edge">
<title>is food left&#45;&gt;up</title>
<path fill="none" stroke="green" stroke-width="0.2" d="M417.56,-97.3C417.56,-87.24 417.56,-69.87 417.56,-54.94"/>
<polygon fill="green" stroke="green" stroke-width="0.2" points="421.06,-54.94 417.56,-44.94 414.06,-54.94 421.06,-54.94"/>
</g>
<!-- 19 -->
<g id="node16" class="node">
<title>19</title>
<ellipse fill="white" stroke="black" cx="751.56" cy="-106.71" rx="18.27" ry="18.27"/>
<text text-anchor="middle" x="751.56" y="-104.51" font-family="Times New Roman,serif" font-size="9.00">19</text>
</g>
<!-- 19&#45;&gt;stop -->
<g id="edge25" class="edge">
<title>19&#45;&gt;stop</title>
<path fill="none" stroke="red" stroke-width="0.22" d="M745.13,-89.44C741.52,-80.28 736.89,-68.56 732.63,-57.76"/>
<polygon fill="red" stroke="red" stroke-width="0.22" points="735.91,-56.53 728.98,-48.51 729.4,-59.1 735.91,-56.53"/>
</g>
<!-- 25&#45;&gt;stop -->
<g id="edge27" class="edge">
<title>25&#45;&gt;stop</title>
<path fill="none" stroke="green" stroke-width="0.36" d="M828.23,-95.92C808.27,-83.18 773.02,-60.66 748.3,-44.88"/>
<polygon fill="green" stroke="green" stroke-width="0.36" points="750.49,-42.13 740.18,-39.69 746.72,-48.03 750.49,-42.13"/>
</g>
</g>
</svg>
