<?xml version="1.0" encoding="UTF-8" standalone="no"?>
<!DOCTYPE svg PUBLIC "-//W3C//DTD SVG 1.1//EN"
 "http://www.w3.org/Graphics/SVG/1.1/DTD/svg11.dtd">
<!-- Generated by graphviz version 7.1.0 (20230121.1956)
 -->
<!-- Pages: 1 -->
<svg width="332pt" height="216pt"
 viewBox="0.00 0.00 332.38 215.76" xmlns="http://www.w3.org/2000/svg" xmlns:xlink="http://www.w3.org/1999/xlink">
<g id="graph0" class="graph" transform="scale(1 1) rotate(0) translate(4 211.76)">
<polygon fill="white" stroke="none" points="-4,4 -4,-211.76 328.38,-211.76 328.38,4 -4,4"/>
<!-- food x -->
<g id="node1" class="node">
<title>food x</title>
<polygon fill="lightgray" stroke="black" points="50.66,-195.55 11.66,-195.55 11.66,-177.55 50.66,-177.55 50.66,-195.55"/>
<text text-anchor="middle" x="31.16" y="-184.35" font-family="Times New Roman,serif" font-size="9.00">food x</text>
</g>
<!-- stop -->
<g id="node5" class="node">
<title>stop</title>
<ellipse fill="lightblue" stroke="black" cx="93.16" cy="-103.18" rx="23.17" ry="23.17"/>
<text text-anchor="middle" x="93.16" y="-100.98" font-family="Times New Roman,serif" font-size="9.00">stop</text>
</g>
<!-- food x&#45;&gt;stop -->
<g id="edge11" class="edge">
<title>food x&#45;&gt;stop</title>
<path fill="none" stroke="red" stroke-width="0.16" d="M37.56,-177.15C45.94,-166.15 61.01,-146.37 73.35,-130.18"/>
<polygon fill="red" stroke="red" stroke-width="0.16" points="76.08,-132.37 79.36,-122.3 70.51,-128.13 76.08,-132.37"/>
</g>
<!-- down -->
<g id="node7" class="node">
<title>down</title>
<ellipse fill="lightblue" stroke="black" cx="26.16" cy="-103.18" rx="26.33" ry="26.33"/>
<text text-anchor="middle" x="26.16" y="-100.98" font-family="Times New Roman,serif" font-size="9.00">down</text>
</g>
<!-- food x&#45;&gt;down -->
<g id="edge2" class="edge">
<title>food x&#45;&gt;down</title>
<path fill="none" stroke="red" stroke-width="0.17" d="M30.65,-177.15C30.1,-168.2 29.19,-153.42 28.33,-139.5"/>
<polygon fill="red" stroke="red" stroke-width="0.17" points="31.85,-139.63 27.74,-129.87 24.86,-140.06 31.85,-139.63"/>
</g>
<!-- food rel y -->
<g id="node2" class="node">
<title>food rel y</title>
<polygon fill="lightgray" stroke="black" points="184.16,-195.55 132.16,-195.55 132.16,-177.55 184.16,-177.55 184.16,-195.55"/>
<text text-anchor="middle" x="158.16" y="-184.35" font-family="Times New Roman,serif" font-size="9.00">food rel y</text>
</g>
<!-- food rel y&#45;&gt;stop -->
<g id="edge8" class="edge">
<title>food rel y&#45;&gt;stop</title>
<path fill="none" stroke="green" stroke-width="0.18" d="M151.45,-177.15C142.53,-165.98 126.38,-145.76 113.33,-129.43"/>
<polygon fill="green" stroke="green" stroke-width="0.18" points="116.37,-127.63 107.4,-122 110.9,-131.99 116.37,-127.63"/>
</g>
<!-- right -->
<g id="node9" class="node">
<title>right</title>
<ellipse fill="lightblue" stroke="black" cx="158.16" cy="-103.18" rx="23.17" ry="23.17"/>
<text text-anchor="middle" x="158.16" y="-100.98" font-family="Times New Roman,serif" font-size="9.00">right</text>
</g>
<!-- food rel y&#45;&gt;right -->
<g id="edge5" class="edge">
<title>food rel y&#45;&gt;right</title>
<path fill="none" stroke="red" stroke-width="0.47" d="M158.16,-177.15C158.16,-167.76 158.16,-151.99 158.16,-137.5"/>
<polygon fill="red" stroke="red" stroke-width="0.47" points="161.66,-137.51 158.16,-127.51 154.66,-137.51 161.66,-137.51"/>
</g>
<!-- 156 -->
<g id="node11" class="node">
<title>156</title>
<ellipse fill="white" stroke="black" cx="221.16" cy="-103.18" rx="21.43" ry="21.43"/>
<text text-anchor="middle" x="221.16" y="-100.98" font-family="Times New Roman,serif" font-size="9.00">156</text>
</g>
<!-- food rel y&#45;&gt;156 -->
<g id="edge1" class="edge">
<title>food rel y&#45;&gt;156</title>
<path fill="none" stroke="green" stroke-width="0.23" d="M164.67,-177.15C173.4,-165.88 189.27,-145.37 201.97,-128.97"/>
<polygon fill="green" stroke="green" stroke-width="0.23" points="204.7,-131.16 208.05,-121.11 199.17,-126.87 204.7,-131.16"/>
</g>
<!-- pos y -->
<g id="node3" class="node">
<title>pos y</title>
<polygon fill="lightgray" stroke="black" points="264.16,-195.55 226.16,-195.55 226.16,-177.55 264.16,-177.55 264.16,-195.55"/>
<text text-anchor="middle" x="245.16" y="-184.35" font-family="Times New Roman,serif" font-size="9.00">pos y</text>
</g>
<!-- left -->
<g id="node8" class="node">
<title>left</title>
<ellipse fill="lightblue" stroke="black" cx="270.16" cy="-20.51" rx="20.51" ry="20.51"/>
<text text-anchor="middle" x="270.16" y="-18.31" font-family="Times New Roman,serif" font-size="9.00">left</text>
</g>
<!-- pos y&#45;&gt;left -->
<g id="edge3" class="edge">
<title>pos y&#45;&gt;left</title>
<path fill="none" stroke="red" stroke-width="0.79" d="M246.44,-177.19C249.9,-154.47 259.62,-90.71 265.49,-52.2"/>
<polygon fill="red" stroke="red" stroke-width="0.79" points="268.94,-52.73 266.99,-42.32 262.02,-51.67 268.94,-52.73"/>
</g>
<!-- pos y&#45;&gt;right -->
<g id="edge6" class="edge">
<title>pos y&#45;&gt;right</title>
<path fill="none" stroke="green" stroke-width="0.58" d="M236.18,-177.15C223.61,-165.39 200.29,-143.58 182.41,-126.86"/>
<polygon fill="green" stroke="green" stroke-width="0.58" points="184.97,-124.46 175.28,-120.19 180.19,-129.57 184.97,-124.46"/>
</g>
<!-- food y -->
<g id="node4" class="node">
<title>food y</title>
<polygon fill="lightgray" stroke="black" points="113.66,-195.55 72.66,-195.55 72.66,-177.55 113.66,-177.55 113.66,-195.55"/>
<text text-anchor="middle" x="93.16" y="-184.35" font-family="Times New Roman,serif" font-size="9.00">food y</text>
</g>
<!-- food y&#45;&gt;stop -->
<g id="edge4" class="edge">
<title>food y&#45;&gt;stop</title>
<path fill="none" stroke="red" stroke-width="0.23" d="M93.16,-177.15C93.16,-167.67 93.16,-151.68 93.16,-137.07"/>
<polygon fill="red" stroke="red" stroke-width="0.23" points="96.66,-137.14 93.16,-127.14 89.66,-137.14 96.66,-137.14"/>
</g>
<!-- food y&#45;&gt;right -->
<g id="edge9" class="edge">
<title>food y&#45;&gt;right</title>
<path fill="none" stroke="red" stroke-width="0.16" d="M99.87,-177.15C108.79,-165.98 124.95,-145.76 137.99,-129.43"/>
<polygon fill="red" stroke="red" stroke-width="0.16" points="140.44,-131.97 143.95,-121.97 134.97,-127.6 140.44,-131.97"/>
</g>
<!-- up -->
<g id="node6" class="node">
<title>up</title>
<ellipse fill="lightblue" stroke="black" cx="213.16" cy="-20.51" rx="18.27" ry="18.27"/>
<text text-anchor="middle" x="213.16" y="-18.31" font-family="Times New Roman,serif" font-size="9.00">up</text>
</g>
<!-- 155 -->
<g id="node10" class="node">
<title>155</title>
<ellipse fill="white" stroke="black" cx="303.16" cy="-186.55" rx="21.43" ry="21.43"/>
<text text-anchor="middle" x="303.16" y="-184.35" font-family="Times New Roman,serif" font-size="9.00">155</text>
</g>
<!-- 156&#45;&gt;up -->
<g id="edge10" class="edge">
<title>156&#45;&gt;up</title>
<path fill="none" stroke="green" stroke-width="0.39" d="M219.1,-81.4C218.13,-71.63 216.96,-59.84 215.92,-49.31"/>
<polygon fill="green" stroke="green" stroke-width="0.39" points="219.42,-49.14 214.95,-39.53 212.45,-49.83 219.42,-49.14"/>
</g>
<!-- 156&#45;&gt;left -->
<g id="edge7" class="edge">
<title>156&#45;&gt;left</title>
<path fill="none" stroke="green" stroke-width="0.12" d="M232.04,-84.27C238.71,-73.29 247.35,-59.06 254.73,-46.92"/>
<polygon fill="green" stroke="green" stroke-width="0.12" points="257.53,-49.04 259.73,-38.68 251.55,-45.41 257.53,-49.04"/>
</g>
</g>
</svg>
