<?xml version="1.0" encoding="UTF-8" standalone="no"?>
<!DOCTYPE svg PUBLIC "-//W3C//DTD SVG 1.1//EN"
 "http://www.w3.org/Graphics/SVG/1.1/DTD/svg11.dtd">
<!-- Generated by graphviz version 7.1.0 (20230121.1956)
 -->
<!-- Pages: 1 -->
<svg width="548pt" height="216pt"
 viewBox="0.00 0.00 547.88 215.76" xmlns="http://www.w3.org/2000/svg" xmlns:xlink="http://www.w3.org/1999/xlink">
<g id="graph0" class="graph" transform="scale(1 1) rotate(0) translate(4 211.76)">
<polygon fill="white" stroke="none" points="-4,4 -4,-211.76 543.88,-211.76 543.88,4 -4,4"/>
<!-- is food up -->
<g id="node1" class="node">
<title>is food up</title>
<polygon fill="lightgray" stroke="black" points="245.88,-198.38 192.88,-198.38 192.88,-180.38 245.88,-180.38 245.88,-198.38"/>
<text text-anchor="middle" x="219.38" y="-187.18" font-family="Times New Roman,serif" font-size="9.00">is food up</text>
</g>
<!-- stop -->
<g id="node8" class="node">
<title>stop</title>
<ellipse fill="lightblue" stroke="black" cx="281.38" cy="-108.83" rx="23.17" ry="23.17"/>
<text text-anchor="middle" x="281.38" y="-106.63" font-family="Times New Roman,serif" font-size="9.00">stop</text>
</g>
<!-- is food up&#45;&gt;stop -->
<g id="edge3" class="edge">
<title>is food up&#45;&gt;stop</title>
<path fill="none" stroke="red" stroke-width="0.26" d="M226.02,-179.97C234.3,-169.49 248.83,-151.07 260.93,-135.74"/>
<polygon fill="red" stroke="red" stroke-width="0.26" points="263.65,-137.94 267.1,-127.93 258.16,-133.61 263.65,-137.94"/>
</g>
<!-- right -->
<g id="node12" class="node">
<title>right</title>
<ellipse fill="lightblue" stroke="black" cx="426.38" cy="-23.33" rx="23.17" ry="23.17"/>
<text text-anchor="middle" x="426.38" y="-21.13" font-family="Times New Roman,serif" font-size="9.00">right</text>
</g>
<!-- is food up&#45;&gt;right -->
<g id="edge7" class="edge">
<title>is food up&#45;&gt;right</title>
<path fill="none" stroke="red" stroke-width="0.91" d="M219.27,-179.97C219.45,-160.22 222.71,-110.48 249.38,-82.67 287.11,-43.33 351.84,-30.5 391.69,-26.33"/>
<polygon fill="red" stroke="red" stroke-width="0.91" points="391.95,-29.82 401.59,-25.44 391.32,-22.85 391.95,-29.82"/>
</g>
<!-- pos y -->
<g id="node2" class="node">
<title>pos y</title>
<polygon fill="lightgray" stroke="black" points="174.38,-198.38 136.38,-198.38 136.38,-180.38 174.38,-180.38 174.38,-198.38"/>
<text text-anchor="middle" x="155.38" y="-187.18" font-family="Times New Roman,serif" font-size="9.00">pos y</text>
</g>
<!-- pos y&#45;&gt;stop -->
<g id="edge2" class="edge">
<title>pos y&#45;&gt;stop</title>
<path fill="none" stroke="red" stroke-width="0.54" d="M168.87,-179.97C188.77,-167.57 226.49,-144.06 252.74,-127.69"/>
<polygon fill="red" stroke="red" stroke-width="0.54" points="254.51,-130.71 261.14,-122.45 250.81,-124.77 254.51,-130.71"/>
</g>
<!-- down -->
<g id="node10" class="node">
<title>down</title>
<ellipse fill="lightblue" stroke="black" cx="155.38" cy="-108.83" rx="26.33" ry="26.33"/>
<text text-anchor="middle" x="155.38" y="-106.63" font-family="Times New Roman,serif" font-size="9.00">down</text>
</g>
<!-- pos y&#45;&gt;down -->
<g id="edge6" class="edge">
<title>pos y&#45;&gt;down</title>
<path fill="none" stroke="red" stroke-width="0.7" d="M155.38,-179.97C155.38,-171.83 155.38,-158.91 155.38,-146.36"/>
<polygon fill="red" stroke="red" stroke-width="0.7" points="158.88,-146.62 155.38,-136.62 151.88,-146.62 158.88,-146.62"/>
</g>
<!-- left -->
<g id="node11" class="node">
<title>left</title>
<ellipse fill="lightblue" stroke="black" cx="86.38" cy="-108.83" rx="20.51" ry="20.51"/>
<text text-anchor="middle" x="86.38" y="-106.63" font-family="Times New Roman,serif" font-size="9.00">left</text>
</g>
<!-- pos y&#45;&gt;left -->
<g id="edge5" class="edge">
<title>pos y&#45;&gt;left</title>
<path fill="none" stroke="green" stroke-width="0.17" d="M148,-179.97C138.08,-168.68 120.08,-148.19 106.09,-132.27"/>
<polygon fill="green" stroke="green" stroke-width="0.17" points="109,-130.27 99.77,-125.07 103.74,-134.89 109,-130.27"/>
</g>
<!-- is food down -->
<g id="node3" class="node">
<title>is food down</title>
<polygon fill="lightgray" stroke="black" points="118.38,-198.38 54.38,-198.38 54.38,-180.38 118.38,-180.38 118.38,-198.38"/>
<text text-anchor="middle" x="86.38" y="-187.18" font-family="Times New Roman,serif" font-size="9.00">is food down</text>
</g>
<!-- is food down&#45;&gt;left -->
<g id="edge1" class="edge">
<title>is food down&#45;&gt;left</title>
<path fill="none" stroke="green" stroke-width="0.17" d="M86.38,-179.97C86.38,-170.42 86.38,-154.28 86.38,-139.89"/>
<polygon fill="green" stroke="green" stroke-width="0.17" points="89.88,-140.1 86.38,-130.1 82.88,-140.1 89.88,-140.1"/>
</g>
<!-- near wall -->
<g id="node4" class="node">
<title>near wall</title>
<polygon fill="lightgray" stroke="black" points="539.88,-117.83 490.88,-117.83 490.88,-99.83 539.88,-99.83 539.88,-117.83"/>
<text text-anchor="middle" x="515.38" y="-106.63" font-family="Times New Roman,serif" font-size="9.00">near wall</text>
</g>
<!-- near wall&#45;&gt;right -->
<g id="edge9" class="edge">
<title>near wall&#45;&gt;right</title>
<path fill="none" stroke="green" stroke-width="0.46" d="M506.53,-99.52C493.66,-87.45 469.31,-64.61 450.82,-47.26"/>
<polygon fill="green" stroke="green" stroke-width="0.46" points="453.25,-44.74 443.56,-40.45 448.46,-49.84 453.25,-44.74"/>
</g>
<!-- is food right -->
<g id="node5" class="node">
<title>is food right</title>
<polygon fill="lightgray" stroke="black" points="452.38,-198.38 392.38,-198.38 392.38,-180.38 452.38,-180.38 452.38,-198.38"/>
<text text-anchor="middle" x="422.38" y="-187.18" font-family="Times New Roman,serif" font-size="9.00">is food right</text>
</g>
<!-- up -->
<g id="node9" class="node">
<title>up</title>
<ellipse fill="lightblue" stroke="black" cx="356.38" cy="-108.83" rx="18.27" ry="18.27"/>
<text text-anchor="middle" x="356.38" y="-106.63" font-family="Times New Roman,serif" font-size="9.00">up</text>
</g>
<!-- is food right&#45;&gt;up -->
<g id="edge10" class="edge">
<title>is food right&#45;&gt;up</title>
<path fill="none" stroke="green" stroke-width="0.2" d="M415.32,-179.97C405.64,-168.45 387.9,-147.34 374.41,-131.28"/>
<polygon fill="green" stroke="green" stroke-width="0.2" points="377.11,-129.05 367.99,-123.65 371.75,-133.56 377.11,-129.05"/>
</g>
<!-- is food right&#45;&gt;right -->
<g id="edge8" class="edge">
<title>is food right&#45;&gt;right</title>
<path fill="none" stroke="green" stroke-width="0.18" d="M422.18,-180.06C421.93,-169.56 421.53,-150.94 421.38,-134.99 421.17,-111.74 420.39,-105.9 421.38,-82.67 421.74,-74.31 422.39,-65.31 423.1,-56.93"/>
<polygon fill="green" stroke="green" stroke-width="0.18" points="426.58,-57.29 423.99,-47.01 419.61,-56.66 426.58,-57.29"/>
</g>
<!-- 191 -->
<g id="node15" class="node">
<title>191</title>
<ellipse fill="white" stroke="black" cx="451.38" cy="-108.83" rx="21.43" ry="21.43"/>
<text text-anchor="middle" x="451.38" y="-106.63" font-family="Times New Roman,serif" font-size="9.00">191</text>
</g>
<!-- is food right&#45;&gt;191 -->
<g id="edge14" class="edge">
<title>is food right&#45;&gt;191</title>
<path fill="none" stroke="red" stroke-width="0.15" d="M425.49,-179.97C429.11,-170.17 435.29,-153.43 440.7,-138.76"/>
<polygon fill="red" stroke="red" stroke-width="0.15" points="443.86,-140.32 444.04,-129.73 437.29,-137.9 443.86,-140.32"/>
</g>
<!-- pos x -->
<g id="node6" class="node">
<title>pos x</title>
<polygon fill="lightgray" stroke="black" points="374.38,-198.38 338.38,-198.38 338.38,-180.38 374.38,-180.38 374.38,-198.38"/>
<text text-anchor="middle" x="356.38" y="-187.18" font-family="Times New Roman,serif" font-size="9.00">pos x</text>
</g>
<!-- pos x&#45;&gt;stop -->
<g id="edge11" class="edge">
<title>pos x&#45;&gt;stop</title>
<path fill="none" stroke="red" stroke-width="0.57" d="M348.36,-179.97C338,-169.12 319.52,-149.78 304.6,-134.15"/>
<polygon fill="red" stroke="red" stroke-width="0.57" points="307.22,-131.82 297.78,-127 302.15,-136.65 307.22,-131.82"/>
</g>
<!-- pos x&#45;&gt;up -->
<g id="edge12" class="edge">
<title>pos x&#45;&gt;up</title>
<path fill="none" stroke="red" stroke-width="0.86" d="M356.38,-179.97C356.38,-170.11 356.38,-153.21 356.38,-138.48"/>
<polygon fill="red" stroke="red" stroke-width="0.86" points="359.88,-138.6 356.38,-128.6 352.88,-138.6 359.88,-138.6"/>
</g>
<!-- is food left -->
<g id="node7" class="node">
<title>is food left</title>
<polygon fill="lightgray" stroke="black" points="320.38,-198.38 264.38,-198.38 264.38,-180.38 320.38,-180.38 320.38,-198.38"/>
<text text-anchor="middle" x="292.38" y="-187.18" font-family="Times New Roman,serif" font-size="9.00">is food left</text>
</g>
<!-- is food left&#45;&gt;stop -->
<g id="edge4" class="edge">
<title>is food left&#45;&gt;stop</title>
<path fill="none" stroke="green" stroke-width="0.95" d="M291.21,-179.97C289.97,-171.13 287.94,-156.65 286.05,-143.13"/>
<polygon fill="green" stroke="green" stroke-width="0.95" points="289.56,-142.99 284.71,-133.57 282.63,-143.96 289.56,-142.99"/>
</g>
<!-- 105 -->
<g id="node13" class="node">
<title>105</title>
<ellipse fill="white" stroke="black" cx="155.38" cy="-23.33" rx="21.43" ry="21.43"/>
<text text-anchor="middle" x="155.38" y="-21.13" font-family="Times New Roman,serif" font-size="9.00">105</text>
</g>
<!-- down&#45;&gt;105 -->
<g id="edge16" class="edge">
<title>down&#45;&gt;105</title>
<path fill="none" stroke="red" stroke-width="0.33" d="M155.38,-82.33C155.38,-73.87 155.38,-64.36 155.38,-55.53"/>
<polygon fill="red" stroke="red" stroke-width="0.33" points="158.88,-55.71 155.38,-45.71 151.88,-55.71 158.88,-55.71"/>
</g>
<!-- 74 -->
<g id="node14" class="node">
<title>74</title>
<ellipse fill="white" stroke="black" cx="18.38" cy="-189.38" rx="18.27" ry="18.27"/>
<text text-anchor="middle" x="18.38" y="-187.18" font-family="Times New Roman,serif" font-size="9.00">74</text>
</g>
<!-- 74&#45;&gt;left -->
<g id="edge13" class="edge">
<title>74&#45;&gt;left</title>
<path fill="none" stroke="green" stroke-width="0.16" d="M29.92,-175.06C39.93,-163.49 54.64,-146.5 66.54,-132.76"/>
<polygon fill="green" stroke="green" stroke-width="0.16" points="69.1,-135.15 73,-125.29 63.81,-130.56 69.1,-135.15"/>
</g>
<!-- 191&#45;&gt;right -->
<g id="edge15" class="edge">
<title>191&#45;&gt;right</title>
<path fill="none" stroke="red" stroke-width="0.15" d="M445.46,-88.04C442.56,-78.37 439.01,-66.5 435.76,-55.63"/>
<polygon fill="red" stroke="red" stroke-width="0.15" points="439.17,-54.83 432.95,-46.25 432.46,-56.84 439.17,-54.83"/>
</g>
</g>
</svg>
