<?xml version="1.0" encoding="UTF-8" standalone="no"?>
<!DOCTYPE svg PUBLIC "-//W3C//DTD SVG 1.1//EN"
 "http://www.w3.org/Graphics/SVG/1.1/DTD/svg11.dtd">
<!-- Generated by graphviz version 7.1.0 (20230121.1956)
 -->
<!-- Pages: 1 -->
<svg width="853pt" height="133pt"
 viewBox="0.00 0.00 852.88 133.10" xmlns="http://www.w3.org/2000/svg" xmlns:xlink="http://www.w3.org/1999/xlink">
<g id="graph0" class="graph" transform="scale(1 1) rotate(0) translate(4 129.1)">
<polygon fill="white" stroke="none" points="-4,4 -4,-129.1 848.88,-129.1 848.88,4 -4,4"/>
<!-- is food up -->
<g id="node1" class="node">
<title>is food up</title>
<polygon fill="lightgray" stroke="black" points="53,-115.71 0,-115.71 0,-97.71 53,-97.71 53,-115.71"/>
<text text-anchor="middle" x="26.5" y="-104.51" font-family="Times New Roman,serif" font-size="9.00">is food up</text>
</g>
<!-- life pos y -->
<g id="node2" class="node">
<title>life pos y</title>
<polygon fill="lightgray" stroke="black" points="122,-115.71 71,-115.71 71,-97.71 122,-97.71 122,-115.71"/>
<text text-anchor="middle" x="96.5" y="-104.51" font-family="Times New Roman,serif" font-size="9.00">life pos y</text>
</g>
<!-- left -->
<g id="node14" class="node">
<title>left</title>
<ellipse fill="lightblue" stroke="black" cx="103.5" cy="-26.16" rx="20.51" ry="20.51"/>
<text text-anchor="middle" x="103.5" y="-23.96" font-family="Times New Roman,serif" font-size="9.00">left</text>
</g>
<!-- life pos y&#45;&gt;left -->
<g id="edge1" class="edge">
<title>life pos y&#45;&gt;left</title>
<path fill="none" stroke="green" stroke-width="0.14" d="M97.25,-97.3C98.11,-87.69 99.56,-71.4 100.85,-56.94"/>
<polygon fill="green" stroke="green" stroke-width="0.14" points="104.33,-57.33 101.73,-47.06 97.35,-56.71 104.33,-57.33"/>
</g>
<!-- near bottom -->
<g id="node3" class="node">
<title>near bottom</title>
<polygon fill="lightgray" stroke="black" points="336.5,-115.71 276.5,-115.71 276.5,-97.71 336.5,-97.71 336.5,-115.71"/>
<text text-anchor="middle" x="306.5" y="-104.51" font-family="Times New Roman,serif" font-size="9.00">near bottom</text>
</g>
<!-- is food down -->
<g id="node4" class="node">
<title>is food down</title>
<polygon fill="lightgray" stroke="black" points="204.5,-115.71 140.5,-115.71 140.5,-97.71 204.5,-97.71 204.5,-115.71"/>
<text text-anchor="middle" x="172.5" y="-104.51" font-family="Times New Roman,serif" font-size="9.00">is food down</text>
</g>
<!-- stop -->
<g id="node11" class="node">
<title>stop</title>
<ellipse fill="lightblue" stroke="black" cx="172.5" cy="-26.16" rx="23.17" ry="23.17"/>
<text text-anchor="middle" x="172.5" y="-23.96" font-family="Times New Roman,serif" font-size="9.00">stop</text>
</g>
<!-- is food down&#45;&gt;stop -->
<g id="edge6" class="edge">
<title>is food down&#45;&gt;stop</title>
<path fill="none" stroke="green" stroke-width="0.1" d="M172.5,-97.3C172.5,-88.35 172.5,-73.61 172.5,-59.94"/>
<polygon fill="green" stroke="green" stroke-width="0.1" points="176,-59.97 172.5,-49.97 169,-59.97 176,-59.97"/>
</g>
<!-- is food down&#45;&gt;left -->
<g id="edge5" class="edge">
<title>is food down&#45;&gt;left</title>
<path fill="none" stroke="red" stroke-width="0.47" d="M165.12,-97.3C155.29,-86.12 137.53,-65.9 123.59,-50.03"/>
<polygon fill="red" stroke="red" stroke-width="0.47" points="126.42,-47.95 117.19,-42.74 121.16,-52.57 126.42,-47.95"/>
</g>
<!-- near top -->
<g id="node5" class="node">
<title>near top</title>
<polygon fill="lightgray" stroke="black" points="402,-115.71 355,-115.71 355,-97.71 402,-97.71 402,-115.71"/>
<text text-anchor="middle" x="378.5" y="-104.51" font-family="Times New Roman,serif" font-size="9.00">near top</text>
</g>
<!-- right -->
<g id="node15" class="node">
<title>right</title>
<ellipse fill="lightblue" stroke="black" cx="378.5" cy="-26.16" rx="23.17" ry="23.17"/>
<text text-anchor="middle" x="378.5" y="-23.96" font-family="Times New Roman,serif" font-size="9.00">right</text>
</g>
<!-- near top&#45;&gt;right -->
<g id="edge2" class="edge">
<title>near top&#45;&gt;right</title>
<path fill="none" stroke="green" stroke-width="0.96" d="M378.5,-97.3C378.5,-88.61 378.5,-74.47 378.5,-61.15"/>
<polygon fill="green" stroke="green" stroke-width="0.96" points="382,-61.26 378.5,-51.26 375,-61.26 382,-61.26"/>
</g>
<!-- is food right -->
<g id="node6" class="node">
<title>is food right</title>
<polygon fill="lightgray" stroke="black" points="480.5,-115.71 420.5,-115.71 420.5,-97.71 480.5,-97.71 480.5,-115.71"/>
<text text-anchor="middle" x="450.5" y="-104.51" font-family="Times New Roman,serif" font-size="9.00">is food right</text>
</g>
<!-- near edge right -->
<g id="node7" class="node">
<title>near edge right</title>
<polygon fill="lightgray" stroke="black" points="566.5,-115.71 498.5,-115.71 498.5,-97.71 566.5,-97.71 566.5,-115.71"/>
<text text-anchor="middle" x="532.5" y="-104.51" font-family="Times New Roman,serif" font-size="9.00">near edge right</text>
</g>
<!-- life pos x -->
<g id="node8" class="node">
<title>life pos x</title>
<polygon fill="lightgray" stroke="black" points="634.5,-115.71 584.5,-115.71 584.5,-97.71 634.5,-97.71 634.5,-115.71"/>
<text text-anchor="middle" x="609.5" y="-104.51" font-family="Times New Roman,serif" font-size="9.00">life pos x</text>
</g>
<!-- near edge left -->
<g id="node9" class="node">
<title>near edge left</title>
<polygon fill="lightgray" stroke="black" points="716.5,-115.71 652.5,-115.71 652.5,-97.71 716.5,-97.71 716.5,-115.71"/>
<text text-anchor="middle" x="684.5" y="-104.51" font-family="Times New Roman,serif" font-size="9.00">near edge left</text>
</g>
<!-- is food left -->
<g id="node10" class="node">
<title>is food left</title>
<polygon fill="lightgray" stroke="black" points="790.5,-115.71 734.5,-115.71 734.5,-97.71 790.5,-97.71 790.5,-115.71"/>
<text text-anchor="middle" x="762.5" y="-104.51" font-family="Times New Roman,serif" font-size="9.00">is food left</text>
</g>
<!-- up -->
<g id="node12" class="node">
<title>up</title>
<ellipse fill="lightblue" stroke="black" cx="826.5" cy="-106.71" rx="18.27" ry="18.27"/>
<text text-anchor="middle" x="826.5" y="-104.51" font-family="Times New Roman,serif" font-size="9.00">up</text>
</g>
<!-- down -->
<g id="node13" class="node">
<title>down</title>
<ellipse fill="lightblue" stroke="black" cx="240.5" cy="-26.16" rx="26.33" ry="26.33"/>
<text text-anchor="middle" x="240.5" y="-23.96" font-family="Times New Roman,serif" font-size="9.00">down</text>
</g>
<!-- 21 -->
<g id="node16" class="node">
<title>21</title>
<ellipse fill="white" stroke="black" cx="240.5" cy="-106.71" rx="18.27" ry="18.27"/>
<text text-anchor="middle" x="240.5" y="-104.51" font-family="Times New Roman,serif" font-size="9.00">21</text>
</g>
<!-- 21&#45;&gt;stop -->
<g id="edge4" class="edge">
<title>21&#45;&gt;stop</title>
<path fill="none" stroke="red" stroke-width="0.15" d="M228.96,-92.39C219.4,-81.34 205.54,-65.33 193.94,-51.93"/>
<polygon fill="red" stroke="red" stroke-width="0.15" points="196.77,-49.85 187.58,-44.58 191.48,-54.43 196.77,-49.85"/>
</g>
<!-- 21&#45;&gt;down -->
<g id="edge3" class="edge">
<title>21&#45;&gt;down</title>
<path fill="none" stroke="red" stroke-width="0.11" d="M240.5,-88.28C240.5,-80.81 240.5,-71.79 240.5,-63"/>
<polygon fill="red" stroke="red" stroke-width="0.11" points="244,-63.06 240.5,-53.06 237,-63.06 244,-63.06"/>
</g>
</g>
</svg>
