<?xml version="1.0" encoding="UTF-8" standalone="no"?>
<!DOCTYPE svg PUBLIC "-//W3C//DTD SVG 1.1//EN"
 "http://www.w3.org/Graphics/SVG/1.1/DTD/svg11.dtd">
<!-- Generated by graphviz version 7.1.0 (20230121.1956)
 -->
<!-- Pages: 1 -->
<svg width="746pt" height="114pt"
 viewBox="0.00 0.00 745.50 114.33" xmlns="http://www.w3.org/2000/svg" xmlns:xlink="http://www.w3.org/1999/xlink">
<g id="graph0" class="graph" transform="scale(1 1) rotate(0) translate(4 110.33)">
<polygon fill="white" stroke="none" points="-4,4 -4,-110.33 741.5,-110.33 741.5,4 -4,4"/>
<!-- is food up -->
<g id="node1" class="node">
<title>is food up</title>
<polygon fill="lightgray" stroke="black" points="53,-106.33 0,-106.33 0,-88.33 53,-88.33 53,-106.33"/>
<text text-anchor="middle" x="26.5" y="-95.13" font-family="Times New Roman,serif" font-size="9.00">is food up</text>
</g>
<!-- up -->
<g id="node12" class="node">
<title>up</title>
<ellipse fill="lightblue" stroke="black" cx="271.5" cy="-26.16" rx="18.27" ry="18.27"/>
<text text-anchor="middle" x="271.5" y="-23.96" font-family="Times New Roman,serif" font-size="9.00">up</text>
</g>
<!-- is food up&#45;&gt;up -->
<g id="edge12" class="edge">
<title>is food up&#45;&gt;up</title>
<path fill="none" stroke="red" stroke-width="0.29" d="M53.19,-88.79C100,-75.58 196.44,-48.35 243.89,-34.96"/>
<polygon fill="red" stroke="red" stroke-width="0.29" points="244.68,-38.37 253.35,-32.29 242.77,-31.64 244.68,-38.37"/>
</g>
<!-- life pos y -->
<g id="node2" class="node">
<title>life pos y</title>
<polygon fill="lightgray" stroke="black" points="291,-106.33 240,-106.33 240,-88.33 291,-88.33 291,-106.33"/>
<text text-anchor="middle" x="265.5" y="-95.13" font-family="Times New Roman,serif" font-size="9.00">life pos y</text>
</g>
<!-- stop -->
<g id="node11" class="node">
<title>stop</title>
<ellipse fill="lightblue" stroke="black" cx="337.5" cy="-26.16" rx="23.17" ry="23.17"/>
<text text-anchor="middle" x="337.5" y="-23.96" font-family="Times New Roman,serif" font-size="9.00">stop</text>
</g>
<!-- life pos y&#45;&gt;stop -->
<g id="edge11" class="edge">
<title>life pos y&#45;&gt;stop</title>
<path fill="none" stroke="red" stroke-width="0.32" d="M274.33,-87.85C284.15,-78.41 300.42,-62.78 313.99,-49.74"/>
<polygon fill="red" stroke="red" stroke-width="0.32" points="316.05,-52.62 320.84,-43.17 311.21,-47.57 316.05,-52.62"/>
</g>
<!-- life pos y&#45;&gt;up -->
<g id="edge9" class="edge">
<title>life pos y&#45;&gt;up</title>
<path fill="none" stroke="green" stroke-width="0.16" d="M266.24,-87.85C266.95,-79.59 268.08,-66.58 269.11,-54.73"/>
<polygon fill="green" stroke="green" stroke-width="0.16" points="272.58,-55.25 269.95,-44.98 265.6,-54.64 272.58,-55.25"/>
</g>
<!-- left -->
<g id="node14" class="node">
<title>left</title>
<ellipse fill="lightblue" stroke="black" cx="504.5" cy="-26.16" rx="20.51" ry="20.51"/>
<text text-anchor="middle" x="504.5" y="-23.96" font-family="Times New Roman,serif" font-size="9.00">left</text>
</g>
<!-- life pos y&#45;&gt;left -->
<g id="edge4" class="edge">
<title>life pos y&#45;&gt;left</title>
<path fill="none" stroke="red" stroke-width="0.39" d="M291.08,-88.92C335.75,-76 427.72,-49.38 475,-35.7"/>
<polygon fill="red" stroke="red" stroke-width="0.39" points="475.73,-39.13 484.36,-32.99 473.78,-32.41 475.73,-39.13"/>
</g>
<!-- near bottom -->
<g id="node3" class="node">
<title>near bottom</title>
<polygon fill="lightgray" stroke="black" points="669.5,-106.33 609.5,-106.33 609.5,-88.33 669.5,-88.33 669.5,-106.33"/>
<text text-anchor="middle" x="639.5" y="-95.13" font-family="Times New Roman,serif" font-size="9.00">near bottom</text>
</g>
<!-- near bottom&#45;&gt;stop -->
<g id="edge8" class="edge">
<title>near bottom&#45;&gt;stop</title>
<path fill="none" stroke="green" stroke-width="0.16" d="M609.16,-89.38C552.01,-76.29 428.88,-48.09 370.07,-34.62"/>
<polygon fill="green" stroke="green" stroke-width="0.16" points="370.96,-31.24 360.43,-32.41 369.4,-38.06 370.96,-31.24"/>
</g>
<!-- near bottom&#45;&gt;up -->
<g id="edge1" class="edge">
<title>near bottom&#45;&gt;up</title>
<path fill="none" stroke="red" stroke-width="0.25" d="M609.31,-89.88C606.34,-89.32 603.37,-88.79 600.5,-88.33 470.14,-67.04 428.2,-101.23 305.5,-52.33 301.16,-50.6 296.88,-48.17 292.9,-45.51"/>
<polygon fill="red" stroke="red" stroke-width="0.25" points="295.16,-42.83 285.05,-39.69 290.99,-48.46 295.16,-42.83"/>
</g>
<!-- down -->
<g id="node13" class="node">
<title>down</title>
<ellipse fill="lightblue" stroke="black" cx="584.5" cy="-26.16" rx="26.33" ry="26.33"/>
<text text-anchor="middle" x="584.5" y="-23.96" font-family="Times New Roman,serif" font-size="9.00">down</text>
</g>
<!-- near bottom&#45;&gt;down -->
<g id="edge17" class="edge">
<title>near bottom&#45;&gt;down</title>
<path fill="none" stroke="red" stroke-width="0.43" d="M632.76,-87.85C626.34,-79.78 616.32,-67.17 607.07,-55.54"/>
<polygon fill="red" stroke="red" stroke-width="0.43" points="609.89,-53.47 600.93,-47.82 604.42,-57.83 609.89,-53.47"/>
</g>
<!-- near bottom&#45;&gt;left -->
<g id="edge18" class="edge">
<title>near bottom&#45;&gt;left</title>
<path fill="none" stroke="green" stroke-width="0.34" d="M621.42,-87.85C603.15,-79.19 574.15,-65.23 549.5,-52.33 543.46,-49.17 537.04,-45.66 530.99,-42.29"/>
<polygon fill="green" stroke="green" stroke-width="0.34" points="532.79,-39.29 522.36,-37.44 529.36,-45.39 532.79,-39.29"/>
</g>
<!-- right -->
<g id="node15" class="node">
<title>right</title>
<ellipse fill="lightblue" stroke="black" cx="675.5" cy="-26.16" rx="23.17" ry="23.17"/>
<text text-anchor="middle" x="675.5" y="-23.96" font-family="Times New Roman,serif" font-size="9.00">right</text>
</g>
<!-- near bottom&#45;&gt;right -->
<g id="edge15" class="edge">
<title>near bottom&#45;&gt;right</title>
<path fill="none" stroke="green" stroke-width="0.43" d="M643.91,-87.85C647.99,-80.01 654.29,-67.9 660.2,-56.56"/>
<polygon fill="green" stroke="green" stroke-width="0.43" points="663.19,-58.39 664.71,-47.9 656.98,-55.16 663.19,-58.39"/>
</g>
<!-- is food down -->
<g id="node4" class="node">
<title>is food down</title>
<polygon fill="lightgray" stroke="black" points="135.5,-106.33 71.5,-106.33 71.5,-88.33 135.5,-88.33 135.5,-106.33"/>
<text text-anchor="middle" x="103.5" y="-95.13" font-family="Times New Roman,serif" font-size="9.00">is food down</text>
</g>
<!-- is food down&#45;&gt;up -->
<g id="edge25" class="edge">
<title>is food down&#45;&gt;up</title>
<path fill="none" stroke="green" stroke-width="0.38" d="M124.1,-87.85C154.59,-75.29 211.73,-51.77 245.2,-37.99"/>
<polygon fill="green" stroke="green" stroke-width="0.38" points="246.34,-41.31 254.25,-34.26 243.67,-34.83 246.34,-41.31"/>
</g>
<!-- near top -->
<g id="node5" class="node">
<title>near top</title>
<polygon fill="lightgray" stroke="black" points="513,-106.33 466,-106.33 466,-88.33 513,-88.33 513,-106.33"/>
<text text-anchor="middle" x="489.5" y="-95.13" font-family="Times New Roman,serif" font-size="9.00">near top</text>
</g>
<!-- near top&#45;&gt;stop -->
<g id="edge20" class="edge">
<title>near top&#45;&gt;stop</title>
<path fill="none" stroke="red" stroke-width="0.37" d="M470.86,-87.85C445.18,-76.16 398.61,-54.97 367.87,-40.98"/>
<polygon fill="red" stroke="red" stroke-width="0.37" points="369.55,-37.9 358.99,-36.94 366.65,-44.27 369.55,-37.9"/>
</g>
<!-- near top&#45;&gt;left -->
<g id="edge5" class="edge">
<title>near top&#45;&gt;left</title>
<path fill="none" stroke="green" stroke-width="0.34" d="M491.34,-87.85C493.03,-80.06 495.63,-68.05 498.08,-56.76"/>
<polygon fill="green" stroke="green" stroke-width="0.34" points="501.45,-57.76 500.15,-47.24 494.61,-56.27 501.45,-57.76"/>
</g>
<!-- is food right -->
<g id="node6" class="node">
<title>is food right</title>
<polygon fill="lightgray" stroke="black" points="591.5,-106.33 531.5,-106.33 531.5,-88.33 591.5,-88.33 591.5,-106.33"/>
<text text-anchor="middle" x="561.5" y="-95.13" font-family="Times New Roman,serif" font-size="9.00">is food right</text>
</g>
<!-- is food right&#45;&gt;up -->
<g id="edge2" class="edge">
<title>is food right&#45;&gt;up</title>
<path fill="none" stroke="green" stroke-width="0.41" d="M531.29,-90.01C528.32,-89.43 525.35,-88.86 522.5,-88.33 426.38,-70.5 395.52,-90.47 305.5,-52.33 301.32,-50.55 297.17,-48.17 293.28,-45.57"/>
<polygon fill="green" stroke="green" stroke-width="0.41" points="295.43,-42.8 285.31,-39.68 291.27,-48.44 295.43,-42.8"/>
</g>
<!-- is food right&#45;&gt;down -->
<g id="edge16" class="edge">
<title>is food right&#45;&gt;down</title>
<path fill="none" stroke="red" stroke-width="0.29" d="M564.32,-87.85C566.57,-81.08 569.88,-71.13 573.17,-61.24"/>
<polygon fill="red" stroke="red" stroke-width="0.29" points="576.44,-62.49 576.27,-51.9 569.8,-60.28 576.44,-62.49"/>
</g>
<!-- is food right&#45;&gt;left -->
<g id="edge24" class="edge">
<title>is food right&#45;&gt;left</title>
<path fill="none" stroke="green" stroke-width="0.23" d="M554.51,-87.85C546.83,-78.53 534.17,-63.16 523.5,-50.22"/>
<polygon fill="green" stroke="green" stroke-width="0.23" points="526.47,-48.31 517.4,-42.82 521.06,-52.76 526.47,-48.31"/>
</g>
<!-- near edge right -->
<g id="node7" class="node">
<title>near edge right</title>
<polygon fill="lightgray" stroke="black" points="221.5,-106.33 153.5,-106.33 153.5,-88.33 221.5,-88.33 221.5,-106.33"/>
<text text-anchor="middle" x="187.5" y="-95.13" font-family="Times New Roman,serif" font-size="9.00">near edge right</text>
</g>
<!-- near edge right&#45;&gt;stop -->
<g id="edge19" class="edge">
<title>near edge right&#45;&gt;stop</title>
<path fill="none" stroke="green" stroke-width="0.2" d="M212.8,-87.89C235.71,-79.89 270.11,-66.93 298.5,-52.33 302.37,-50.34 306.34,-48.06 310.2,-45.72"/>
<polygon fill="green" stroke="green" stroke-width="0.2" points="312.06,-48.69 318.64,-40.38 308.32,-42.77 312.06,-48.69"/>
</g>
<!-- near edge right&#45;&gt;up -->
<g id="edge21" class="edge">
<title>near edge right&#45;&gt;up</title>
<path fill="none" stroke="red" stroke-width="0.38" d="M197.8,-87.85C210.63,-77.28 232.91,-58.94 249.62,-45.18"/>
<polygon fill="red" stroke="red" stroke-width="0.38" points="251.84,-47.89 257.33,-38.83 247.39,-42.48 251.84,-47.89"/>
</g>
<!-- life pos x -->
<g id="node8" class="node">
<title>life pos x</title>
<polygon fill="lightgray" stroke="black" points="737.5,-106.33 687.5,-106.33 687.5,-88.33 737.5,-88.33 737.5,-106.33"/>
<text text-anchor="middle" x="712.5" y="-95.13" font-family="Times New Roman,serif" font-size="9.00">life pos x</text>
</g>
<!-- life pos x&#45;&gt;down -->
<g id="edge6" class="edge">
<title>life pos x&#45;&gt;down</title>
<path fill="none" stroke="green" stroke-width="0.33" d="M696.8,-87.85C676.83,-77.05 641.84,-58.14 616.21,-44.3"/>
<polygon fill="green" stroke="green" stroke-width="0.33" points="618.14,-41.36 607.68,-39.69 614.81,-47.52 618.14,-41.36"/>
</g>
<!-- life pos x&#45;&gt;left -->
<g id="edge3" class="edge">
<title>life pos x&#45;&gt;left</title>
<path fill="none" stroke="green" stroke-width="0.18" d="M687.32,-90.33C648.15,-80.88 574.54,-62.53 549.5,-52.33 543.04,-49.69 536.34,-46.33 530.15,-42.93"/>
<polygon fill="green" stroke="green" stroke-width="0.18" points="532.18,-40.06 521.76,-38.13 528.7,-46.13 532.18,-40.06"/>
</g>
<!-- life pos x&#45;&gt;right -->
<g id="edge10" class="edge">
<title>life pos x&#45;&gt;right</title>
<path fill="none" stroke="red" stroke-width="0.11" d="M707.96,-87.85C703.7,-79.88 697.07,-67.48 690.91,-55.97"/>
<polygon fill="red" stroke="red" stroke-width="0.11" points="694.01,-54.34 686.21,-47.18 687.84,-57.64 694.01,-54.34"/>
</g>
<!-- near edge left -->
<g id="node9" class="node">
<title>near edge left</title>
<polygon fill="lightgray" stroke="black" points="447.5,-106.33 383.5,-106.33 383.5,-88.33 447.5,-88.33 447.5,-106.33"/>
<text text-anchor="middle" x="415.5" y="-95.13" font-family="Times New Roman,serif" font-size="9.00">near edge left</text>
</g>
<!-- near edge left&#45;&gt;up -->
<g id="edge13" class="edge">
<title>near edge left&#45;&gt;up</title>
<path fill="none" stroke="red" stroke-width="0.14" d="M388.85,-87.83C366.02,-80.05 332.62,-67.46 305.5,-52.33 301.42,-50.05 297.27,-47.35 293.34,-44.58"/>
<polygon fill="red" stroke="red" stroke-width="0.14" points="295.47,-41.81 285.35,-38.67 291.3,-47.43 295.47,-41.81"/>
</g>
<!-- near edge left&#45;&gt;down -->
<g id="edge22" class="edge">
<title>near edge left&#45;&gt;down</title>
<path fill="none" stroke="green" stroke-width="0.47" d="M440.9,-87.86C465.21,-79.54 502.79,-66.12 534.5,-52.33 540.21,-49.84 546.19,-47.03 551.95,-44.2"/>
<polygon fill="green" stroke="green" stroke-width="0.47" points="553.35,-47.42 560.72,-39.81 550.21,-41.16 553.35,-47.42"/>
</g>
<!-- is food left -->
<g id="node10" class="node">
<title>is food left</title>
<polygon fill="lightgray" stroke="black" points="365.5,-106.33 309.5,-106.33 309.5,-88.33 365.5,-88.33 365.5,-106.33"/>
<text text-anchor="middle" x="337.5" y="-95.13" font-family="Times New Roman,serif" font-size="9.00">is food left</text>
</g>
<!-- is food left&#45;&gt;stop -->
<g id="edge14" class="edge">
<title>is food left&#45;&gt;stop</title>
<path fill="none" stroke="red" stroke-width="0.29" d="M337.5,-87.85C337.5,-80.76 337.5,-70.17 337.5,-59.82"/>
<polygon fill="red" stroke="red" stroke-width="0.29" points="341,-60.12 337.5,-50.12 334,-60.12 341,-60.12"/>
</g>
<!-- is food left&#45;&gt;up -->
<g id="edge7" class="edge">
<title>is food left&#45;&gt;up</title>
<path fill="none" stroke="green" stroke-width="0.17" d="M329.41,-87.85C319.82,-77.8 303.54,-60.74 290.67,-47.26"/>
<polygon fill="green" stroke="green" stroke-width="0.17" points="293.56,-45.21 284.12,-40.39 288.49,-50.04 293.56,-45.21"/>
</g>
<!-- is food left&#45;&gt;left -->
<g id="edge23" class="edge">
<title>is food left&#45;&gt;left</title>
<path fill="none" stroke="red" stroke-width="0.31" d="M357.98,-87.85C387.7,-75.53 442.91,-52.67 476.42,-38.79"/>
<polygon fill="red" stroke="red" stroke-width="0.31" points="477.32,-42.21 485.22,-35.15 474.65,-35.74 477.32,-42.21"/>
</g>
</g>
</svg>
