<?xml version="1.0" encoding="UTF-8" standalone="no"?>
<!DOCTYPE svg PUBLIC "-//W3C//DTD SVG 1.1//EN"
 "http://www.w3.org/Graphics/SVG/1.1/DTD/svg11.dtd">
<!-- Generated by graphviz version 7.1.0 (20230121.1956)
 -->
<!-- Pages: 1 -->
<svg width="305pt" height="114pt"
 viewBox="0.00 0.00 304.72 114.33" xmlns="http://www.w3.org/2000/svg" xmlns:xlink="http://www.w3.org/1999/xlink">
<g id="graph0" class="graph" transform="scale(1 1) rotate(0) translate(4 110.33)">
<polygon fill="white" stroke="none" points="-4,4 -4,-110.33 300.72,-110.33 300.72,4 -4,4"/>
<!-- pos y -->
<g id="node1" class="node">
<title>pos y</title>
<polygon fill="lightgray" stroke="black" points="190.38,-106.33 152.38,-106.33 152.38,-88.33 190.38,-88.33 190.38,-106.33"/>
<text text-anchor="middle" x="171.38" y="-95.13" font-family="Times New Roman,serif" font-size="9.00">pos y</text>
</g>
<!-- stop -->
<g id="node5" class="node">
<title>stop</title>
<ellipse fill="lightblue" stroke="black" cx="273.38" cy="-26.16" rx="23.17" ry="23.17"/>
<text text-anchor="middle" x="273.38" y="-23.96" font-family="Times New Roman,serif" font-size="9.00">stop</text>
</g>
<!-- pos y&#45;&gt;stop -->
<g id="edge1" class="edge">
<title>pos y&#45;&gt;stop</title>
<path fill="none" stroke="red" stroke-width="0.13" d="M185.35,-87.89C199.45,-79.27 221.75,-65.34 240.38,-52.33 242.71,-50.7 245.1,-48.98 247.48,-47.23"/>
<polygon fill="red" stroke="red" stroke-width="0.13" points="249.36,-50.2 255.27,-41.4 245.17,-44.6 249.36,-50.2"/>
</g>
<!-- up -->
<g id="node6" class="node">
<title>up</title>
<ellipse fill="lightblue" stroke="black" cx="18.38" cy="-26.16" rx="18.27" ry="18.27"/>
<text text-anchor="middle" x="18.38" y="-23.96" font-family="Times New Roman,serif" font-size="9.00">up</text>
</g>
<!-- pos y&#45;&gt;up -->
<g id="edge2" class="edge">
<title>pos y&#45;&gt;up</title>
<path fill="none" stroke="green" stroke-width="0.22" d="M152.1,-90.55C121.82,-81.33 64.69,-63.18 46.38,-52.33 43.66,-50.71 40.97,-48.81 38.39,-46.78"/>
<polygon fill="green" stroke="green" stroke-width="0.22" points="40.75,-44.2 30.9,-40.31 36.18,-49.5 40.75,-44.2"/>
</g>
<!-- down -->
<g id="node7" class="node">
<title>down</title>
<ellipse fill="lightblue" stroke="black" cx="81.38" cy="-26.16" rx="26.33" ry="26.33"/>
<text text-anchor="middle" x="81.38" y="-23.96" font-family="Times New Roman,serif" font-size="9.00">down</text>
</g>
<!-- pos y&#45;&gt;down -->
<g id="edge3" class="edge">
<title>pos y&#45;&gt;down</title>
<path fill="none" stroke="green" stroke-width="0.12" d="M160.35,-87.85C147.92,-78.3 127.24,-62.4 110.16,-49.28"/>
<polygon fill="green" stroke="green" stroke-width="0.12" points="112.32,-46.52 102.26,-43.21 108.06,-52.07 112.32,-46.52"/>
</g>
<!-- left -->
<g id="node8" class="node">
<title>left</title>
<ellipse fill="lightblue" stroke="black" cx="146.38" cy="-26.16" rx="20.51" ry="20.51"/>
<text text-anchor="middle" x="146.38" y="-23.96" font-family="Times New Roman,serif" font-size="9.00">left</text>
</g>
<!-- pos y&#45;&gt;left -->
<g id="edge4" class="edge">
<title>pos y&#45;&gt;left</title>
<path fill="none" stroke="red" stroke-width="0.19" d="M168.32,-87.85C165.39,-79.73 160.79,-67.03 156.57,-55.34"/>
<polygon fill="red" stroke="red" stroke-width="0.19" points="159.94,-54.37 153.25,-46.15 153.36,-56.75 159.94,-54.37"/>
</g>
<!-- right -->
<g id="node9" class="node">
<title>right</title>
<ellipse fill="lightblue" stroke="black" cx="208.38" cy="-26.16" rx="23.17" ry="23.17"/>
<text text-anchor="middle" x="208.38" y="-23.96" font-family="Times New Roman,serif" font-size="9.00">right</text>
</g>
<!-- pos y&#45;&gt;right -->
<g id="edge5" class="edge">
<title>pos y&#45;&gt;right</title>
<path fill="none" stroke="green" stroke-width="0.39" d="M175.92,-87.85C180.14,-79.95 186.68,-67.73 192.79,-56.31"/>
<polygon fill="green" stroke="green" stroke-width="0.39" points="195.85,-58.02 197.48,-47.55 189.67,-54.72 195.85,-58.02"/>
</g>
<!-- food distanse -->
<g id="node2" class="node">
<title>food distanse</title>
<polygon fill="lightgray" stroke="black" points="273.88,-106.33 208.88,-106.33 208.88,-88.33 273.88,-88.33 273.88,-106.33"/>
<text text-anchor="middle" x="241.38" y="-95.13" font-family="Times New Roman,serif" font-size="9.00">food distanse</text>
</g>
<!-- food distanse&#45;&gt;stop -->
<g id="edge6" class="edge">
<title>food distanse&#45;&gt;stop</title>
<path fill="none" stroke="green" stroke-width="0.12" d="M245.31,-87.85C248.91,-80.07 254.45,-68.08 259.67,-56.8"/>
<polygon fill="green" stroke="green" stroke-width="0.12" points="262.82,-58.32 263.85,-47.78 256.47,-55.38 262.82,-58.32"/>
</g>
<!-- food distanse&#45;&gt;up -->
<g id="edge7" class="edge">
<title>food distanse&#45;&gt;up</title>
<path fill="none" stroke="red" stroke-width="0.57" d="M208.42,-89.83C156.65,-79.5 60.68,-59.72 46.38,-52.33 43.75,-50.97 41.18,-49.3 38.72,-47.48"/>
<polygon fill="red" stroke="red" stroke-width="0.57" points="40.99,-44.81 31.09,-41.02 36.46,-50.15 40.99,-44.81"/>
</g>
<!-- food distanse&#45;&gt;down -->
<g id="edge8" class="edge">
<title>food distanse&#45;&gt;down</title>
<path fill="none" stroke="red" stroke-width="0.19" d="M209.53,-87.85C183.63,-80.32 146.57,-68.08 116.38,-52.33 114.39,-51.29 112.38,-50.14 110.39,-48.93"/>
<polygon fill="red" stroke="red" stroke-width="0.19" points="112.38,-46.06 102.1,-43.51 108.55,-51.91 112.38,-46.06"/>
</g>
<!-- food distanse&#45;&gt;left -->
<g id="edge9" class="edge">
<title>food distanse&#45;&gt;left</title>
<path fill="none" stroke="green" stroke-width="0.28" d="M228.16,-87.95C214.83,-79.36 193.79,-65.46 176.38,-52.33 174.1,-50.6 171.75,-48.76 169.42,-46.89"/>
<polygon fill="green" stroke="green" stroke-width="0.28" points="171.97,-44.46 162.03,-40.8 167.52,-49.86 171.97,-44.46"/>
</g>
<!-- food distanse&#45;&gt;right -->
<g id="edge10" class="edge">
<title>food distanse&#45;&gt;right</title>
<path fill="none" stroke="green" stroke-width="0.38" d="M237.34,-87.85C233.66,-80.15 228.02,-68.32 222.69,-57.14"/>
<polygon fill="green" stroke="green" stroke-width="0.38" points="225.86,-55.65 218.39,-48.13 219.54,-58.67 225.86,-55.65"/>
</g>
<!-- near wall -->
<g id="node3" class="node">
<title>near wall</title>
<polygon fill="lightgray" stroke="black" points="79.88,-106.33 30.88,-106.33 30.88,-88.33 79.88,-88.33 79.88,-106.33"/>
<text text-anchor="middle" x="55.38" y="-95.13" font-family="Times New Roman,serif" font-size="9.00">near wall</text>
</g>
<!-- near wall&#45;&gt;stop -->
<g id="edge11" class="edge">
<title>near wall&#45;&gt;stop</title>
<path fill="none" stroke="green" stroke-width="0.44" d="M80.04,-90.53C129.99,-78.78 238.55,-53.2 240.38,-52.33 242.92,-51.12 245.45,-49.7 247.92,-48.16"/>
<polygon fill="green" stroke="green" stroke-width="0.44" points="249.71,-51.18 255.91,-42.59 245.71,-45.44 249.71,-51.18"/>
</g>
<!-- near wall&#45;&gt;up -->
<g id="edge12" class="edge">
<title>near wall&#45;&gt;up</title>
<path fill="none" stroke="green" stroke-width="0.29" d="M50.85,-87.85C46.08,-78.93 38.36,-64.5 31.64,-51.94"/>
<polygon fill="green" stroke="green" stroke-width="0.29" points="34.78,-50.38 26.97,-43.22 28.6,-53.68 34.78,-50.38"/>
</g>
<!-- near wall&#45;&gt;down -->
<g id="edge13" class="edge">
<title>near wall&#45;&gt;down</title>
<path fill="none" stroke="red" stroke-width="0.26" d="M58.57,-87.85C61.16,-80.96 64.99,-70.76 68.78,-60.69"/>
<polygon fill="red" stroke="red" stroke-width="0.26" points="71.97,-62.14 72.22,-51.55 65.42,-59.68 71.97,-62.14"/>
</g>
<!-- near wall&#45;&gt;left -->
<g id="edge14" class="edge">
<title>near wall&#45;&gt;left</title>
<path fill="none" stroke="red" stroke-width="0.4" d="M67.27,-88.14C79.7,-79.49 99.69,-65.32 116.38,-52.33 118.5,-50.68 120.67,-48.95 122.83,-47.19"/>
<polygon fill="red" stroke="red" stroke-width="0.4" points="125.06,-49.9 130.53,-40.82 120.59,-44.5 125.06,-49.9"/>
</g>
<!-- near wall&#45;&gt;right -->
<g id="edge15" class="edge">
<title>near wall&#45;&gt;right</title>
<path fill="none" stroke="green" stroke-width="0.58" d="M80.01,-89.87C105.18,-82.71 144.93,-69.82 176.38,-52.33 178.44,-51.18 180.51,-49.91 182.54,-48.56"/>
<polygon fill="green" stroke="green" stroke-width="0.58" points="184.39,-51.54 190.44,-42.84 180.29,-45.87 184.39,-51.54"/>
</g>
<!-- pos x -->
<g id="node4" class="node">
<title>pos x</title>
<polygon fill="lightgray" stroke="black" points="134.38,-106.33 98.38,-106.33 98.38,-88.33 134.38,-88.33 134.38,-106.33"/>
<text text-anchor="middle" x="116.38" y="-95.13" font-family="Times New Roman,serif" font-size="9.00">pos x</text>
</g>
<!-- pos x&#45;&gt;stop -->
<g id="edge16" class="edge">
<title>pos x&#45;&gt;stop</title>
<path fill="none" stroke="green" stroke-width="0.2" d="M134.46,-90.68C164.1,-81.29 221.6,-62.49 240.38,-52.33 242.88,-50.98 245.39,-49.44 247.85,-47.82"/>
<polygon fill="green" stroke="green" stroke-width="0.2" points="249.56,-50.9 255.67,-42.25 245.5,-45.2 249.56,-50.9"/>
</g>
<!-- pos x&#45;&gt;up -->
<g id="edge17" class="edge">
<title>pos x&#45;&gt;up</title>
<path fill="none" stroke="green" stroke-width="0.17" d="M101.42,-87.93C86.91,-79.55 64.49,-65.99 46.38,-52.33 43.83,-50.4 41.23,-48.28 38.69,-46.13"/>
<polygon fill="green" stroke="green" stroke-width="0.17" points="41.38,-43.84 31.57,-39.85 36.75,-49.09 41.38,-43.84"/>
</g>
<!-- pos x&#45;&gt;down -->
<g id="edge18" class="edge">
<title>pos x&#45;&gt;down</title>
<path fill="none" stroke="green" stroke-width="0.22" d="M112.09,-87.85C108.45,-80.65 102.98,-69.84 97.67,-59.34"/>
<polygon fill="green" stroke="green" stroke-width="0.22" points="100.87,-57.92 93.24,-50.58 94.63,-61.08 100.87,-57.92"/>
</g>
<!-- pos x&#45;&gt;left -->
<g id="edge19" class="edge">
<title>pos x&#45;&gt;left</title>
<path fill="none" stroke="red" stroke-width="0.21" d="M120.06,-87.85C123.67,-79.53 129.36,-66.41 134.53,-54.5"/>
<polygon fill="red" stroke="red" stroke-width="0.21" points="137.62,-56.18 138.38,-45.61 131.19,-53.39 137.62,-56.18"/>
</g>
<!-- pos x&#45;&gt;right -->
<g id="edge20" class="edge">
<title>pos x&#45;&gt;right</title>
<path fill="none" stroke="red" stroke-width="0.23" d="M127.97,-88C140.12,-79.24 159.72,-64.98 176.38,-52.33 178.4,-50.79 180.49,-49.19 182.57,-47.58"/>
<polygon fill="red" stroke="red" stroke-width="0.23" points="184.52,-50.5 190.25,-41.59 180.22,-44.98 184.52,-50.5"/>
</g>
</g>
</svg>
