<?xml version="1.0" encoding="UTF-8" standalone="no"?>
<!DOCTYPE svg PUBLIC "-//W3C//DTD SVG 1.1//EN"
 "http://www.w3.org/Graphics/SVG/1.1/DTD/svg11.dtd">
<!-- Generated by graphviz version 7.1.0 (20230121.1956)
 -->
<!-- Pages: 1 -->
<svg width="745pt" height="114pt"
 viewBox="0.00 0.00 744.50 114.33" xmlns="http://www.w3.org/2000/svg" xmlns:xlink="http://www.w3.org/1999/xlink">
<g id="graph0" class="graph" transform="scale(1 1) rotate(0) translate(4 110.33)">
<polygon fill="white" stroke="none" points="-4,4 -4,-110.33 740.5,-110.33 740.5,4 -4,4"/>
<!-- is food up -->
<g id="node1" class="node">
<title>is food up</title>
<polygon fill="lightgray" stroke="black" points="291.5,-106.33 238.5,-106.33 238.5,-88.33 291.5,-88.33 291.5,-106.33"/>
<text text-anchor="middle" x="265" y="-95.13" font-family="Times New Roman,serif" font-size="9.00">is food up</text>
</g>
<!-- up -->
<g id="node12" class="node">
<title>up</title>
<ellipse fill="lightblue" stroke="black" cx="190" cy="-26.16" rx="18.27" ry="18.27"/>
<text text-anchor="middle" x="190" y="-23.96" font-family="Times New Roman,serif" font-size="9.00">up</text>
</g>
<!-- is food up&#45;&gt;up -->
<g id="edge11" class="edge">
<title>is food up&#45;&gt;up</title>
<path fill="none" stroke="red" stroke-width="0.2" d="M255.8,-87.85C244.54,-77.46 225.15,-59.58 210.32,-45.9"/>
<polygon fill="red" stroke="red" stroke-width="0.2" points="213,-43.61 203.27,-39.4 208.25,-48.75 213,-43.61"/>
</g>
<!-- left -->
<g id="node14" class="node">
<title>left</title>
<ellipse fill="lightblue" stroke="black" cx="411" cy="-26.16" rx="20.51" ry="20.51"/>
<text text-anchor="middle" x="411" y="-23.96" font-family="Times New Roman,serif" font-size="9.00">left</text>
</g>
<!-- is food up&#45;&gt;left -->
<g id="edge26" class="edge">
<title>is food up&#45;&gt;left</title>
<path fill="none" stroke="red" stroke-width="0.46" d="M282.9,-87.85C307.94,-75.98 353.66,-54.33 383.16,-40.35"/>
<polygon fill="red" stroke="red" stroke-width="0.46" points="384.32,-43.68 391.86,-36.23 381.32,-37.35 384.32,-43.68"/>
</g>
<!-- right -->
<g id="node15" class="node">
<title>right</title>
<ellipse fill="lightblue" stroke="black" cx="493" cy="-26.16" rx="23.17" ry="23.17"/>
<text text-anchor="middle" x="493" y="-23.96" font-family="Times New Roman,serif" font-size="9.00">right</text>
</g>
<!-- is food up&#45;&gt;right -->
<g id="edge24" class="edge">
<title>is food up&#45;&gt;right</title>
<path fill="none" stroke="red" stroke-width="0.64" d="M291.78,-90.34C333.89,-80.81 413.61,-62.26 441,-52.33 448.39,-49.65 456.13,-46.25 463.31,-42.82"/>
<polygon fill="red" stroke="red" stroke-width="0.64" points="464.38,-46.2 471.8,-38.63 461.28,-39.92 464.38,-46.2"/>
</g>
<!-- life pos y -->
<g id="node2" class="node">
<title>life pos y</title>
<polygon fill="lightgray" stroke="black" points="360.5,-106.33 309.5,-106.33 309.5,-88.33 360.5,-88.33 360.5,-106.33"/>
<text text-anchor="middle" x="335" y="-95.13" font-family="Times New Roman,serif" font-size="9.00">life pos y</text>
</g>
<!-- life pos y&#45;&gt;up -->
<g id="edge12" class="edge">
<title>life pos y&#45;&gt;up</title>
<path fill="none" stroke="red" stroke-width="0.49" d="M309.11,-89.61C284.53,-82.56 247.12,-70.02 218,-52.33 215.38,-50.74 212.78,-48.88 210.29,-46.92"/>
<polygon fill="red" stroke="red" stroke-width="0.49" points="212.72,-44.39 202.86,-40.51 208.14,-49.69 212.72,-44.39"/>
</g>
<!-- life pos y&#45;&gt;left -->
<g id="edge16" class="edge">
<title>life pos y&#45;&gt;left</title>
<path fill="none" stroke="red" stroke-width="0.4" d="M344.32,-87.85C355.22,-77.92 373.66,-61.15 388.38,-47.75"/>
<polygon fill="red" stroke="red" stroke-width="0.4" points="390.62,-50.44 395.66,-41.12 385.91,-45.26 390.62,-50.44"/>
</g>
<!-- life pos y&#45;&gt;right -->
<g id="edge10" class="edge">
<title>life pos y&#45;&gt;right</title>
<path fill="none" stroke="red" stroke-width="0.11" d="M356.27,-87.91C377.78,-79.31 411.92,-65.39 441,-52.33 448.33,-49.03 456.17,-45.33 463.48,-41.81"/>
<polygon fill="red" stroke="red" stroke-width="0.11" points="464.77,-45.07 472.23,-37.55 461.71,-38.78 464.77,-45.07"/>
</g>
<!-- near bottom -->
<g id="node3" class="node">
<title>near bottom</title>
<polygon fill="lightgray" stroke="black" points="603,-106.33 543,-106.33 543,-88.33 603,-88.33 603,-106.33"/>
<text text-anchor="middle" x="573" y="-95.13" font-family="Times New Roman,serif" font-size="9.00">near bottom</text>
</g>
<!-- stop -->
<g id="node11" class="node">
<title>stop</title>
<ellipse fill="lightblue" stroke="black" cx="573" cy="-26.16" rx="23.17" ry="23.17"/>
<text text-anchor="middle" x="573" y="-23.96" font-family="Times New Roman,serif" font-size="9.00">stop</text>
</g>
<!-- near bottom&#45;&gt;stop -->
<g id="edge5" class="edge">
<title>near bottom&#45;&gt;stop</title>
<path fill="none" stroke="green" stroke-width="0.25" d="M573,-87.85C573,-80.76 573,-70.17 573,-59.82"/>
<polygon fill="green" stroke="green" stroke-width="0.25" points="576.5,-60.05 573,-50.05 569.5,-60.05 576.5,-60.05"/>
</g>
<!-- near bottom&#45;&gt;left -->
<g id="edge9" class="edge">
<title>near bottom&#45;&gt;left</title>
<path fill="none" stroke="green" stroke-width="0.39" d="M549.58,-87.84C526.74,-79.4 491.14,-65.79 461,-52.33 453.39,-48.92 445.27,-44.98 437.83,-41.23"/>
<polygon fill="green" stroke="green" stroke-width="0.39" points="439.88,-38.35 429.38,-36.92 436.69,-44.58 439.88,-38.35"/>
</g>
<!-- near bottom&#45;&gt;right -->
<g id="edge8" class="edge">
<title>near bottom&#45;&gt;right</title>
<path fill="none" stroke="green" stroke-width="0.26" d="M563.19,-87.85C551.96,-78.14 533.15,-61.87 517.82,-48.62"/>
<polygon fill="green" stroke="green" stroke-width="0.26" points="520.34,-46.17 510.48,-42.28 515.76,-51.46 520.34,-46.17"/>
</g>
<!-- is food down -->
<g id="node4" class="node">
<title>is food down</title>
<polygon fill="lightgray" stroke="black" points="525,-106.33 461,-106.33 461,-88.33 525,-88.33 525,-106.33"/>
<text text-anchor="middle" x="493" y="-95.13" font-family="Times New Roman,serif" font-size="9.00">is food down</text>
</g>
<!-- is food down&#45;&gt;stop -->
<g id="edge20" class="edge">
<title>is food down&#45;&gt;stop</title>
<path fill="none" stroke="green" stroke-width="0.37" d="M502.81,-87.85C514.04,-78.14 532.85,-61.87 548.18,-48.62"/>
<polygon fill="green" stroke="green" stroke-width="0.37" points="550.11,-51.58 555.39,-42.39 545.53,-46.28 550.11,-51.58"/>
</g>
<!-- down -->
<g id="node13" class="node">
<title>down</title>
<ellipse fill="lightblue" stroke="black" cx="253" cy="-26.16" rx="26.33" ry="26.33"/>
<text text-anchor="middle" x="253" y="-23.96" font-family="Times New Roman,serif" font-size="9.00">down</text>
</g>
<!-- is food down&#45;&gt;down -->
<g id="edge7" class="edge">
<title>is food down&#45;&gt;down</title>
<path fill="none" stroke="red" stroke-width="0.25" d="M463.57,-87.85C419.26,-75.08 335.55,-50.95 288.11,-37.28"/>
<polygon fill="red" stroke="red" stroke-width="0.25" points="289.23,-33.96 278.65,-34.56 287.29,-40.69 289.23,-33.96"/>
</g>
<!-- is food down&#45;&gt;left -->
<g id="edge21" class="edge">
<title>is food down&#45;&gt;left</title>
<path fill="none" stroke="red" stroke-width="0.15" d="M482.95,-87.85C470.82,-77.62 450.05,-60.1 433.94,-46.51"/>
<polygon fill="red" stroke="red" stroke-width="0.15" points="436.53,-44.12 426.63,-40.35 432.02,-49.47 436.53,-44.12"/>
</g>
<!-- is food down&#45;&gt;right -->
<g id="edge13" class="edge">
<title>is food down&#45;&gt;right</title>
<path fill="none" stroke="red" stroke-width="0.21" d="M493,-87.85C493,-80.76 493,-70.17 493,-59.82"/>
<polygon fill="red" stroke="red" stroke-width="0.21" points="496.5,-60 493,-50 489.5,-60 496.5,-60"/>
</g>
<!-- near top -->
<g id="node5" class="node">
<title>near top</title>
<polygon fill="lightgray" stroke="black" points="736.5,-106.33 689.5,-106.33 689.5,-88.33 736.5,-88.33 736.5,-106.33"/>
<text text-anchor="middle" x="713" y="-95.13" font-family="Times New Roman,serif" font-size="9.00">near top</text>
</g>
<!-- near top&#45;&gt;right -->
<g id="edge6" class="edge">
<title>near top&#45;&gt;right</title>
<path fill="none" stroke="green" stroke-width="0.13" d="M689.06,-90.53C645.12,-79.84 554.85,-57.64 541,-52.33 534.51,-49.83 527.76,-46.68 521.45,-43.46"/>
<polygon fill="green" stroke="green" stroke-width="0.13" points="523.25,-40.45 512.78,-38.85 519.97,-46.63 523.25,-40.45"/>
</g>
<!-- is food right -->
<g id="node6" class="node">
<title>is food right</title>
<polygon fill="lightgray" stroke="black" points="220,-106.33 160,-106.33 160,-88.33 220,-88.33 220,-106.33"/>
<text text-anchor="middle" x="190" y="-95.13" font-family="Times New Roman,serif" font-size="9.00">is food right</text>
</g>
<!-- is food right&#45;&gt;up -->
<g id="edge25" class="edge">
<title>is food right&#45;&gt;up</title>
<path fill="none" stroke="green" stroke-width="0.22" d="M190,-87.85C190,-79.59 190,-66.58 190,-54.73"/>
<polygon fill="green" stroke="green" stroke-width="0.22" points="193.5,-55.08 190,-45.08 186.5,-55.08 193.5,-55.08"/>
</g>
<!-- is food right&#45;&gt;down -->
<g id="edge3" class="edge">
<title>is food right&#45;&gt;down</title>
<path fill="none" stroke="green" stroke-width="0.35" d="M197.73,-87.85C205.43,-79.38 217.68,-65.93 228.69,-53.85"/>
<polygon fill="green" stroke="green" stroke-width="0.35" points="231.19,-56.31 235.33,-46.56 226.01,-51.59 231.19,-56.31"/>
</g>
<!-- is food right&#45;&gt;left -->
<g id="edge17" class="edge">
<title>is food right&#45;&gt;left</title>
<path fill="none" stroke="red" stroke-width="0.11" d="M217.1,-87.85C258.93,-74.75 338.88,-49.73 381.89,-36.27"/>
<polygon fill="red" stroke="red" stroke-width="0.11" points="382.83,-39.64 391.33,-33.32 380.74,-32.96 382.83,-39.64"/>
</g>
<!-- near edge right -->
<g id="node7" class="node">
<title>near edge right</title>
<polygon fill="lightgray" stroke="black" points="68,-106.33 0,-106.33 0,-88.33 68,-88.33 68,-106.33"/>
<text text-anchor="middle" x="34" y="-95.13" font-family="Times New Roman,serif" font-size="9.00">near edge right</text>
</g>
<!-- near edge right&#45;&gt;up -->
<g id="edge18" class="edge">
<title>near edge right&#45;&gt;up</title>
<path fill="none" stroke="red" stroke-width="0.3" d="M53.13,-87.85C81.03,-75.48 132.95,-52.46 164.2,-38.6"/>
<polygon fill="red" stroke="red" stroke-width="0.3" points="165.43,-41.89 173.15,-34.63 162.59,-35.49 165.43,-41.89"/>
</g>
<!-- life pos x -->
<g id="node8" class="node">
<title>life pos x</title>
<polygon fill="lightgray" stroke="black" points="671,-106.33 621,-106.33 621,-88.33 671,-88.33 671,-106.33"/>
<text text-anchor="middle" x="646" y="-95.13" font-family="Times New Roman,serif" font-size="9.00">life pos x</text>
</g>
<!-- life pos x&#45;&gt;stop -->
<g id="edge19" class="edge">
<title>life pos x&#45;&gt;stop</title>
<path fill="none" stroke="green" stroke-width="0.17" d="M637.05,-87.85C627.09,-78.41 610.59,-62.78 596.83,-49.74"/>
<polygon fill="green" stroke="green" stroke-width="0.17" points="599.38,-47.34 589.72,-43 594.57,-52.42 599.38,-47.34"/>
</g>
<!-- life pos x&#45;&gt;left -->
<g id="edge2" class="edge">
<title>life pos x&#45;&gt;left</title>
<path fill="none" stroke="green" stroke-width="0.37" d="M620.59,-90.32C570.33,-78.44 462.9,-53.02 461,-52.33 453.17,-49.47 444.97,-45.7 437.53,-41.95"/>
<polygon fill="green" stroke="green" stroke-width="0.37" points="439.59,-39.08 429.1,-37.55 436.35,-45.28 439.59,-39.08"/>
</g>
<!-- life pos x&#45;&gt;right -->
<g id="edge23" class="edge">
<title>life pos x&#45;&gt;right</title>
<path fill="none" stroke="red" stroke-width="0.18" d="M624.45,-87.93C603.05,-79.44 569.44,-65.71 541,-52.33 534.71,-49.37 528.05,-46.02 521.76,-42.75"/>
<polygon fill="red" stroke="red" stroke-width="0.18" points="523.62,-39.77 513.14,-38.21 520.35,-45.97 523.62,-39.77"/>
</g>
<!-- near edge left -->
<g id="node9" class="node">
<title>near edge left</title>
<polygon fill="lightgray" stroke="black" points="443,-106.33 379,-106.33 379,-88.33 443,-88.33 443,-106.33"/>
<text text-anchor="middle" x="411" y="-95.13" font-family="Times New Roman,serif" font-size="9.00">near edge left</text>
</g>
<!-- near edge left&#45;&gt;up -->
<g id="edge1" class="edge">
<title>near edge left&#45;&gt;up</title>
<path fill="none" stroke="red" stroke-width="0.18" d="M378.78,-89.9C327.64,-79.57 232.19,-59.68 218,-52.33 215.19,-50.87 212.44,-49.06 209.83,-47.09"/>
<polygon fill="red" stroke="red" stroke-width="0.18" points="212.14,-44.47 202.27,-40.64 207.6,-49.79 212.14,-44.47"/>
</g>
<!-- near edge left&#45;&gt;left -->
<g id="edge22" class="edge">
<title>near edge left&#45;&gt;left</title>
<path fill="none" stroke="green" stroke-width="0.12" d="M411,-87.85C411,-80.11 411,-68.22 411,-57"/>
<polygon fill="green" stroke="green" stroke-width="0.12" points="414.5,-57.22 411,-47.22 407.5,-57.22 414.5,-57.22"/>
</g>
<!-- near edge left&#45;&gt;right -->
<g id="edge4" class="edge">
<title>near edge left&#45;&gt;right</title>
<path fill="none" stroke="red" stroke-width="0.3" d="M421.05,-87.85C432.64,-78.08 452.09,-61.67 467.85,-48.37"/>
<polygon fill="red" stroke="red" stroke-width="0.3" points="469.96,-51.18 475.35,-42.05 465.45,-45.82 469.96,-51.18"/>
</g>
<!-- is food left -->
<g id="node10" class="node">
<title>is food left</title>
<polygon fill="lightgray" stroke="black" points="142,-106.33 86,-106.33 86,-88.33 142,-88.33 142,-106.33"/>
<text text-anchor="middle" x="114" y="-95.13" font-family="Times New Roman,serif" font-size="9.00">is food left</text>
</g>
<!-- is food left&#45;&gt;up -->
<g id="edge15" class="edge">
<title>is food left&#45;&gt;up</title>
<path fill="none" stroke="green" stroke-width="0.12" d="M123.32,-87.85C134.73,-77.46 154.38,-59.58 169.41,-45.9"/>
<polygon fill="green" stroke="green" stroke-width="0.12" points="171.6,-48.64 176.64,-39.32 166.89,-43.46 171.6,-48.64"/>
</g>
<!-- is food left&#45;&gt;down -->
<g id="edge14" class="edge">
<title>is food left&#45;&gt;down</title>
<path fill="none" stroke="green" stroke-width="0.32" d="M137.56,-87.86C158.86,-79.83 190.82,-66.86 217,-52.33 219.22,-51.1 221.46,-49.76 223.7,-48.37"/>
<polygon fill="green" stroke="green" stroke-width="0.32" points="225.3,-51.5 231.74,-43.09 221.46,-45.65 225.3,-51.5"/>
</g>
</g>
</svg>
