<?xml version="1.0" encoding="UTF-8" standalone="no"?>
<!DOCTYPE svg PUBLIC "-//W3C//DTD SVG 1.1//EN"
 "http://www.w3.org/Graphics/SVG/1.1/DTD/svg11.dtd">
<!-- Generated by graphviz version 7.1.0 (20230121.1956)
 -->
<!-- Pages: 1 -->
<svg width="301pt" height="216pt"
 viewBox="0.00 0.00 300.55 215.76" xmlns="http://www.w3.org/2000/svg" xmlns:xlink="http://www.w3.org/1999/xlink">
<g id="graph0" class="graph" transform="scale(1 1) rotate(0) translate(4 211.76)">
<polygon fill="white" stroke="none" points="-4,4 -4,-211.76 296.55,-211.76 296.55,4 -4,4"/>
<!-- food x -->
<g id="node1" class="node">
<title>food x</title>
<polygon fill="lightgray" stroke="black" points="231.83,-195.55 192.83,-195.55 192.83,-177.55 231.83,-177.55 231.83,-195.55"/>
<text text-anchor="middle" x="212.33" y="-184.35" font-family="Times New Roman,serif" font-size="9.00">food x</text>
</g>
<!-- stop -->
<g id="node5" class="node">
<title>stop</title>
<ellipse fill="lightblue" stroke="black" cx="149.33" cy="-103.18" rx="23.17" ry="23.17"/>
<text text-anchor="middle" x="149.33" y="-100.98" font-family="Times New Roman,serif" font-size="9.00">stop</text>
</g>
<!-- food x&#45;&gt;stop -->
<g id="edge10" class="edge">
<title>food x&#45;&gt;stop</title>
<path fill="none" stroke="red" stroke-width="0.16" d="M205.83,-177.15C197.32,-166.15 182,-146.37 169.47,-130.18"/>
<polygon fill="red" stroke="red" stroke-width="0.16" points="172.25,-128.06 163.36,-122.29 166.72,-132.34 172.25,-128.06"/>
</g>
<!-- down -->
<g id="node7" class="node">
<title>down</title>
<ellipse fill="lightblue" stroke="black" cx="216.33" cy="-103.18" rx="26.33" ry="26.33"/>
<text text-anchor="middle" x="216.33" y="-100.98" font-family="Times New Roman,serif" font-size="9.00">down</text>
</g>
<!-- food x&#45;&gt;down -->
<g id="edge2" class="edge">
<title>food x&#45;&gt;down</title>
<path fill="none" stroke="green" stroke-width="0.31" d="M212.75,-177.15C213.18,-168.35 213.89,-153.92 214.56,-140.21"/>
<polygon fill="green" stroke="green" stroke-width="0.31" points="218.05,-140.59 215.04,-130.43 211.06,-140.25 218.05,-140.59"/>
</g>
<!-- food rel y -->
<g id="node2" class="node">
<title>food rel y</title>
<polygon fill="lightgray" stroke="black" points="111.33,-195.55 59.33,-195.55 59.33,-177.55 111.33,-177.55 111.33,-195.55"/>
<text text-anchor="middle" x="85.33" y="-184.35" font-family="Times New Roman,serif" font-size="9.00">food rel y</text>
</g>
<!-- food rel y&#45;&gt;stop -->
<g id="edge7" class="edge">
<title>food rel y&#45;&gt;stop</title>
<path fill="none" stroke="red" stroke-width="0.17" d="M91.94,-177.15C100.67,-166.05 116.43,-146.01 129.23,-129.74"/>
<polygon fill="red" stroke="red" stroke-width="0.17" points="131.64,-132.33 135.07,-122.31 126.14,-128.01 131.64,-132.33"/>
</g>
<!-- right -->
<g id="node9" class="node">
<title>right</title>
<ellipse fill="lightblue" stroke="black" cx="23.33" cy="-103.18" rx="23.17" ry="23.17"/>
<text text-anchor="middle" x="23.33" y="-100.98" font-family="Times New Roman,serif" font-size="9.00">right</text>
</g>
<!-- food rel y&#45;&gt;right -->
<g id="edge4" class="edge">
<title>food rel y&#45;&gt;right</title>
<path fill="none" stroke="red" stroke-width="0.33" d="M78.93,-177.15C70.55,-166.15 55.49,-146.37 43.15,-130.18"/>
<polygon fill="red" stroke="red" stroke-width="0.33" points="46.14,-128.33 37.29,-122.5 40.57,-132.57 46.14,-128.33"/>
</g>
<!-- 156 -->
<g id="node11" class="node">
<title>156</title>
<ellipse fill="white" stroke="black" cx="86.33" cy="-103.18" rx="21.43" ry="21.43"/>
<text text-anchor="middle" x="86.33" y="-100.98" font-family="Times New Roman,serif" font-size="9.00">156</text>
</g>
<!-- food rel y&#45;&gt;156 -->
<g id="edge1" class="edge">
<title>food rel y&#45;&gt;156</title>
<path fill="none" stroke="green" stroke-width="0.28" d="M85.44,-177.15C85.56,-167.25 85.77,-150.24 85.95,-135.13"/>
<polygon fill="green" stroke="green" stroke-width="0.28" points="89.45,-135.54 86.07,-125.5 82.45,-135.46 89.45,-135.54"/>
</g>
<!-- pos y -->
<g id="node3" class="node">
<title>pos y</title>
<polygon fill="lightgray" stroke="black" points="41.33,-195.55 3.33,-195.55 3.33,-177.55 41.33,-177.55 41.33,-195.55"/>
<text text-anchor="middle" x="22.33" y="-184.35" font-family="Times New Roman,serif" font-size="9.00">pos y</text>
</g>
<!-- pos y&#45;&gt;right -->
<g id="edge5" class="edge">
<title>pos y&#45;&gt;right</title>
<path fill="none" stroke="green" stroke-width="0.11" d="M22.44,-177.15C22.56,-167.58 22.75,-151.36 22.94,-136.64"/>
<polygon fill="green" stroke="green" stroke-width="0.11" points="26.43,-137.01 23.05,-126.97 19.43,-136.92 26.43,-137.01"/>
</g>
<!-- food y -->
<g id="node4" class="node">
<title>food y</title>
<polygon fill="lightgray" stroke="black" points="170.83,-195.55 129.83,-195.55 129.83,-177.55 170.83,-177.55 170.83,-195.55"/>
<text text-anchor="middle" x="150.33" y="-184.35" font-family="Times New Roman,serif" font-size="9.00">food y</text>
</g>
<!-- food y&#45;&gt;stop -->
<g id="edge3" class="edge">
<title>food y&#45;&gt;stop</title>
<path fill="none" stroke="green" stroke-width="0.24" d="M150.23,-177.15C150.11,-167.67 149.92,-151.68 149.74,-137.07"/>
<polygon fill="green" stroke="green" stroke-width="0.24" points="153.24,-137.11 149.62,-127.16 146.24,-137.2 153.24,-137.11"/>
</g>
<!-- food y&#45;&gt;right -->
<g id="edge8" class="edge">
<title>food y&#45;&gt;right</title>
<path fill="none" stroke="red" stroke-width="0.27" d="M138.22,-177.06C132.81,-173.36 126.32,-169.03 120.33,-165.34 92.56,-148.21 83.6,-147.28 56.33,-129.34 53.96,-127.78 51.54,-126.1 49.14,-124.39"/>
<polygon fill="red" stroke="red" stroke-width="0.27" points="51.61,-121.86 41.49,-118.72 47.44,-127.48 51.61,-121.86"/>
</g>
<!-- up -->
<g id="node6" class="node">
<title>up</title>
<ellipse fill="lightblue" stroke="black" cx="57.33" cy="-20.51" rx="18.27" ry="18.27"/>
<text text-anchor="middle" x="57.33" y="-18.31" font-family="Times New Roman,serif" font-size="9.00">up</text>
</g>
<!-- left -->
<g id="node8" class="node">
<title>left</title>
<ellipse fill="lightblue" stroke="black" cx="114.33" cy="-20.51" rx="20.51" ry="20.51"/>
<text text-anchor="middle" x="114.33" y="-18.31" font-family="Times New Roman,serif" font-size="9.00">left</text>
</g>
<!-- 155 -->
<g id="node10" class="node">
<title>155</title>
<ellipse fill="white" stroke="black" cx="271.33" cy="-186.55" rx="21.43" ry="21.43"/>
<text text-anchor="middle" x="271.33" y="-184.35" font-family="Times New Roman,serif" font-size="9.00">155</text>
</g>
<!-- 156&#45;&gt;up -->
<g id="edge9" class="edge">
<title>156&#45;&gt;up</title>
<path fill="none" stroke="green" stroke-width="0.29" d="M79.31,-82.65C75.57,-72.22 70.9,-59.24 66.83,-47.93"/>
<polygon fill="green" stroke="green" stroke-width="0.29" points="70.14,-46.78 63.46,-38.55 63.55,-49.14 70.14,-46.78"/>
</g>
<!-- 156&#45;&gt;left -->
<g id="edge6" class="edge">
<title>156&#45;&gt;left</title>
<path fill="none" stroke="green" stroke-width="0.18" d="M93.11,-82.65C96.53,-72.79 100.74,-60.66 104.51,-49.8"/>
<polygon fill="green" stroke="green" stroke-width="0.18" points="107.75,-51.15 107.72,-40.56 101.14,-48.86 107.75,-51.15"/>
</g>
</g>
</svg>
