<?xml version="1.0" encoding="UTF-8" standalone="no"?>
<!DOCTYPE svg PUBLIC "-//W3C//DTD SVG 1.1//EN"
 "http://www.w3.org/Graphics/SVG/1.1/DTD/svg11.dtd">
<!-- Generated by graphviz version 7.1.0 (20230121.1956)
 -->
<!-- Pages: 1 -->
<svg width="682pt" height="280pt"
 viewBox="0.00 0.00 682.26 279.66" xmlns="http://www.w3.org/2000/svg" xmlns:xlink="http://www.w3.org/1999/xlink">
<g id="graph0" class="graph" transform="scale(1 1) rotate(0) translate(4 275.66)">
<polygon fill="white" stroke="none" points="-4,4 -4,-275.66 678.26,-275.66 678.26,4 -4,4"/>
<!-- is food up -->
<g id="node1" class="node">
<title>is food up</title>
<polygon fill="lightgray" stroke="black" points="555.71,-271.66 502.71,-271.66 502.71,-253.66 555.71,-253.66 555.71,-271.66"/>
<text text-anchor="middle" x="529.21" y="-260.46" font-family="Times New Roman,serif" font-size="9.00">is food up</text>
</g>
<!-- stop -->
<g id="node8" class="node">
<title>stop</title>
<ellipse fill="lightblue" stroke="black" cx="478.21" cy="-194.33" rx="23.17" ry="23.17"/>
<text text-anchor="middle" x="478.21" y="-192.13" font-family="Times New Roman,serif" font-size="9.00">stop</text>
</g>
<!-- is food up&#45;&gt;stop -->
<g id="edge8" class="edge">
<title>is food up&#45;&gt;stop</title>
<path fill="none" stroke="green" stroke-width="0.4" d="M522.75,-253.26C516.65,-245.32 507.15,-232.97 498.49,-221.71"/>
<polygon fill="green" stroke="green" stroke-width="0.4" points="501.34,-219.67 492.47,-213.88 495.79,-223.94 501.34,-219.67"/>
</g>
<!-- down -->
<g id="node10" class="node">
<title>down</title>
<ellipse fill="lightblue" stroke="black" cx="583.21" cy="-108.83" rx="26.33" ry="26.33"/>
<text text-anchor="middle" x="583.21" y="-106.63" font-family="Times New Roman,serif" font-size="9.00">down</text>
</g>
<!-- is food up&#45;&gt;down -->
<g id="edge3" class="edge">
<title>is food up&#45;&gt;down</title>
<path fill="none" stroke="green" stroke-width="0.21" stroke-dasharray="1,5" d="M530.07,-253.42C531.93,-237.19 537.13,-200.16 548.21,-170.99 552.2,-160.51 557.82,-149.69 563.39,-140.12"/>
<polygon fill="green" stroke="green" stroke-width="0.21" points="566.34,-142.01 568.51,-131.64 560.34,-138.4 566.34,-142.01"/>
</g>
<!-- left -->
<g id="node11" class="node">
<title>left</title>
<ellipse fill="lightblue" stroke="black" cx="578.21" cy="-194.33" rx="20.51" ry="20.51"/>
<text text-anchor="middle" x="578.21" y="-192.13" font-family="Times New Roman,serif" font-size="9.00">left</text>
</g>
<!-- is food up&#45;&gt;left -->
<g id="edge7" class="edge">
<title>is food up&#45;&gt;left</title>
<path fill="none" stroke="red" stroke-width="0.18" stroke-dasharray="1,5" d="M535.42,-253.26C541.64,-244.85 551.5,-231.49 560.2,-219.72"/>
<polygon fill="red" stroke="red" stroke-width="0.18" points="562.96,-221.87 566.09,-211.74 557.33,-217.71 562.96,-221.87"/>
</g>
<!-- pos y -->
<g id="node2" class="node">
<title>pos y</title>
<polygon fill="lightgray" stroke="black" points="657.21,-271.66 619.21,-271.66 619.21,-253.66 657.21,-253.66 657.21,-271.66"/>
<text text-anchor="middle" x="638.21" y="-260.46" font-family="Times New Roman,serif" font-size="9.00">pos y</text>
</g>
<!-- pos y&#45;&gt;down -->
<g id="edge11" class="edge">
<title>pos y&#45;&gt;down</title>
<path fill="none" stroke="red" stroke-width="0.26" stroke-dasharray="1,5" d="M646.14,-253.39C653.49,-245.11 663.91,-231.62 668.21,-217.66 674.33,-197.84 677.67,-189.45 668.21,-170.99 657.43,-149.96 635.67,-134.51 616.87,-124.4"/>
<polygon fill="red" stroke="red" stroke-width="0.26" points="618.52,-121.31 608.02,-119.92 615.35,-127.56 618.52,-121.31"/>
</g>
<!-- pos y&#45;&gt;left -->
<g id="edge10" class="edge">
<title>pos y&#45;&gt;left</title>
<path fill="none" stroke="green" stroke-width="0.38" d="M630.61,-253.26C622.6,-244.4 609.62,-230.05 598.58,-217.85"/>
<polygon fill="green" stroke="green" stroke-width="0.38" points="601.37,-215.72 592.07,-210.65 596.18,-220.41 601.37,-215.72"/>
</g>
<!-- 219 -->
<g id="node16" class="node">
<title>219</title>
<ellipse fill="white" stroke="black" cx="638.21" cy="-194.33" rx="21.43" ry="21.43"/>
<text text-anchor="middle" x="638.21" y="-192.13" font-family="Times New Roman,serif" font-size="9.00">219</text>
</g>
<!-- pos y&#45;&gt;219 -->
<g id="edge20" class="edge">
<title>pos y&#45;&gt;219</title>
<path fill="none" stroke="green" stroke-width="0.37" d="M638.21,-253.26C638.21,-246.45 638.21,-236.41 638.21,-226.58"/>
<polygon fill="green" stroke="green" stroke-width="0.37" points="641.71,-226.74 638.21,-216.74 634.71,-226.74 641.71,-226.74"/>
</g>
<!-- is food down -->
<g id="node3" class="node">
<title>is food down</title>
<polygon fill="lightgray" stroke="black" points="204.21,-271.66 140.21,-271.66 140.21,-253.66 204.21,-253.66 204.21,-271.66"/>
<text text-anchor="middle" x="172.21" y="-260.46" font-family="Times New Roman,serif" font-size="9.00">is food down</text>
</g>
<!-- is food down&#45;&gt;stop -->
<g id="edge5" class="edge">
<title>is food down&#45;&gt;stop</title>
<path fill="none" stroke="red" stroke-width="0.23" d="M204.68,-261.1C257.29,-259.18 363.58,-251.08 446.21,-217.66 448.05,-216.92 449.89,-216.06 451.69,-215.11"/>
<polygon fill="red" stroke="red" stroke-width="0.23" points="453.37,-218.18 460.12,-210.02 449.75,-212.19 453.37,-218.18"/>
</g>
<!-- right -->
<g id="node12" class="node">
<title>right</title>
<ellipse fill="lightblue" stroke="black" cx="98.21" cy="-23.33" rx="23.17" ry="23.17"/>
<text text-anchor="middle" x="98.21" y="-21.13" font-family="Times New Roman,serif" font-size="9.00">right</text>
</g>
<!-- is food down&#45;&gt;right -->
<g id="edge2" class="edge">
<title>is food down&#45;&gt;right</title>
<path fill="none" stroke="green" stroke-width="0.89" stroke-dasharray="1,5" d="M204.56,-257.49C228.8,-252.48 260.4,-241.52 276.21,-217.66 287.67,-200.37 284.69,-189.92 276.21,-170.99 247.01,-105.81 172.08,-60.26 129.33,-38.63"/>
<polygon fill="green" stroke="green" stroke-width="0.89" points="130.92,-35.51 120.4,-34.24 127.83,-41.79 130.92,-35.51"/>
</g>
<!-- 141 -->
<g id="node13" class="node">
<title>141</title>
<ellipse fill="white" stroke="black" cx="147.21" cy="-108.83" rx="21.43" ry="21.43"/>
<text text-anchor="middle" x="147.21" y="-106.63" font-family="Times New Roman,serif" font-size="9.00">141</text>
</g>
<!-- is food down&#45;&gt;141 -->
<g id="edge12" class="edge">
<title>is food down&#45;&gt;141</title>
<path fill="none" stroke="red" stroke-width="0.43" stroke-dasharray="1,5" d="M164.28,-253.39C156.94,-245.11 146.52,-231.62 142.21,-217.66 134.42,-192.39 136.74,-162.2 140.39,-140.2"/>
<polygon fill="red" stroke="red" stroke-width="0.43" points="143.81,-140.94 142.19,-130.47 136.93,-139.66 143.81,-140.94"/>
</g>
<!-- 173 -->
<g id="node14" class="node">
<title>173</title>
<ellipse fill="white" stroke="black" cx="172.21" cy="-194.33" rx="21.43" ry="21.43"/>
<text text-anchor="middle" x="172.21" y="-192.13" font-family="Times New Roman,serif" font-size="9.00">173</text>
</g>
<!-- is food down&#45;&gt;173 -->
<g id="edge16" class="edge">
<title>is food down&#45;&gt;173</title>
<path fill="none" stroke="red" stroke-width="0.19" d="M172.21,-253.26C172.21,-246.38 172.21,-236.19 172.21,-226.27"/>
<polygon fill="red" stroke="red" stroke-width="0.19" points="175.71,-226.47 172.21,-216.47 168.71,-226.47 175.71,-226.47"/>
</g>
<!-- 244 -->
<g id="node15" class="node">
<title>244</title>
<ellipse fill="white" stroke="black" cx="21.21" cy="-108.83" rx="21.43" ry="21.43"/>
<text text-anchor="middle" x="21.21" y="-106.63" font-family="Times New Roman,serif" font-size="9.00">244</text>
</g>
<!-- is food down&#45;&gt;244 -->
<g id="edge22" class="edge">
<title>is food down&#45;&gt;244</title>
<path fill="none" stroke="green" stroke-width="0.33" d="M139.95,-260.57C108.48,-257.67 61.73,-248.08 36.21,-217.66 18.41,-196.44 16.07,-164.18 17.33,-140.47"/>
<polygon fill="green" stroke="green" stroke-width="0.33" points="20.8,-140.99 18.08,-130.75 13.82,-140.45 20.8,-140.99"/>
</g>
<!-- near wall -->
<g id="node4" class="node">
<title>near wall</title>
<polygon fill="lightgray" stroke="black" points="94.71,-203.33 45.71,-203.33 45.71,-185.33 94.71,-185.33 94.71,-203.33"/>
<text text-anchor="middle" x="70.21" y="-192.13" font-family="Times New Roman,serif" font-size="9.00">near wall</text>
</g>
<!-- near wall&#45;&gt;right -->
<g id="edge15" class="edge">
<title>near wall&#45;&gt;right</title>
<path fill="none" stroke="green" stroke-width="0.34" d="M71.56,-185.18C75.35,-162.35 86.2,-96.84 92.83,-56.81"/>
<polygon fill="green" stroke="green" stroke-width="0.34" points="96.28,-57.44 94.46,-47 89.37,-56.29 96.28,-57.44"/>
</g>
<!-- near wall&#45;&gt;141 -->
<g id="edge18" class="edge">
<title>near wall&#45;&gt;141</title>
<path fill="none" stroke="red" stroke-width="0.27" d="M77.88,-185.02C89.03,-172.93 110.13,-150.04 126.14,-132.68"/>
<polygon fill="red" stroke="red" stroke-width="0.27" points="128.6,-135.18 132.81,-125.45 123.45,-130.43 128.6,-135.18"/>
</g>
<!-- is food right -->
<g id="node5" class="node">
<title>is food right</title>
<polygon fill="lightgray" stroke="black" points="383.21,-203.33 323.21,-203.33 323.21,-185.33 383.21,-185.33 383.21,-203.33"/>
<text text-anchor="middle" x="353.21" y="-192.13" font-family="Times New Roman,serif" font-size="9.00">is food right</text>
</g>
<!-- up -->
<g id="node9" class="node">
<title>up</title>
<ellipse fill="lightblue" stroke="black" cx="353.21" cy="-108.83" rx="18.27" ry="18.27"/>
<text text-anchor="middle" x="353.21" y="-106.63" font-family="Times New Roman,serif" font-size="9.00">up</text>
</g>
<!-- is food right&#45;&gt;up -->
<g id="edge6" class="edge">
<title>is food right&#45;&gt;up</title>
<path fill="none" stroke="green" stroke-width="0.2" d="M353.21,-185.02C353.21,-174.05 353.21,-154.21 353.21,-137.67"/>
<polygon fill="green" stroke="green" stroke-width="0.2" points="356.71,-137.7 353.21,-127.7 349.71,-137.7 356.71,-137.7"/>
</g>
<!-- is food right&#45;&gt;down -->
<g id="edge4" class="edge">
<title>is food right&#45;&gt;down</title>
<path fill="none" stroke="green" stroke-width="0.83" d="M366.21,-184.97C373.63,-180.43 383.22,-174.96 392.21,-170.99 444.27,-148.06 507.67,-129.49 546.74,-119.05"/>
<polygon fill="green" stroke="green" stroke-width="0.83" points="547.57,-122.45 556.35,-116.52 545.79,-115.68 547.57,-122.45"/>
</g>
<!-- is food right&#45;&gt;141 -->
<g id="edge19" class="edge">
<title>is food right&#45;&gt;141</title>
<path fill="none" stroke="red" stroke-width="0.44" d="M332.33,-184.86C295.47,-169.93 218.82,-138.86 176.63,-121.76"/>
<polygon fill="red" stroke="red" stroke-width="0.44" points="178.14,-118.59 167.55,-118.08 175.51,-125.08 178.14,-118.59"/>
</g>
<!-- pos x -->
<g id="node6" class="node">
<title>pos x</title>
<polygon fill="lightgray" stroke="black" points="437.21,-203.33 401.21,-203.33 401.21,-185.33 437.21,-185.33 437.21,-203.33"/>
<text text-anchor="middle" x="419.21" y="-192.13" font-family="Times New Roman,serif" font-size="9.00">pos x</text>
</g>
<!-- pos x&#45;&gt;up -->
<g id="edge9" class="edge">
<title>pos x&#45;&gt;up</title>
<path fill="none" stroke="green" stroke-width="0.3" stroke-dasharray="1,5" d="M412.64,-185.02C402.95,-172.75 384.47,-149.38 370.68,-131.93"/>
<polygon fill="green" stroke="green" stroke-width="0.3" points="373.58,-129.95 364.63,-124.28 368.09,-134.29 373.58,-129.95"/>
</g>
<!-- is food left -->
<g id="node7" class="node">
<title>is food left</title>
<polygon fill="lightgray" stroke="black" points="267.21,-203.33 211.21,-203.33 211.21,-185.33 267.21,-185.33 267.21,-203.33"/>
<text text-anchor="middle" x="239.21" y="-192.13" font-family="Times New Roman,serif" font-size="9.00">is food left</text>
</g>
<!-- is food left&#45;&gt;up -->
<g id="edge1" class="edge">
<title>is food left&#45;&gt;up</title>
<path fill="none" stroke="green" stroke-width="0.47" d="M250.56,-185.02C269.04,-171.48 305.99,-144.42 330.15,-126.73"/>
<polygon fill="green" stroke="green" stroke-width="0.47" points="332.14,-129.61 338.14,-120.87 328,-123.96 332.14,-129.61"/>
</g>
<!-- is food left&#45;&gt;141 -->
<g id="edge14" class="edge">
<title>is food left&#45;&gt;141</title>
<path fill="none" stroke="red" stroke-width="0.29" d="M230.06,-185.02C216.23,-172.47 189.61,-148.31 170.26,-130.75"/>
<polygon fill="red" stroke="red" stroke-width="0.29" points="172.82,-128.35 163.06,-124.22 168.12,-133.53 172.82,-128.35"/>
</g>
<!-- 141&#45;&gt;right -->
<g id="edge13" class="edge">
<title>141&#45;&gt;right</title>
<path fill="none" stroke="green" stroke-width="0.36" d="M136.58,-89.71C130.26,-78.94 122.09,-65.02 114.92,-52.81"/>
<polygon fill="green" stroke="green" stroke-width="0.36" points="118.04,-51.2 109.96,-44.35 112,-54.74 118.04,-51.2"/>
</g>
<!-- 173&#45;&gt;141 -->
<g id="edge17" class="edge">
<title>173&#45;&gt;141</title>
<path fill="none" stroke="green" stroke-width="0.83" d="M166.29,-173.54C163.32,-163.63 159.66,-151.41 156.35,-140.34"/>
<polygon fill="green" stroke="green" stroke-width="0.83" points="159.76,-139.54 153.54,-130.96 153.06,-141.55 159.76,-139.54"/>
</g>
<!-- 244&#45;&gt;right -->
<g id="edge23" class="edge">
<title>244&#45;&gt;right</title>
<path fill="none" stroke="green" stroke-width="0.94" d="M35.34,-92.52C46.48,-80.43 62.26,-63.32 75.22,-49.27"/>
<polygon fill="green" stroke="green" stroke-width="0.94" points="77.69,-51.76 81.89,-42.03 72.54,-47.01 77.69,-51.76"/>
</g>
<!-- 219&#45;&gt;down -->
<g id="edge21" class="edge">
<title>219&#45;&gt;down</title>
<path fill="none" stroke="red" stroke-width="0.4" d="M626.82,-176.03C619.93,-165.57 610.96,-151.96 602.95,-139.8"/>
<polygon fill="red" stroke="red" stroke-width="0.4" points="606.09,-138.19 597.66,-131.77 600.24,-142.05 606.09,-138.19"/>
</g>
</g>
</svg>
