<?xml version="1.0" encoding="UTF-8" standalone="no"?>
<!DOCTYPE svg PUBLIC "-//W3C//DTD SVG 1.1//EN"
 "http://www.w3.org/Graphics/SVG/1.1/DTD/svg11.dtd">
<!-- Generated by graphviz version 7.1.0 (20230121.1956)
 -->
<!-- Pages: 1 -->
<svg width="306pt" height="216pt"
 viewBox="0.00 0.00 306.50 215.76" xmlns="http://www.w3.org/2000/svg" xmlns:xlink="http://www.w3.org/1999/xlink">
<g id="graph0" class="graph" transform="scale(1 1) rotate(0) translate(4 211.76)">
<polygon fill="white" stroke="none" points="-4,4 -4,-211.76 302.5,-211.76 302.5,4 -4,4"/>
<!-- food x -->
<g id="node1" class="node">
<title>food x</title>
<polygon fill="lightgray" stroke="black" points="42.83,-190.6 3.83,-190.6 3.83,-172.6 42.83,-172.6 42.83,-190.6"/>
<text text-anchor="middle" x="23.33" y="-179.4" font-family="Times New Roman,serif" font-size="9.00">food x</text>
</g>
<!-- stop -->
<g id="node5" class="node">
<title>stop</title>
<ellipse fill="lightblue" stroke="black" cx="23.33" cy="-23.33" rx="23.17" ry="23.17"/>
<text text-anchor="middle" x="23.33" y="-21.13" font-family="Times New Roman,serif" font-size="9.00">stop</text>
</g>
<!-- food x&#45;&gt;stop -->
<g id="edge8" class="edge">
<title>food x&#45;&gt;stop</title>
<path fill="none" stroke="green" stroke-width="0.25" d="M23.33,-172.2C23.33,-150.85 23.33,-93.62 23.33,-56.94"/>
<polygon fill="green" stroke="green" stroke-width="0.25" points="26.83,-57.11 23.33,-47.11 19.83,-57.11 26.83,-57.11"/>
</g>
<!-- 55 -->
<g id="node10" class="node">
<title>55</title>
<ellipse fill="white" stroke="black" cx="133.33" cy="-101.05" rx="18.27" ry="18.27"/>
<text text-anchor="middle" x="133.33" y="-98.85" font-family="Times New Roman,serif" font-size="9.00">55</text>
</g>
<!-- food x&#45;&gt;55 -->
<g id="edge2" class="edge">
<title>food x&#45;&gt;55</title>
<path fill="none" stroke="green" stroke-width="0.53" d="M32.48,-172.12C38.06,-167.08 45.43,-160.67 52.33,-155.44 62.53,-147.71 89.16,-130.35 109.12,-117.51"/>
<polygon fill="green" stroke="green" stroke-width="0.53" points="110.8,-120.59 117.33,-112.25 107.02,-114.7 110.8,-120.59"/>
</g>
<!-- 56 -->
<g id="node11" class="node">
<title>56</title>
<ellipse fill="white" stroke="black" cx="78.33" cy="-101.05" rx="18.27" ry="18.27"/>
<text text-anchor="middle" x="78.33" y="-98.85" font-family="Times New Roman,serif" font-size="9.00">56</text>
</g>
<!-- food x&#45;&gt;56 -->
<g id="edge9" class="edge">
<title>food x&#45;&gt;56</title>
<path fill="none" stroke="green" stroke-width="0.38" d="M29.22,-172.2C37.08,-160.98 51.29,-140.68 62.41,-124.79"/>
<polygon fill="green" stroke="green" stroke-width="0.38" points="65.02,-127.17 67.89,-116.97 59.29,-123.16 65.02,-127.17"/>
</g>
<!-- food rel y -->
<g id="node2" class="node">
<title>food rel y</title>
<polygon fill="lightgray" stroke="black" points="113.33,-190.6 61.33,-190.6 61.33,-172.6 113.33,-172.6 113.33,-190.6"/>
<text text-anchor="middle" x="87.33" y="-179.4" font-family="Times New Roman,serif" font-size="9.00">food rel y</text>
</g>
<!-- food rel y&#45;&gt;56 -->
<g id="edge7" class="edge">
<title>food rel y&#45;&gt;56</title>
<path fill="none" stroke="red" stroke-width="0.26" d="M86.37,-172.2C85.22,-162.13 83.23,-144.76 81.52,-129.83"/>
<polygon fill="red" stroke="red" stroke-width="0.26" points="85,-129.45 80.38,-119.92 78.04,-130.25 85,-129.45"/>
</g>
<!-- pos y -->
<g id="node3" class="node">
<title>pos y</title>
<polygon fill="lightgray" stroke="black" points="245.33,-110.05 207.33,-110.05 207.33,-92.05 245.33,-92.05 245.33,-110.05"/>
<text text-anchor="middle" x="226.33" y="-98.85" font-family="Times New Roman,serif" font-size="9.00">pos y</text>
</g>
<!-- left -->
<g id="node8" class="node">
<title>left</title>
<ellipse fill="lightblue" stroke="black" cx="179.33" cy="-23.33" rx="20.51" ry="20.51"/>
<text text-anchor="middle" x="179.33" y="-21.13" font-family="Times New Roman,serif" font-size="9.00">left</text>
</g>
<!-- pos y&#45;&gt;left -->
<g id="edge5" class="edge">
<title>pos y&#45;&gt;left</title>
<path fill="none" stroke="green" stroke-width="0.27" d="M221.13,-91.66C214.91,-81.65 204.23,-64.44 195.22,-49.93"/>
<polygon fill="green" stroke="green" stroke-width="0.27" points="198.35,-48.33 190.1,-41.68 192.4,-52.02 198.35,-48.33"/>
</g>
<!-- food y -->
<g id="node4" class="node">
<title>food y</title>
<polygon fill="lightgray" stroke="black" points="172.83,-190.6 131.83,-190.6 131.83,-172.6 172.83,-172.6 172.83,-190.6"/>
<text text-anchor="middle" x="152.33" y="-179.4" font-family="Times New Roman,serif" font-size="9.00">food y</text>
</g>
<!-- food y&#45;&gt;left -->
<g id="edge11" class="edge">
<title>food y&#45;&gt;left</title>
<path fill="none" stroke="green" stroke-width="0.36" d="M153.79,-172.2C157.57,-150.27 167.9,-90.5 174.21,-54.01"/>
<polygon fill="green" stroke="green" stroke-width="0.36" points="177.6,-54.94 175.85,-44.49 170.7,-53.74 177.6,-54.94"/>
</g>
<!-- food y&#45;&gt;55 -->
<g id="edge3" class="edge">
<title>food y&#45;&gt;55</title>
<path fill="none" stroke="red" stroke-width="0.42" d="M150.3,-172.2C147.85,-162.07 143.61,-144.54 139.98,-129.55"/>
<polygon fill="red" stroke="red" stroke-width="0.42" points="143.39,-128.73 137.64,-119.83 136.58,-130.38 143.39,-128.73"/>
</g>
<!-- food y&#45;&gt;56 -->
<g id="edge6" class="edge">
<title>food y&#45;&gt;56</title>
<path fill="none" stroke="red" stroke-width="0.38" d="M144.42,-172.2C133.33,-160.43 112.83,-138.67 97.59,-122.5"/>
<polygon fill="red" stroke="red" stroke-width="0.38" points="100.4,-120.37 90.99,-115.49 95.3,-125.17 100.4,-120.37"/>
</g>
<!-- up -->
<g id="node6" class="node">
<title>up</title>
<ellipse fill="lightblue" stroke="black" cx="209.33" cy="-181.6" rx="18.27" ry="18.27"/>
<text text-anchor="middle" x="209.33" y="-179.4" font-family="Times New Roman,serif" font-size="9.00">up</text>
</g>
<!-- down -->
<g id="node7" class="node">
<title>down</title>
<ellipse fill="lightblue" stroke="black" cx="272.33" cy="-181.6" rx="26.33" ry="26.33"/>
<text text-anchor="middle" x="272.33" y="-179.4" font-family="Times New Roman,serif" font-size="9.00">down</text>
</g>
<!-- right -->
<g id="node9" class="node">
<title>right</title>
<ellipse fill="lightblue" stroke="black" cx="88.33" cy="-23.33" rx="23.17" ry="23.17"/>
<text text-anchor="middle" x="88.33" y="-21.13" font-family="Times New Roman,serif" font-size="9.00">right</text>
</g>
<!-- 55&#45;&gt;left -->
<g id="edge10" class="edge">
<title>55&#45;&gt;left</title>
<path fill="none" stroke="red" stroke-width="0.28" d="M142.42,-85.09C148.46,-75.16 156.53,-61.87 163.59,-50.24"/>
<polygon fill="red" stroke="red" stroke-width="0.28" points="166.56,-52.1 168.76,-41.74 160.58,-48.47 166.56,-52.1"/>
</g>
<!-- 56&#45;&gt;stop -->
<g id="edge1" class="edge">
<title>56&#45;&gt;stop</title>
<path fill="none" stroke="red" stroke-width="0.19" d="M67.99,-85.81C60.88,-76.02 51.22,-62.72 42.7,-51"/>
<polygon fill="red" stroke="red" stroke-width="0.19" points="45.63,-49.07 36.92,-43.04 39.97,-53.19 45.63,-49.07"/>
</g>
<!-- 56&#45;&gt;right -->
<g id="edge4" class="edge">
<title>56&#45;&gt;right</title>
<path fill="none" stroke="red" stroke-width="0.18" d="M80.65,-82.49C81.67,-74.83 82.89,-65.59 84.05,-56.76"/>
<polygon fill="red" stroke="red" stroke-width="0.18" points="87.51,-57.33 85.35,-46.96 80.57,-56.42 87.51,-57.33"/>
</g>
</g>
</svg>
