<?xml version="1.0" encoding="UTF-8" standalone="no"?>
<!DOCTYPE svg PUBLIC "-//W3C//DTD SVG 1.1//EN"
 "http://www.w3.org/Graphics/SVG/1.1/DTD/svg11.dtd">
<!-- Generated by graphviz version 7.1.0 (20230121.1956)
 -->
<!-- Pages: 1 -->
<svg width="420pt" height="220pt"
 viewBox="0.00 0.00 419.84 220.01" xmlns="http://www.w3.org/2000/svg" xmlns:xlink="http://www.w3.org/1999/xlink">
<g id="graph0" class="graph" transform="scale(1 1) rotate(0) translate(4 216.01)">
<polygon fill="white" stroke="none" points="-4,4 -4,-216.01 415.84,-216.01 415.84,4 -4,4"/>
<!-- food x -->
<g id="node1" class="node">
<title>food x</title>
<polygon fill="lightgray" stroke="black" points="231.83,-117.83 192.83,-117.83 192.83,-99.83 231.83,-99.83 231.83,-117.83"/>
<text text-anchor="middle" x="212.33" y="-106.63" font-family="Times New Roman,serif" font-size="9.00">food x</text>
</g>
<!-- up -->
<g id="node6" class="node">
<title>up</title>
<ellipse fill="lightblue" stroke="black" cx="116.33" cy="-23.33" rx="18.27" ry="18.27"/>
<text text-anchor="middle" x="116.33" y="-21.13" font-family="Times New Roman,serif" font-size="9.00">up</text>
</g>
<!-- food x&#45;&gt;up -->
<g id="edge4" class="edge">
<title>food x&#45;&gt;up</title>
<path fill="none" stroke="green" stroke-width="0.44" d="M202.78,-99.52C187.69,-86.4 157.97,-60.55 137.63,-42.86"/>
<polygon fill="green" stroke="green" stroke-width="0.44" points="140.17,-40.43 130.33,-36.51 135.58,-45.71 140.17,-40.43"/>
</g>
<!-- right -->
<g id="node9" class="node">
<title>right</title>
<ellipse fill="lightblue" stroke="black" cx="240.33" cy="-23.33" rx="23.17" ry="23.17"/>
<text text-anchor="middle" x="240.33" y="-21.13" font-family="Times New Roman,serif" font-size="9.00">right</text>
</g>
<!-- food x&#45;&gt;right -->
<g id="edge5" class="edge">
<title>food x&#45;&gt;right</title>
<path fill="none" stroke="red" stroke-width="0.12" d="M215.12,-99.52C218.58,-89.2 224.68,-71.03 230.01,-55.13"/>
<polygon fill="red" stroke="red" stroke-width="0.12" points="233.28,-56.38 233.14,-45.79 226.64,-54.15 233.28,-56.38"/>
</g>
<!-- food rel y -->
<g id="node2" class="node">
<title>food rel y</title>
<polygon fill="lightgray" stroke="black" points="174.33,-117.83 122.33,-117.83 122.33,-99.83 174.33,-99.83 174.33,-117.83"/>
<text text-anchor="middle" x="148.33" y="-106.63" font-family="Times New Roman,serif" font-size="9.00">food rel y</text>
</g>
<!-- food rel y&#45;&gt;up -->
<g id="edge8" class="edge">
<title>food rel y&#45;&gt;up</title>
<path fill="none" stroke="green" stroke-width="0.35" d="M145.15,-99.52C140.79,-88.14 132.76,-67.2 126.29,-50.3"/>
<polygon fill="green" stroke="green" stroke-width="0.35" points="129.73,-49.51 122.88,-41.42 123.19,-52.01 129.73,-49.51"/>
</g>
<!-- food rel y&#45;&gt;right -->
<g id="edge9" class="edge">
<title>food rel y&#45;&gt;right</title>
<path fill="none" stroke="red" stroke-width="0.33" d="M157.49,-99.52C170.99,-87.27 196.72,-63.92 215.93,-46.48"/>
<polygon fill="red" stroke="red" stroke-width="0.33" points="218.03,-49.3 223.09,-39.99 213.33,-44.12 218.03,-49.3"/>
</g>
<!-- pos y -->
<g id="node3" class="node">
<title>pos y</title>
<polygon fill="lightgray" stroke="black" points="288.33,-117.83 250.33,-117.83 250.33,-99.83 288.33,-99.83 288.33,-117.83"/>
<text text-anchor="middle" x="269.33" y="-106.63" font-family="Times New Roman,serif" font-size="9.00">pos y</text>
</g>
<!-- pos y&#45;&gt;right -->
<g id="edge3" class="edge">
<title>pos y&#45;&gt;right</title>
<path fill="none" stroke="green" stroke-width="0.31" d="M266.45,-99.52C262.86,-89.2 256.55,-71.03 251.03,-55.13"/>
<polygon fill="green" stroke="green" stroke-width="0.31" points="254.47,-54.35 247.88,-46.05 247.85,-56.65 254.47,-54.35"/>
</g>
<!-- food y -->
<g id="node4" class="node">
<title>food y</title>
<polygon fill="lightgray" stroke="black" points="352.83,-200.5 311.83,-200.5 311.83,-182.5 352.83,-182.5 352.83,-200.5"/>
<text text-anchor="middle" x="332.33" y="-189.3" font-family="Times New Roman,serif" font-size="9.00">food y</text>
</g>
<!-- down -->
<g id="node7" class="node">
<title>down</title>
<ellipse fill="lightblue" stroke="black" cx="332.33" cy="-108.83" rx="26.33" ry="26.33"/>
<text text-anchor="middle" x="332.33" y="-106.63" font-family="Times New Roman,serif" font-size="9.00">down</text>
</g>
<!-- food y&#45;&gt;down -->
<g id="edge2" class="edge">
<title>food y&#45;&gt;down</title>
<path fill="none" stroke="red" stroke-width="0.5" d="M332.33,-182.17C332.33,-173.53 332.33,-159.42 332.33,-145.95"/>
<polygon fill="red" stroke="red" stroke-width="0.5" points="335.83,-146.16 332.33,-136.16 328.83,-146.16 335.83,-146.16"/>
</g>
<!-- food y&#45;&gt;right -->
<g id="edge6" class="edge">
<title>food y&#45;&gt;right</title>
<path fill="none" stroke="red" stroke-width="0.41" d="M339.68,-182.04C355.27,-162.98 388.58,-115.81 367.33,-82.67 346.83,-50.69 303.92,-36.01 273.66,-29.43"/>
<polygon fill="red" stroke="red" stroke-width="0.41" points="274.64,-26.06 264.15,-27.54 273.28,-32.92 274.64,-26.06"/>
</g>
<!-- 204 -->
<g id="node11" class="node">
<title>204</title>
<ellipse fill="white" stroke="black" cx="23.33" cy="-108.83" rx="21.43" ry="21.43"/>
<text text-anchor="middle" x="23.33" y="-106.63" font-family="Times New Roman,serif" font-size="9.00">204</text>
</g>
<!-- food y&#45;&gt;204 -->
<g id="edge11" class="edge">
<title>food y&#45;&gt;204</title>
<path fill="none" stroke="red" stroke-width="0.38" d="M311.63,-189.86C263.79,-187.66 142.84,-177.92 53.33,-134.99 50.97,-133.86 48.65,-132.5 46.39,-131.01"/>
<polygon fill="red" stroke="red" stroke-width="0.38" points="48.71,-128.37 38.62,-125.12 44.48,-133.95 48.71,-128.37"/>
</g>
<!-- stop -->
<g id="node5" class="node">
<title>stop</title>
<ellipse fill="lightblue" stroke="black" cx="23.33" cy="-23.33" rx="23.17" ry="23.17"/>
<text text-anchor="middle" x="23.33" y="-21.13" font-family="Times New Roman,serif" font-size="9.00">stop</text>
</g>
<!-- left -->
<g id="node8" class="node">
<title>left</title>
<ellipse fill="lightblue" stroke="black" cx="391.33" cy="-191.5" rx="20.51" ry="20.51"/>
<text text-anchor="middle" x="391.33" y="-189.3" font-family="Times New Roman,serif" font-size="9.00">left</text>
</g>
<!-- 203 -->
<g id="node10" class="node">
<title>203</title>
<ellipse fill="white" stroke="black" cx="83.33" cy="-108.83" rx="21.43" ry="21.43"/>
<text text-anchor="middle" x="83.33" y="-106.63" font-family="Times New Roman,serif" font-size="9.00">203</text>
</g>
<!-- 203&#45;&gt;up -->
<g id="edge1" class="edge">
<title>203&#45;&gt;up</title>
<path fill="none" stroke="red" stroke-width="0.22" d="M90.99,-88.47C95.5,-77.06 101.25,-62.49 106.14,-50.13"/>
<polygon fill="red" stroke="red" stroke-width="0.22" points="109.29,-51.67 109.71,-41.09 102.78,-49.1 109.29,-51.67"/>
</g>
<!-- 204&#45;&gt;stop -->
<g id="edge10" class="edge">
<title>204&#45;&gt;stop</title>
<path fill="none" stroke="green" stroke-width="0.32" d="M23.33,-87.19C23.33,-78.09 23.33,-67.17 23.33,-57"/>
<polygon fill="green" stroke="green" stroke-width="0.32" points="26.83,-57.28 23.33,-47.28 19.83,-57.28 26.83,-57.28"/>
</g>
<!-- 204&#45;&gt;up -->
<g id="edge7" class="edge">
<title>204&#45;&gt;up</title>
<path fill="none" stroke="green" stroke-width="0.25" d="M39.11,-93.67C54.66,-79.71 78.51,-58.3 95.58,-42.97"/>
<polygon fill="green" stroke="green" stroke-width="0.25" points="97.52,-45.93 102.62,-36.65 92.84,-40.72 97.52,-45.93"/>
</g>
</g>
</svg>
