<?xml version="1.0" encoding="utf-8" standalone="no"?>
<!DOCTYPE svg PUBLIC "-//W3C//DTD SVG 1.1//EN"
  "http://www.w3.org/Graphics/SVG/1.1/DTD/svg11.dtd">
<svg xmlns:xlink="http://www.w3.org/1999/xlink" width="460.8pt" height="345.6pt" viewBox="0 0 460.8 345.6" xmlns="http://www.w3.org/2000/svg" version="1.1">
 <metadata>
  <rdf:RDF xmlns:dc="http://purl.org/dc/elements/1.1/" xmlns:cc="http://creativecommons.org/ns#" xmlns:rdf="http://www.w3.org/1999/02/22-rdf-syntax-ns#">
   <cc:Work>
    <dc:type rdf:resource="http://purl.org/dc/dcmitype/StillImage"/>
    <dc:date>2023-03-14T04:54:17.796520</dc:date>
    <dc:format>image/svg+xml</dc:format>
    <dc:creator>
     <cc:Agent>
      <dc:title>Matplotlib v3.7.1, https://matplotlib.org/</dc:title>
     </cc:Agent>
    </dc:creator>
   </cc:Work>
  </rdf:RDF>
 </metadata>
 <defs>
  <style type="text/css">*{stroke-linejoin: round; stroke-linecap: butt}</style>
 </defs>
 <g id="figure_1">
  <g id="patch_1">
   <path d="M 0 345.6 
L 460.8 345.6 
L 460.8 0 
L 0 0 
z
" style="fill: #ffffff"/>
  </g>
  <g id="axes_1">
   <g id="patch_2">
    <path d="M 57.6 307.584 
L 414.72 307.584 
L 414.72 41.472 
L 57.6 41.472 
z
" style="fill: #ffffff"/>
   </g>
   <g id="matplotlib.axis_1">
    <g id="xtick_1">
     <g id="line2d_1">
      <path d="M 73.832727 307.584 
L 73.832727 41.472 
" clip-path="url(#pdf43566f6d)" style="fill: none; stroke: #b0b0b0; stroke-width: 0.8; stroke-linecap: square"/>
     </g>
     <g id="line2d_2">
      <defs>
       <path id="me0bb6d23eb" d="M 0 0 
L 0 3.5 
" style="stroke: #000000; stroke-width: 0.8"/>
      </defs>
      <g>
       <use xlink:href="#me0bb6d23eb" x="73.832727" y="307.584" style="stroke: #000000; stroke-width: 0.8"/>
      </g>
     </g>
     <g id="text_1">
      <!-- 0 -->
      <g transform="translate(70.651477 322.182437) scale(0.1 -0.1)">
       <defs>
        <path id="DejaVuSans-30" d="M 2034 4250 
Q 1547 4250 1301 3770 
Q 1056 3291 1056 2328 
Q 1056 1369 1301 889 
Q 1547 409 2034 409 
Q 2525 409 2770 889 
Q 3016 1369 3016 2328 
Q 3016 3291 2770 3770 
Q 2525 4250 2034 4250 
z
M 2034 4750 
Q 2819 4750 3233 4129 
Q 3647 3509 3647 2328 
Q 3647 1150 3233 529 
Q 2819 -91 2034 -91 
Q 1250 -91 836 529 
Q 422 1150 422 2328 
Q 422 3509 836 4129 
Q 1250 4750 2034 4750 
z
" transform="scale(0.015625)"/>
       </defs>
       <use xlink:href="#DejaVuSans-30"/>
      </g>
     </g>
    </g>
    <g id="xtick_2">
     <g id="line2d_3">
      <path d="M 139.419504 307.584 
L 139.419504 41.472 
" clip-path="url(#pdf43566f6d)" style="fill: none; stroke: #b0b0b0; stroke-width: 0.8; stroke-linecap: square"/>
     </g>
     <g id="line2d_4">
      <g>
       <use xlink:href="#me0bb6d23eb" x="139.419504" y="307.584" style="stroke: #000000; stroke-width: 0.8"/>
      </g>
     </g>
     <g id="text_2">
      <!-- 20 -->
      <g transform="translate(133.057004 322.182437) scale(0.1 -0.1)">
       <defs>
        <path id="DejaVuSans-32" d="M 1228 531 
L 3431 531 
L 3431 0 
L 469 0 
L 469 531 
Q 828 903 1448 1529 
Q 2069 2156 2228 2338 
Q 2531 2678 2651 2914 
Q 2772 3150 2772 3378 
Q 2772 3750 2511 3984 
Q 2250 4219 1831 4219 
Q 1534 4219 1204 4116 
Q 875 4013 500 3803 
L 500 4441 
Q 881 4594 1212 4672 
Q 1544 4750 1819 4750 
Q 2544 4750 2975 4387 
Q 3406 4025 3406 3419 
Q 3406 3131 3298 2873 
Q 3191 2616 2906 2266 
Q 2828 2175 2409 1742 
Q 1991 1309 1228 531 
z
" transform="scale(0.015625)"/>
       </defs>
       <use xlink:href="#DejaVuSans-32"/>
       <use xlink:href="#DejaVuSans-30" x="63.623047"/>
      </g>
     </g>
    </g>
    <g id="xtick_3">
     <g id="line2d_5">
      <path d="M 205.006281 307.584 
L 205.006281 41.472 
" clip-path="url(#pdf43566f6d)" style="fill: none; stroke: #b0b0b0; stroke-width: 0.8; stroke-linecap: square"/>
     </g>
     <g id="line2d_6">
      <g>
       <use xlink:href="#me0bb6d23eb" x="205.006281" y="307.584" style="stroke: #000000; stroke-width: 0.8"/>
      </g>
     </g>
     <g id="text_3">
      <!-- 40 -->
      <g transform="translate(198.643781 322.182437) scale(0.1 -0.1)">
       <defs>
        <path id="DejaVuSans-34" d="M 2419 4116 
L 825 1625 
L 2419 1625 
L 2419 4116 
z
M 2253 4666 
L 3047 4666 
L 3047 1625 
L 3713 1625 
L 3713 1100 
L 3047 1100 
L 3047 0 
L 2419 0 
L 2419 1100 
L 313 1100 
L 313 1709 
L 2253 4666 
z
" transform="scale(0.015625)"/>
       </defs>
       <use xlink:href="#DejaVuSans-34"/>
       <use xlink:href="#DejaVuSans-30" x="63.623047"/>
      </g>
     </g>
    </g>
    <g id="xtick_4">
     <g id="line2d_7">
      <path d="M 270.593058 307.584 
L 270.593058 41.472 
" clip-path="url(#pdf43566f6d)" style="fill: none; stroke: #b0b0b0; stroke-width: 0.8; stroke-linecap: square"/>
     </g>
     <g id="line2d_8">
      <g>
       <use xlink:href="#me0bb6d23eb" x="270.593058" y="307.584" style="stroke: #000000; stroke-width: 0.8"/>
      </g>
     </g>
     <g id="text_4">
      <!-- 60 -->
      <g transform="translate(264.230558 322.182437) scale(0.1 -0.1)">
       <defs>
        <path id="DejaVuSans-36" d="M 2113 2584 
Q 1688 2584 1439 2293 
Q 1191 2003 1191 1497 
Q 1191 994 1439 701 
Q 1688 409 2113 409 
Q 2538 409 2786 701 
Q 3034 994 3034 1497 
Q 3034 2003 2786 2293 
Q 2538 2584 2113 2584 
z
M 3366 4563 
L 3366 3988 
Q 3128 4100 2886 4159 
Q 2644 4219 2406 4219 
Q 1781 4219 1451 3797 
Q 1122 3375 1075 2522 
Q 1259 2794 1537 2939 
Q 1816 3084 2150 3084 
Q 2853 3084 3261 2657 
Q 3669 2231 3669 1497 
Q 3669 778 3244 343 
Q 2819 -91 2113 -91 
Q 1303 -91 875 529 
Q 447 1150 447 2328 
Q 447 3434 972 4092 
Q 1497 4750 2381 4750 
Q 2619 4750 2861 4703 
Q 3103 4656 3366 4563 
z
" transform="scale(0.015625)"/>
       </defs>
       <use xlink:href="#DejaVuSans-36"/>
       <use xlink:href="#DejaVuSans-30" x="63.623047"/>
      </g>
     </g>
    </g>
    <g id="xtick_5">
     <g id="line2d_9">
      <path d="M 336.179835 307.584 
L 336.179835 41.472 
" clip-path="url(#pdf43566f6d)" style="fill: none; stroke: #b0b0b0; stroke-width: 0.8; stroke-linecap: square"/>
     </g>
     <g id="line2d_10">
      <g>
       <use xlink:href="#me0bb6d23eb" x="336.179835" y="307.584" style="stroke: #000000; stroke-width: 0.8"/>
      </g>
     </g>
     <g id="text_5">
      <!-- 80 -->
      <g transform="translate(329.817335 322.182437) scale(0.1 -0.1)">
       <defs>
        <path id="DejaVuSans-38" d="M 2034 2216 
Q 1584 2216 1326 1975 
Q 1069 1734 1069 1313 
Q 1069 891 1326 650 
Q 1584 409 2034 409 
Q 2484 409 2743 651 
Q 3003 894 3003 1313 
Q 3003 1734 2745 1975 
Q 2488 2216 2034 2216 
z
M 1403 2484 
Q 997 2584 770 2862 
Q 544 3141 544 3541 
Q 544 4100 942 4425 
Q 1341 4750 2034 4750 
Q 2731 4750 3128 4425 
Q 3525 4100 3525 3541 
Q 3525 3141 3298 2862 
Q 3072 2584 2669 2484 
Q 3125 2378 3379 2068 
Q 3634 1759 3634 1313 
Q 3634 634 3220 271 
Q 2806 -91 2034 -91 
Q 1263 -91 848 271 
Q 434 634 434 1313 
Q 434 1759 690 2068 
Q 947 2378 1403 2484 
z
M 1172 3481 
Q 1172 3119 1398 2916 
Q 1625 2713 2034 2713 
Q 2441 2713 2670 2916 
Q 2900 3119 2900 3481 
Q 2900 3844 2670 4047 
Q 2441 4250 2034 4250 
Q 1625 4250 1398 4047 
Q 1172 3844 1172 3481 
z
" transform="scale(0.015625)"/>
       </defs>
       <use xlink:href="#DejaVuSans-38"/>
       <use xlink:href="#DejaVuSans-30" x="63.623047"/>
      </g>
     </g>
    </g>
    <g id="xtick_6">
     <g id="line2d_11">
      <path d="M 401.766612 307.584 
L 401.766612 41.472 
" clip-path="url(#pdf43566f6d)" style="fill: none; stroke: #b0b0b0; stroke-width: 0.8; stroke-linecap: square"/>
     </g>
     <g id="line2d_12">
      <g>
       <use xlink:href="#me0bb6d23eb" x="401.766612" y="307.584" style="stroke: #000000; stroke-width: 0.8"/>
      </g>
     </g>
     <g id="text_6">
      <!-- 100 -->
      <g transform="translate(392.222862 322.182437) scale(0.1 -0.1)">
       <defs>
        <path id="DejaVuSans-31" d="M 794 531 
L 1825 531 
L 1825 4091 
L 703 3866 
L 703 4441 
L 1819 4666 
L 2450 4666 
L 2450 531 
L 3481 531 
L 3481 0 
L 794 0 
L 794 531 
z
" transform="scale(0.015625)"/>
       </defs>
       <use xlink:href="#DejaVuSans-31"/>
       <use xlink:href="#DejaVuSans-30" x="63.623047"/>
       <use xlink:href="#DejaVuSans-30" x="127.246094"/>
      </g>
     </g>
    </g>
    <g id="text_7">
     <!-- Generations -->
     <g transform="translate(205.662344 335.860562) scale(0.1 -0.1)">
      <defs>
       <path id="DejaVuSans-47" d="M 3809 666 
L 3809 1919 
L 2778 1919 
L 2778 2438 
L 4434 2438 
L 4434 434 
Q 4069 175 3628 42 
Q 3188 -91 2688 -91 
Q 1594 -91 976 548 
Q 359 1188 359 2328 
Q 359 3472 976 4111 
Q 1594 4750 2688 4750 
Q 3144 4750 3555 4637 
Q 3966 4525 4313 4306 
L 4313 3634 
Q 3963 3931 3569 4081 
Q 3175 4231 2741 4231 
Q 1884 4231 1454 3753 
Q 1025 3275 1025 2328 
Q 1025 1384 1454 906 
Q 1884 428 2741 428 
Q 3075 428 3337 486 
Q 3600 544 3809 666 
z
" transform="scale(0.015625)"/>
       <path id="DejaVuSans-65" d="M 3597 1894 
L 3597 1613 
L 953 1613 
Q 991 1019 1311 708 
Q 1631 397 2203 397 
Q 2534 397 2845 478 
Q 3156 559 3463 722 
L 3463 178 
Q 3153 47 2828 -22 
Q 2503 -91 2169 -91 
Q 1331 -91 842 396 
Q 353 884 353 1716 
Q 353 2575 817 3079 
Q 1281 3584 2069 3584 
Q 2775 3584 3186 3129 
Q 3597 2675 3597 1894 
z
M 3022 2063 
Q 3016 2534 2758 2815 
Q 2500 3097 2075 3097 
Q 1594 3097 1305 2825 
Q 1016 2553 972 2059 
L 3022 2063 
z
" transform="scale(0.015625)"/>
       <path id="DejaVuSans-6e" d="M 3513 2113 
L 3513 0 
L 2938 0 
L 2938 2094 
Q 2938 2591 2744 2837 
Q 2550 3084 2163 3084 
Q 1697 3084 1428 2787 
Q 1159 2491 1159 1978 
L 1159 0 
L 581 0 
L 581 3500 
L 1159 3500 
L 1159 2956 
Q 1366 3272 1645 3428 
Q 1925 3584 2291 3584 
Q 2894 3584 3203 3211 
Q 3513 2838 3513 2113 
z
" transform="scale(0.015625)"/>
       <path id="DejaVuSans-72" d="M 2631 2963 
Q 2534 3019 2420 3045 
Q 2306 3072 2169 3072 
Q 1681 3072 1420 2755 
Q 1159 2438 1159 1844 
L 1159 0 
L 581 0 
L 581 3500 
L 1159 3500 
L 1159 2956 
Q 1341 3275 1631 3429 
Q 1922 3584 2338 3584 
Q 2397 3584 2469 3576 
Q 2541 3569 2628 3553 
L 2631 2963 
z
" transform="scale(0.015625)"/>
       <path id="DejaVuSans-61" d="M 2194 1759 
Q 1497 1759 1228 1600 
Q 959 1441 959 1056 
Q 959 750 1161 570 
Q 1363 391 1709 391 
Q 2188 391 2477 730 
Q 2766 1069 2766 1631 
L 2766 1759 
L 2194 1759 
z
M 3341 1997 
L 3341 0 
L 2766 0 
L 2766 531 
Q 2569 213 2275 61 
Q 1981 -91 1556 -91 
Q 1019 -91 701 211 
Q 384 513 384 1019 
Q 384 1609 779 1909 
Q 1175 2209 1959 2209 
L 2766 2209 
L 2766 2266 
Q 2766 2663 2505 2880 
Q 2244 3097 1772 3097 
Q 1472 3097 1187 3025 
Q 903 2953 641 2809 
L 641 3341 
Q 956 3463 1253 3523 
Q 1550 3584 1831 3584 
Q 2591 3584 2966 3190 
Q 3341 2797 3341 1997 
z
" transform="scale(0.015625)"/>
       <path id="DejaVuSans-74" d="M 1172 4494 
L 1172 3500 
L 2356 3500 
L 2356 3053 
L 1172 3053 
L 1172 1153 
Q 1172 725 1289 603 
Q 1406 481 1766 481 
L 2356 481 
L 2356 0 
L 1766 0 
Q 1100 0 847 248 
Q 594 497 594 1153 
L 594 3053 
L 172 3053 
L 172 3500 
L 594 3500 
L 594 4494 
L 1172 4494 
z
" transform="scale(0.015625)"/>
       <path id="DejaVuSans-69" d="M 603 3500 
L 1178 3500 
L 1178 0 
L 603 0 
L 603 3500 
z
M 603 4863 
L 1178 4863 
L 1178 4134 
L 603 4134 
L 603 4863 
z
" transform="scale(0.015625)"/>
       <path id="DejaVuSans-6f" d="M 1959 3097 
Q 1497 3097 1228 2736 
Q 959 2375 959 1747 
Q 959 1119 1226 758 
Q 1494 397 1959 397 
Q 2419 397 2687 759 
Q 2956 1122 2956 1747 
Q 2956 2369 2687 2733 
Q 2419 3097 1959 3097 
z
M 1959 3584 
Q 2709 3584 3137 3096 
Q 3566 2609 3566 1747 
Q 3566 888 3137 398 
Q 2709 -91 1959 -91 
Q 1206 -91 779 398 
Q 353 888 353 1747 
Q 353 2609 779 3096 
Q 1206 3584 1959 3584 
z
" transform="scale(0.015625)"/>
       <path id="DejaVuSans-73" d="M 2834 3397 
L 2834 2853 
Q 2591 2978 2328 3040 
Q 2066 3103 1784 3103 
Q 1356 3103 1142 2972 
Q 928 2841 928 2578 
Q 928 2378 1081 2264 
Q 1234 2150 1697 2047 
L 1894 2003 
Q 2506 1872 2764 1633 
Q 3022 1394 3022 966 
Q 3022 478 2636 193 
Q 2250 -91 1575 -91 
Q 1294 -91 989 -36 
Q 684 19 347 128 
L 347 722 
Q 666 556 975 473 
Q 1284 391 1588 391 
Q 1994 391 2212 530 
Q 2431 669 2431 922 
Q 2431 1156 2273 1281 
Q 2116 1406 1581 1522 
L 1381 1569 
Q 847 1681 609 1914 
Q 372 2147 372 2553 
Q 372 3047 722 3315 
Q 1072 3584 1716 3584 
Q 2034 3584 2315 3537 
Q 2597 3491 2834 3397 
z
" transform="scale(0.015625)"/>
      </defs>
      <use xlink:href="#DejaVuSans-47"/>
      <use xlink:href="#DejaVuSans-65" x="77.490234"/>
      <use xlink:href="#DejaVuSans-6e" x="139.013672"/>
      <use xlink:href="#DejaVuSans-65" x="202.392578"/>
      <use xlink:href="#DejaVuSans-72" x="263.916016"/>
      <use xlink:href="#DejaVuSans-61" x="305.029297"/>
      <use xlink:href="#DejaVuSans-74" x="366.308594"/>
      <use xlink:href="#DejaVuSans-69" x="405.517578"/>
      <use xlink:href="#DejaVuSans-6f" x="433.300781"/>
      <use xlink:href="#DejaVuSans-6e" x="494.482422"/>
      <use xlink:href="#DejaVuSans-73" x="557.861328"/>
     </g>
    </g>
   </g>
   <g id="matplotlib.axis_2">
    <g id="ytick_1">
     <g id="line2d_13">
      <path d="M 57.6 275.767472 
L 414.72 275.767472 
" clip-path="url(#pdf43566f6d)" style="fill: none; stroke: #b0b0b0; stroke-width: 0.8; stroke-linecap: square"/>
     </g>
     <g id="line2d_14">
      <defs>
       <path id="m671b6a03f7" d="M 0 0 
L -3.5 0 
" style="stroke: #000000; stroke-width: 0.8"/>
      </defs>
      <g>
       <use xlink:href="#m671b6a03f7" x="57.6" y="275.767472" style="stroke: #000000; stroke-width: 0.8"/>
      </g>
     </g>
     <g id="text_8">
      <!-- −10000 -->
      <g transform="translate(10.407812 279.566691) scale(0.1 -0.1)">
       <defs>
        <path id="DejaVuSans-2212" d="M 678 2272 
L 4684 2272 
L 4684 1741 
L 678 1741 
L 678 2272 
z
" transform="scale(0.015625)"/>
       </defs>
       <use xlink:href="#DejaVuSans-2212"/>
       <use xlink:href="#DejaVuSans-31" x="83.789062"/>
       <use xlink:href="#DejaVuSans-30" x="147.412109"/>
       <use xlink:href="#DejaVuSans-30" x="211.035156"/>
       <use xlink:href="#DejaVuSans-30" x="274.658203"/>
       <use xlink:href="#DejaVuSans-30" x="338.28125"/>
      </g>
     </g>
    </g>
    <g id="ytick_2">
     <g id="line2d_15">
      <path d="M 57.6 231.222149 
L 414.72 231.222149 
" clip-path="url(#pdf43566f6d)" style="fill: none; stroke: #b0b0b0; stroke-width: 0.8; stroke-linecap: square"/>
     </g>
     <g id="line2d_16">
      <g>
       <use xlink:href="#m671b6a03f7" x="57.6" y="231.222149" style="stroke: #000000; stroke-width: 0.8"/>
      </g>
     </g>
     <g id="text_9">
      <!-- −5000 -->
      <g transform="translate(16.770313 235.021368) scale(0.1 -0.1)">
       <defs>
        <path id="DejaVuSans-35" d="M 691 4666 
L 3169 4666 
L 3169 4134 
L 1269 4134 
L 1269 2991 
Q 1406 3038 1543 3061 
Q 1681 3084 1819 3084 
Q 2600 3084 3056 2656 
Q 3513 2228 3513 1497 
Q 3513 744 3044 326 
Q 2575 -91 1722 -91 
Q 1428 -91 1123 -41 
Q 819 9 494 109 
L 494 744 
Q 775 591 1075 516 
Q 1375 441 1709 441 
Q 2250 441 2565 725 
Q 2881 1009 2881 1497 
Q 2881 1984 2565 2268 
Q 2250 2553 1709 2553 
Q 1456 2553 1204 2497 
Q 953 2441 691 2322 
L 691 4666 
z
" transform="scale(0.015625)"/>
       </defs>
       <use xlink:href="#DejaVuSans-2212"/>
       <use xlink:href="#DejaVuSans-35" x="83.789062"/>
       <use xlink:href="#DejaVuSans-30" x="147.412109"/>
       <use xlink:href="#DejaVuSans-30" x="211.035156"/>
       <use xlink:href="#DejaVuSans-30" x="274.658203"/>
      </g>
     </g>
    </g>
    <g id="ytick_3">
     <g id="line2d_17">
      <path d="M 57.6 186.676826 
L 414.72 186.676826 
" clip-path="url(#pdf43566f6d)" style="fill: none; stroke: #b0b0b0; stroke-width: 0.8; stroke-linecap: square"/>
     </g>
     <g id="line2d_18">
      <g>
       <use xlink:href="#m671b6a03f7" x="57.6" y="186.676826" style="stroke: #000000; stroke-width: 0.8"/>
      </g>
     </g>
     <g id="text_10">
      <!-- 0 -->
      <g transform="translate(44.2375 190.476045) scale(0.1 -0.1)">
       <use xlink:href="#DejaVuSans-30"/>
      </g>
     </g>
    </g>
    <g id="ytick_4">
     <g id="line2d_19">
      <path d="M 57.6 142.131503 
L 414.72 142.131503 
" clip-path="url(#pdf43566f6d)" style="fill: none; stroke: #b0b0b0; stroke-width: 0.8; stroke-linecap: square"/>
     </g>
     <g id="line2d_20">
      <g>
       <use xlink:href="#m671b6a03f7" x="57.6" y="142.131503" style="stroke: #000000; stroke-width: 0.8"/>
      </g>
     </g>
     <g id="text_11">
      <!-- 5000 -->
      <g transform="translate(25.15 145.930722) scale(0.1 -0.1)">
       <use xlink:href="#DejaVuSans-35"/>
       <use xlink:href="#DejaVuSans-30" x="63.623047"/>
       <use xlink:href="#DejaVuSans-30" x="127.246094"/>
       <use xlink:href="#DejaVuSans-30" x="190.869141"/>
      </g>
     </g>
    </g>
    <g id="ytick_5">
     <g id="line2d_21">
      <path d="M 57.6 97.58618 
L 414.72 97.58618 
" clip-path="url(#pdf43566f6d)" style="fill: none; stroke: #b0b0b0; stroke-width: 0.8; stroke-linecap: square"/>
     </g>
     <g id="line2d_22">
      <g>
       <use xlink:href="#m671b6a03f7" x="57.6" y="97.58618" style="stroke: #000000; stroke-width: 0.8"/>
      </g>
     </g>
     <g id="text_12">
      <!-- 10000 -->
      <g transform="translate(18.7875 101.385399) scale(0.1 -0.1)">
       <use xlink:href="#DejaVuSans-31"/>
       <use xlink:href="#DejaVuSans-30" x="63.623047"/>
       <use xlink:href="#DejaVuSans-30" x="127.246094"/>
       <use xlink:href="#DejaVuSans-30" x="190.869141"/>
       <use xlink:href="#DejaVuSans-30" x="254.492188"/>
      </g>
     </g>
    </g>
    <g id="ytick_6">
     <g id="line2d_23">
      <path d="M 57.6 53.040857 
L 414.72 53.040857 
" clip-path="url(#pdf43566f6d)" style="fill: none; stroke: #b0b0b0; stroke-width: 0.8; stroke-linecap: square"/>
     </g>
     <g id="line2d_24">
      <g>
       <use xlink:href="#m671b6a03f7" x="57.6" y="53.040857" style="stroke: #000000; stroke-width: 0.8"/>
      </g>
     </g>
     <g id="text_13">
      <!-- 15000 -->
      <g transform="translate(18.7875 56.840076) scale(0.1 -0.1)">
       <use xlink:href="#DejaVuSans-31"/>
       <use xlink:href="#DejaVuSans-35" x="63.623047"/>
       <use xlink:href="#DejaVuSans-30" x="127.246094"/>
       <use xlink:href="#DejaVuSans-30" x="190.869141"/>
       <use xlink:href="#DejaVuSans-30" x="254.492188"/>
      </g>
     </g>
    </g>
    <g id="text_14">
     <!-- Fitness -->
     <g transform="translate(4.328125 191.845187) rotate(-90) scale(0.1 -0.1)">
      <defs>
       <path id="DejaVuSans-46" d="M 628 4666 
L 3309 4666 
L 3309 4134 
L 1259 4134 
L 1259 2759 
L 3109 2759 
L 3109 2228 
L 1259 2228 
L 1259 0 
L 628 0 
L 628 4666 
z
" transform="scale(0.015625)"/>
      </defs>
      <use xlink:href="#DejaVuSans-46"/>
      <use xlink:href="#DejaVuSans-69" x="50.269531"/>
      <use xlink:href="#DejaVuSans-74" x="78.052734"/>
      <use xlink:href="#DejaVuSans-6e" x="117.261719"/>
      <use xlink:href="#DejaVuSans-65" x="180.640625"/>
      <use xlink:href="#DejaVuSans-73" x="242.164062"/>
      <use xlink:href="#DejaVuSans-73" x="294.263672"/>
     </g>
    </g>
   </g>
   <g id="line2d_25">
    <path d="M 73.832727 225.963667 
L 77.112066 238.578982 
L 80.391405 217.034333 
L 83.670744 244.825362 
L 86.950083 257.851117 
L 90.229421 217.183775 
L 93.50876 196.543059 
L 96.788099 231.839273 
L 100.067438 223.528228 
L 103.346777 220.650366 
L 106.626116 233.013117 
L 109.905455 222.670512 
L 113.184793 221.145587 
L 116.464132 210.247976 
L 119.743471 207.953999 
L 123.02281 225.938976 
L 126.302149 219.965137 
L 129.581488 217.259406 
L 132.860826 214.519708 
L 136.140165 218.63743 
L 139.419504 219.123605 
L 142.698843 223.469755 
L 145.978182 234.704948 
L 149.257521 209.578329 
L 152.53686 232.799305 
L 155.816198 195.700951 
L 159.095537 214.735403 
L 162.374876 194.842843 
L 165.654215 241.688073 
L 168.933554 208.229474 
L 172.212893 226.928655 
L 175.492231 206.587124 
L 178.77157 213.995268 
L 182.050909 209.994892 
L 185.330248 211.548383 
L 188.609587 210.876245 
L 191.888926 221.086792 
L 195.168264 195.567533 
L 198.447603 219.675663 
L 201.726942 210.389104 
L 205.006281 221.960009 
L 208.28562 223.291171 
L 211.564959 196.221097 
L 214.844298 201.423235 
L 218.123636 210.713467 
L 221.402975 216.039463 
L 224.682314 209.992438 
L 227.961653 212.027262 
L 231.240992 206.341892 
L 234.520331 215.99938 
L 237.799669 203.846294 
L 241.079008 196.111466 
L 244.358347 223.623522 
L 247.637686 204.445909 
L 250.917025 195.246757 
L 254.196364 196.769632 
L 257.475702 215.826775 
L 260.755041 217.015608 
L 264.03438 220.869078 
L 267.313719 206.146926 
L 270.593058 222.534081 
L 273.872397 203.177746 
L 277.151736 208.289182 
L 280.431074 195.883276 
L 283.710413 214.661478 
L 286.989752 196.300617 
L 290.269091 205.099455 
L 293.54843 196.40823 
L 296.827769 196.907053 
L 300.107107 220.8855 
L 303.386446 226.400471 
L 306.665785 203.923002 
L 309.945124 196.121918 
L 313.224463 214.371818 
L 316.503802 196.028265 
L 319.78314 222.466602 
L 323.062479 214.771248 
L 326.341818 217.540708 
L 329.621157 211.037783 
L 332.900496 209.307106 
L 336.179835 208.065935 
L 339.459174 208.650016 
L 342.738512 205.348685 
L 346.017851 213.71961 
L 349.29719 221.048626 
L 352.576529 210.384486 
L 355.855868 196.387102 
L 359.135207 195.947308 
L 362.414545 219.644994 
L 365.693884 214.028291 
L 368.973223 210.907344 
L 372.252562 208.056477 
L 375.531901 207.98736 
L 378.81124 226.060075 
L 382.090579 203.792291 
L 385.369917 222.798838 
L 388.649256 199.310406 
L 391.928595 208.644678 
L 395.207934 196.702352 
L 398.487273 228.942167 
" clip-path="url(#pdf43566f6d)" style="fill: none; stroke: #0000ff; stroke-width: 1.5; stroke-linecap: square"/>
   </g>
   <g id="line2d_26">
    <path d="M 73.832727 264.452199 
L 77.112066 281.052498 
L 80.391405 254.906539 
L 83.670744 287.650592 
L 86.950083 295.488 
L 90.229421 254.710601 
L 93.50876 215.757431 
L 96.788099 274.917782 
L 100.067438 264.610759 
L 103.346777 260.661806 
L 106.626116 276.178748 
L 109.905455 263.608076 
L 113.184793 261.6249 
L 116.464132 244.139438 
L 119.743471 240.094363 
L 123.02281 267.367217 
L 126.302149 259.719652 
L 129.581488 255.751336 
L 132.860826 252.268134 
L 136.140165 258.348181 
L 139.419504 258.826935 
L 142.698843 264.424047 
L 145.978182 275.755884 
L 149.257521 241.996117 
L 152.53686 274.005651 
L 155.816198 208.636955 
L 159.095537 251.477694 
L 162.374876 209.156969 
L 165.654215 284.526627 
L 168.933554 239.023863 
L 172.212893 267.054949 
L 175.492231 235.092849 
L 178.77157 250.395057 
L 182.050909 243.386394 
L 185.330248 246.660376 
L 188.609587 245.457533 
L 191.888926 259.867499 
L 195.168264 209.782852 
L 198.447603 258.830052 
L 201.726942 244.083055 
L 205.006281 261.330289 
L 208.28562 261.473733 
L 211.564959 207.697481 
L 214.844298 224.277956 
L 218.123636 244.273318 
L 221.402975 252.257554 
L 224.682314 242.638841 
L 227.961653 245.946355 
L 231.240992 235.491581 
L 234.520331 251.4128 
L 237.799669 229.794863 
L 241.079008 208.166886 
L 244.358347 263.472768 
L 247.637686 230.542421 
L 250.917025 206.731522 
L 254.196364 211.52139 
L 257.475702 252.475378 
L 260.755041 254.127189 
L 264.03438 259.230182 
L 267.313719 234.032816 
L 270.593058 261.731688 
L 273.872397 227.10973 
L 277.151736 238.311464 
L 280.431074 206.958577 
L 283.710413 249.646371 
L 286.989752 209.321088 
L 290.269091 232.094371 
L 293.54843 210.890494 
L 296.827769 212.407588 
L 300.107107 259.454356 
L 303.386446 267.368678 
L 306.665785 228.441644 
L 309.945124 207.700306 
L 313.224463 249.075086 
L 316.503802 209.226047 
L 319.78314 262.519497 
L 323.062479 250.938261 
L 326.341818 254.795946 
L 329.621157 244.312965 
L 332.900496 240.761675 
L 336.179835 239.33514 
L 339.459174 239.508563 
L 342.738512 233.332805 
L 346.017851 248.06527 
L 349.29719 259.255843 
L 352.576529 241.740665 
L 355.855868 207.150268 
L 359.135207 208.382323 
L 362.414545 258.001701 
L 365.693884 249.251873 
L 368.973223 243.986127 
L 372.252562 239.236338 
L 375.531901 238.837844 
L 378.81124 266.329553 
L 382.090579 229.457391 
L 385.369917 261.630924 
L 388.649256 218.415081 
L 391.928595 239.519052 
L 395.207934 210.94893 
L 398.487273 270.145925 
" clip-path="url(#pdf43566f6d)" style="fill: none; stroke-dasharray: 9.6,2.4,1.5,2.4; stroke-dashoffset: 0; stroke: #008000; stroke-width: 1.5"/>
   </g>
   <g id="line2d_27">
    <path d="M 73.832727 187.475135 
L 77.112066 196.105466 
L 80.391405 179.162126 
L 83.670744 202.000132 
L 86.950083 220.214234 
L 90.229421 179.656948 
L 93.50876 177.328687 
L 96.788099 188.760764 
L 100.067438 182.445696 
L 103.346777 180.638925 
L 106.626116 189.847486 
L 109.905455 181.732948 
L 113.184793 180.666274 
L 116.464132 176.356514 
L 119.743471 175.813635 
L 123.02281 184.510736 
L 126.302149 180.210623 
L 129.581488 178.767476 
L 132.860826 176.771282 
L 136.140165 178.926679 
L 139.419504 179.420276 
L 142.698843 182.515464 
L 145.978182 193.654012 
L 149.257521 177.160541 
L 152.53686 191.59296 
L 155.816198 182.764947 
L 159.095537 177.993113 
L 162.374876 180.528718 
L 165.654215 198.849519 
L 168.933554 177.435085 
L 172.212893 186.802362 
L 175.492231 178.081398 
L 178.77157 177.59548 
L 182.050909 176.60339 
L 185.330248 176.436389 
L 188.609587 176.294957 
L 191.888926 182.306085 
L 195.168264 181.352215 
L 198.447603 180.521275 
L 201.726942 176.695154 
L 205.006281 182.589729 
L 208.28562 185.108609 
L 211.564959 184.744713 
L 214.844298 178.568514 
L 218.123636 177.153616 
L 221.402975 179.821372 
L 224.682314 177.346036 
L 227.961653 178.108169 
L 231.240992 177.192202 
L 234.520331 180.585959 
L 237.799669 177.897726 
L 241.079008 184.056046 
L 244.358347 183.774276 
L 247.637686 178.349397 
L 250.917025 183.761991 
L 254.196364 182.017874 
L 257.475702 179.178172 
L 260.755041 179.904028 
L 264.03438 182.507975 
L 267.313719 178.261035 
L 270.593058 183.336474 
L 273.872397 179.245761 
L 277.151736 178.266901 
L 280.431074 184.807975 
L 283.710413 179.676586 
L 286.989752 183.280146 
L 290.269091 178.104539 
L 293.54843 181.925966 
L 296.827769 181.406518 
L 300.107107 182.316644 
L 303.386446 185.432263 
L 306.665785 179.404359 
L 309.945124 184.54353 
L 313.224463 179.66855 
L 316.503802 182.830484 
L 319.78314 182.413707 
L 323.062479 178.604235 
L 326.341818 180.28547 
L 329.621157 177.7626 
L 332.900496 177.852536 
L 336.179835 176.79673 
L 339.459174 177.79147 
L 342.738512 177.364565 
L 346.017851 179.37395 
L 349.29719 182.841409 
L 352.576529 179.028307 
L 355.855868 185.623935 
L 359.135207 183.512293 
L 362.414545 181.288288 
L 365.693884 178.804709 
L 368.973223 177.828561 
L 372.252562 176.876617 
L 375.531901 177.136876 
L 378.81124 185.790597 
L 382.090579 178.127191 
L 385.369917 183.966753 
L 388.649256 180.205732 
L 391.928595 177.770304 
L 395.207934 182.455774 
L 398.487273 187.738408 
" clip-path="url(#pdf43566f6d)" style="fill: none; stroke-dasharray: 9.6,2.4,1.5,2.4; stroke-dashoffset: 0; stroke: #008000; stroke-width: 1.5"/>
   </g>
   <g id="line2d_28">
    <path d="M 73.832727 184.761124 
L 77.112066 183.379807 
L 80.391405 184.671918 
L 83.670744 176.733783 
L 86.950083 139.647198 
L 90.229421 176.172348 
L 93.50876 182.17749 
L 96.788099 172.465854 
L 100.067438 53.568 
L 103.346777 180.751665 
L 106.626116 136.911895 
L 109.905455 184.867156 
L 113.184793 175.521708 
L 116.464132 175.869424 
L 119.743471 184.841431 
L 123.02281 184.80562 
L 126.302149 184.324248 
L 129.581488 179.726648 
L 132.860826 181.1615 
L 136.140165 175.503793 
L 139.419504 177.748982 
L 142.698843 57.567477 
L 145.978182 130.967808 
L 149.257521 185.108385 
L 152.53686 140.572376 
L 155.816198 183.772194 
L 159.095537 184.912152 
L 162.374876 183.513831 
L 165.654215 130.228376 
L 168.933554 184.974045 
L 172.212893 160.536966 
L 175.492231 175.048972 
L 178.77157 184.297279 
L 182.050909 184.680756 
L 185.330248 176.803735 
L 188.609587 175.031616 
L 191.888926 128.713696 
L 195.168264 184.73437 
L 198.447603 180.288362 
L 201.726942 178.434904 
L 205.006281 180.181299 
L 208.28562 132.500611 
L 211.564959 184.894139 
L 214.844298 184.484623 
L 218.123636 176.073787 
L 221.402975 185.500204 
L 224.682314 185.126209 
L 227.961653 184.680238 
L 231.240992 177.874033 
L 234.520331 185.251513 
L 237.799669 180.32404 
L 241.079008 182.026024 
L 244.358347 138.780899 
L 247.637686 185.01922 
L 250.917025 185.055046 
L 254.196364 182.177451 
L 257.475702 184.760391 
L 260.755041 183.807136 
L 264.03438 131.315077 
L 267.313719 185.464807 
L 270.593058 184.182422 
L 273.872397 184.600526 
L 277.151736 184.555847 
L 280.431074 185.072815 
L 283.710413 175.74457 
L 286.989752 185.019345 
L 290.269091 184.529246 
L 293.54843 185.179809 
L 296.827769 185.019437 
L 300.107107 185.019162 
L 303.386446 185.295788 
L 306.665785 185.001302 
L 309.945124 185.1798 
L 313.224463 184.956969 
L 316.503802 185.019444 
L 319.78314 184.386583 
L 323.062479 184.778293 
L 326.341818 185.134749 
L 329.621157 185.41091 
L 332.900496 184.635958 
L 336.179835 184.71609 
L 339.459174 184.849525 
L 342.738512 182.818772 
L 346.017851 183.539842 
L 349.29719 136.261031 
L 352.576529 185.07277 
L 355.855868 185.046182 
L 359.135207 184.974823 
L 362.414545 184.894718 
L 365.693884 183.584479 
L 368.973223 173.499361 
L 372.252562 184.253011 
L 375.531901 183.53985 
L 378.81124 134.176588 
L 382.090579 185.152657 
L 385.369917 137.294518 
L 388.649256 184.484853 
L 391.928595 184.823161 
L 395.207934 182.177461 
L 398.487273 185.305695 
" clip-path="url(#pdf43566f6d)" style="fill: none; stroke: #ff0000; stroke-width: 1.5; stroke-linecap: square"/>
   </g>
   <g id="patch_3">
    <path d="M 57.6 307.584 
L 57.6 41.472 
" style="fill: none; stroke: #000000; stroke-width: 0.8; stroke-linejoin: miter; stroke-linecap: square"/>
   </g>
   <g id="patch_4">
    <path d="M 414.72 307.584 
L 414.72 41.472 
" style="fill: none; stroke: #000000; stroke-width: 0.8; stroke-linejoin: miter; stroke-linecap: square"/>
   </g>
   <g id="patch_5">
    <path d="M 57.6 307.584 
L 414.72 307.584 
" style="fill: none; stroke: #000000; stroke-width: 0.8; stroke-linejoin: miter; stroke-linecap: square"/>
   </g>
   <g id="patch_6">
    <path d="M 57.6 41.472 
L 414.72 41.472 
" style="fill: none; stroke: #000000; stroke-width: 0.8; stroke-linejoin: miter; stroke-linecap: square"/>
   </g>
   <g id="text_15">
    <!-- Population's average and best fitness -->
    <g transform="translate(123.529687 35.472) scale(0.12 -0.12)">
     <defs>
      <path id="DejaVuSans-50" d="M 1259 4147 
L 1259 2394 
L 2053 2394 
Q 2494 2394 2734 2622 
Q 2975 2850 2975 3272 
Q 2975 3691 2734 3919 
Q 2494 4147 2053 4147 
L 1259 4147 
z
M 628 4666 
L 2053 4666 
Q 2838 4666 3239 4311 
Q 3641 3956 3641 3272 
Q 3641 2581 3239 2228 
Q 2838 1875 2053 1875 
L 1259 1875 
L 1259 0 
L 628 0 
L 628 4666 
z
" transform="scale(0.015625)"/>
      <path id="DejaVuSans-70" d="M 1159 525 
L 1159 -1331 
L 581 -1331 
L 581 3500 
L 1159 3500 
L 1159 2969 
Q 1341 3281 1617 3432 
Q 1894 3584 2278 3584 
Q 2916 3584 3314 3078 
Q 3713 2572 3713 1747 
Q 3713 922 3314 415 
Q 2916 -91 2278 -91 
Q 1894 -91 1617 61 
Q 1341 213 1159 525 
z
M 3116 1747 
Q 3116 2381 2855 2742 
Q 2594 3103 2138 3103 
Q 1681 3103 1420 2742 
Q 1159 2381 1159 1747 
Q 1159 1113 1420 752 
Q 1681 391 2138 391 
Q 2594 391 2855 752 
Q 3116 1113 3116 1747 
z
" transform="scale(0.015625)"/>
      <path id="DejaVuSans-75" d="M 544 1381 
L 544 3500 
L 1119 3500 
L 1119 1403 
Q 1119 906 1312 657 
Q 1506 409 1894 409 
Q 2359 409 2629 706 
Q 2900 1003 2900 1516 
L 2900 3500 
L 3475 3500 
L 3475 0 
L 2900 0 
L 2900 538 
Q 2691 219 2414 64 
Q 2138 -91 1772 -91 
Q 1169 -91 856 284 
Q 544 659 544 1381 
z
M 1991 3584 
L 1991 3584 
z
" transform="scale(0.015625)"/>
      <path id="DejaVuSans-6c" d="M 603 4863 
L 1178 4863 
L 1178 0 
L 603 0 
L 603 4863 
z
" transform="scale(0.015625)"/>
      <path id="DejaVuSans-27" d="M 1147 4666 
L 1147 2931 
L 616 2931 
L 616 4666 
L 1147 4666 
z
" transform="scale(0.015625)"/>
      <path id="DejaVuSans-20" transform="scale(0.015625)"/>
      <path id="DejaVuSans-76" d="M 191 3500 
L 800 3500 
L 1894 563 
L 2988 3500 
L 3597 3500 
L 2284 0 
L 1503 0 
L 191 3500 
z
" transform="scale(0.015625)"/>
      <path id="DejaVuSans-67" d="M 2906 1791 
Q 2906 2416 2648 2759 
Q 2391 3103 1925 3103 
Q 1463 3103 1205 2759 
Q 947 2416 947 1791 
Q 947 1169 1205 825 
Q 1463 481 1925 481 
Q 2391 481 2648 825 
Q 2906 1169 2906 1791 
z
M 3481 434 
Q 3481 -459 3084 -895 
Q 2688 -1331 1869 -1331 
Q 1566 -1331 1297 -1286 
Q 1028 -1241 775 -1147 
L 775 -588 
Q 1028 -725 1275 -790 
Q 1522 -856 1778 -856 
Q 2344 -856 2625 -561 
Q 2906 -266 2906 331 
L 2906 616 
Q 2728 306 2450 153 
Q 2172 0 1784 0 
Q 1141 0 747 490 
Q 353 981 353 1791 
Q 353 2603 747 3093 
Q 1141 3584 1784 3584 
Q 2172 3584 2450 3431 
Q 2728 3278 2906 2969 
L 2906 3500 
L 3481 3500 
L 3481 434 
z
" transform="scale(0.015625)"/>
      <path id="DejaVuSans-64" d="M 2906 2969 
L 2906 4863 
L 3481 4863 
L 3481 0 
L 2906 0 
L 2906 525 
Q 2725 213 2448 61 
Q 2172 -91 1784 -91 
Q 1150 -91 751 415 
Q 353 922 353 1747 
Q 353 2572 751 3078 
Q 1150 3584 1784 3584 
Q 2172 3584 2448 3432 
Q 2725 3281 2906 2969 
z
M 947 1747 
Q 947 1113 1208 752 
Q 1469 391 1925 391 
Q 2381 391 2643 752 
Q 2906 1113 2906 1747 
Q 2906 2381 2643 2742 
Q 2381 3103 1925 3103 
Q 1469 3103 1208 2742 
Q 947 2381 947 1747 
z
" transform="scale(0.015625)"/>
      <path id="DejaVuSans-62" d="M 3116 1747 
Q 3116 2381 2855 2742 
Q 2594 3103 2138 3103 
Q 1681 3103 1420 2742 
Q 1159 2381 1159 1747 
Q 1159 1113 1420 752 
Q 1681 391 2138 391 
Q 2594 391 2855 752 
Q 3116 1113 3116 1747 
z
M 1159 2969 
Q 1341 3281 1617 3432 
Q 1894 3584 2278 3584 
Q 2916 3584 3314 3078 
Q 3713 2572 3713 1747 
Q 3713 922 3314 415 
Q 2916 -91 2278 -91 
Q 1894 -91 1617 61 
Q 1341 213 1159 525 
L 1159 0 
L 581 0 
L 581 4863 
L 1159 4863 
L 1159 2969 
z
" transform="scale(0.015625)"/>
      <path id="DejaVuSans-66" d="M 2375 4863 
L 2375 4384 
L 1825 4384 
Q 1516 4384 1395 4259 
Q 1275 4134 1275 3809 
L 1275 3500 
L 2222 3500 
L 2222 3053 
L 1275 3053 
L 1275 0 
L 697 0 
L 697 3053 
L 147 3053 
L 147 3500 
L 697 3500 
L 697 3744 
Q 697 4328 969 4595 
Q 1241 4863 1831 4863 
L 2375 4863 
z
" transform="scale(0.015625)"/>
     </defs>
     <use xlink:href="#DejaVuSans-50"/>
     <use xlink:href="#DejaVuSans-6f" x="56.677734"/>
     <use xlink:href="#DejaVuSans-70" x="117.859375"/>
     <use xlink:href="#DejaVuSans-75" x="181.335938"/>
     <use xlink:href="#DejaVuSans-6c" x="244.714844"/>
     <use xlink:href="#DejaVuSans-61" x="272.498047"/>
     <use xlink:href="#DejaVuSans-74" x="333.777344"/>
     <use xlink:href="#DejaVuSans-69" x="372.986328"/>
     <use xlink:href="#DejaVuSans-6f" x="400.769531"/>
     <use xlink:href="#DejaVuSans-6e" x="461.951172"/>
     <use xlink:href="#DejaVuSans-27" x="525.330078"/>
     <use xlink:href="#DejaVuSans-73" x="552.820312"/>
     <use xlink:href="#DejaVuSans-20" x="604.919922"/>
     <use xlink:href="#DejaVuSans-61" x="636.707031"/>
     <use xlink:href="#DejaVuSans-76" x="697.986328"/>
     <use xlink:href="#DejaVuSans-65" x="757.166016"/>
     <use xlink:href="#DejaVuSans-72" x="818.689453"/>
     <use xlink:href="#DejaVuSans-61" x="859.802734"/>
     <use xlink:href="#DejaVuSans-67" x="921.082031"/>
     <use xlink:href="#DejaVuSans-65" x="984.558594"/>
     <use xlink:href="#DejaVuSans-20" x="1046.082031"/>
     <use xlink:href="#DejaVuSans-61" x="1077.869141"/>
     <use xlink:href="#DejaVuSans-6e" x="1139.148438"/>
     <use xlink:href="#DejaVuSans-64" x="1202.527344"/>
     <use xlink:href="#DejaVuSans-20" x="1266.003906"/>
     <use xlink:href="#DejaVuSans-62" x="1297.791016"/>
     <use xlink:href="#DejaVuSans-65" x="1361.267578"/>
     <use xlink:href="#DejaVuSans-73" x="1422.791016"/>
     <use xlink:href="#DejaVuSans-74" x="1474.890625"/>
     <use xlink:href="#DejaVuSans-20" x="1514.099609"/>
     <use xlink:href="#DejaVuSans-66" x="1545.886719"/>
     <use xlink:href="#DejaVuSans-69" x="1581.091797"/>
     <use xlink:href="#DejaVuSans-74" x="1608.875"/>
     <use xlink:href="#DejaVuSans-6e" x="1648.083984"/>
     <use xlink:href="#DejaVuSans-65" x="1711.462891"/>
     <use xlink:href="#DejaVuSans-73" x="1772.986328"/>
     <use xlink:href="#DejaVuSans-73" x="1825.085938"/>
    </g>
   </g>
   <g id="legend_1">
    <g id="patch_7">
     <path d="M 334.779375 108.1845 
L 407.72 108.1845 
Q 409.72 108.1845 409.72 106.1845 
L 409.72 48.472 
Q 409.72 46.472 407.72 46.472 
L 334.779375 46.472 
Q 332.779375 46.472 332.779375 48.472 
L 332.779375 106.1845 
Q 332.779375 108.1845 334.779375 108.1845 
z
" style="fill: #ffffff; opacity: 0.8; stroke: #cccccc; stroke-linejoin: miter"/>
    </g>
    <g id="line2d_29">
     <path d="M 336.779375 54.570438 
L 346.779375 54.570438 
L 356.779375 54.570438 
" style="fill: none; stroke: #0000ff; stroke-width: 1.5; stroke-linecap: square"/>
    </g>
    <g id="text_16">
     <!-- average -->
     <g transform="translate(364.779375 58.070438) scale(0.1 -0.1)">
      <use xlink:href="#DejaVuSans-61"/>
      <use xlink:href="#DejaVuSans-76" x="61.279297"/>
      <use xlink:href="#DejaVuSans-65" x="120.458984"/>
      <use xlink:href="#DejaVuSans-72" x="181.982422"/>
      <use xlink:href="#DejaVuSans-61" x="223.095703"/>
      <use xlink:href="#DejaVuSans-67" x="284.375"/>
      <use xlink:href="#DejaVuSans-65" x="347.851562"/>
     </g>
    </g>
    <g id="line2d_30">
     <path d="M 336.779375 69.248563 
L 346.779375 69.248563 
L 356.779375 69.248563 
" style="fill: none; stroke-dasharray: 9.6,2.4,1.5,2.4; stroke-dashoffset: 0; stroke: #008000; stroke-width: 1.5"/>
    </g>
    <g id="text_17">
     <!-- -1 sd -->
     <g transform="translate(364.779375 72.748563) scale(0.1 -0.1)">
      <defs>
       <path id="DejaVuSans-2d" d="M 313 2009 
L 1997 2009 
L 1997 1497 
L 313 1497 
L 313 2009 
z
" transform="scale(0.015625)"/>
      </defs>
      <use xlink:href="#DejaVuSans-2d"/>
      <use xlink:href="#DejaVuSans-31" x="36.083984"/>
      <use xlink:href="#DejaVuSans-20" x="99.707031"/>
      <use xlink:href="#DejaVuSans-73" x="131.494141"/>
      <use xlink:href="#DejaVuSans-64" x="183.59375"/>
     </g>
    </g>
    <g id="line2d_31">
     <path d="M 336.779375 83.926688 
L 346.779375 83.926688 
L 356.779375 83.926688 
" style="fill: none; stroke-dasharray: 9.6,2.4,1.5,2.4; stroke-dashoffset: 0; stroke: #008000; stroke-width: 1.5"/>
    </g>
    <g id="text_18">
     <!-- +1 sd -->
     <g transform="translate(364.779375 87.426688) scale(0.1 -0.1)">
      <defs>
       <path id="DejaVuSans-2b" d="M 2944 4013 
L 2944 2272 
L 4684 2272 
L 4684 1741 
L 2944 1741 
L 2944 0 
L 2419 0 
L 2419 1741 
L 678 1741 
L 678 2272 
L 2419 2272 
L 2419 4013 
L 2944 4013 
z
" transform="scale(0.015625)"/>
      </defs>
      <use xlink:href="#DejaVuSans-2b"/>
      <use xlink:href="#DejaVuSans-31" x="83.789062"/>
      <use xlink:href="#DejaVuSans-20" x="147.412109"/>
      <use xlink:href="#DejaVuSans-73" x="179.199219"/>
      <use xlink:href="#DejaVuSans-64" x="231.298828"/>
     </g>
    </g>
    <g id="line2d_32">
     <path d="M 336.779375 98.604813 
L 346.779375 98.604813 
L 356.779375 98.604813 
" style="fill: none; stroke: #ff0000; stroke-width: 1.5; stroke-linecap: square"/>
    </g>
    <g id="text_19">
     <!-- best -->
     <g transform="translate(364.779375 102.104813) scale(0.1 -0.1)">
      <use xlink:href="#DejaVuSans-62"/>
      <use xlink:href="#DejaVuSans-65" x="63.476562"/>
      <use xlink:href="#DejaVuSans-73" x="125"/>
      <use xlink:href="#DejaVuSans-74" x="177.099609"/>
     </g>
    </g>
   </g>
  </g>
 </g>
 <defs>
  <clipPath id="pdf43566f6d">
   <rect x="57.6" y="41.472" width="357.12" height="266.112"/>
  </clipPath>
 </defs>
</svg>
