<?xml version="1.0" encoding="UTF-8" standalone="no"?>
<!DOCTYPE svg PUBLIC "-//W3C//DTD SVG 1.1//EN"
 "http://www.w3.org/Graphics/SVG/1.1/DTD/svg11.dtd">
<!-- Generated by graphviz version 7.1.0 (20230121.1956)
 -->
<!-- Pages: 1 -->
<svg width="935pt" height="143pt"
 viewBox="0.00 0.00 934.66 142.99" xmlns="http://www.w3.org/2000/svg" xmlns:xlink="http://www.w3.org/1999/xlink">
<g id="graph0" class="graph" transform="scale(1 1) rotate(0) translate(4 138.99)">
<polygon fill="white" stroke="none" points="-4,4 -4,-138.99 930.66,-138.99 930.66,4 -4,4"/>
<!-- is food up -->
<g id="node1" class="node">
<title>is food up</title>
<polygon fill="lightgray" stroke="black" points="53,-117.83 0,-117.83 0,-99.83 53,-99.83 53,-117.83"/>
<text text-anchor="middle" x="26.5" y="-106.63" font-family="Times New Roman,serif" font-size="9.00">is food up</text>
</g>
<!-- life pos y -->
<g id="node2" class="node">
<title>life pos y</title>
<polygon fill="lightgray" stroke="black" points="122,-117.83 71,-117.83 71,-99.83 122,-99.83 122,-117.83"/>
<text text-anchor="middle" x="96.5" y="-106.63" font-family="Times New Roman,serif" font-size="9.00">life pos y</text>
</g>
<!-- near bottom -->
<g id="node3" class="node">
<title>near bottom</title>
<polygon fill="lightgray" stroke="black" points="200.5,-117.83 140.5,-117.83 140.5,-99.83 200.5,-99.83 200.5,-117.83"/>
<text text-anchor="middle" x="170.5" y="-106.63" font-family="Times New Roman,serif" font-size="9.00">near bottom</text>
</g>
<!-- is food down -->
<g id="node4" class="node">
<title>is food down</title>
<polygon fill="lightgray" stroke="black" points="282.5,-117.83 218.5,-117.83 218.5,-99.83 282.5,-99.83 282.5,-117.83"/>
<text text-anchor="middle" x="250.5" y="-106.63" font-family="Times New Roman,serif" font-size="9.00">is food down</text>
</g>
<!-- right -->
<g id="node15" class="node">
<title>right</title>
<ellipse fill="lightblue" stroke="black" cx="250.5" cy="-23.33" rx="23.17" ry="23.17"/>
<text text-anchor="middle" x="250.5" y="-21.13" font-family="Times New Roman,serif" font-size="9.00">right</text>
</g>
<!-- is food down&#45;&gt;right -->
<g id="edge1" class="edge">
<title>is food down&#45;&gt;right</title>
<path fill="none" stroke="green" stroke-width="0.33" d="M250.5,-99.52C250.5,-89.6 250.5,-72.41 250.5,-56.97"/>
<polygon fill="green" stroke="green" stroke-width="0.33" points="254,-57.17 250.5,-47.17 247,-57.17 254,-57.17"/>
</g>
<!-- near top -->
<g id="node5" class="node">
<title>near top</title>
<polygon fill="lightgray" stroke="black" points="348,-117.83 301,-117.83 301,-99.83 348,-99.83 348,-117.83"/>
<text text-anchor="middle" x="324.5" y="-106.63" font-family="Times New Roman,serif" font-size="9.00">near top</text>
</g>
<!-- left -->
<g id="node14" class="node">
<title>left</title>
<ellipse fill="lightblue" stroke="black" cx="324.5" cy="-23.33" rx="20.51" ry="20.51"/>
<text text-anchor="middle" x="324.5" y="-21.13" font-family="Times New Roman,serif" font-size="9.00">left</text>
</g>
<!-- near top&#45;&gt;left -->
<g id="edge2" class="edge">
<title>near top&#45;&gt;left</title>
<path fill="none" stroke="red" stroke-width="0.57" d="M324.5,-99.52C324.5,-89.13 324.5,-70.77 324.5,-54.79"/>
<polygon fill="red" stroke="red" stroke-width="0.57" points="328,-55.1 324.5,-45.1 321,-55.1 328,-55.1"/>
</g>
<!-- is food right -->
<g id="node6" class="node">
<title>is food right</title>
<polygon fill="lightgray" stroke="black" points="426.5,-117.83 366.5,-117.83 366.5,-99.83 426.5,-99.83 426.5,-117.83"/>
<text text-anchor="middle" x="396.5" y="-106.63" font-family="Times New Roman,serif" font-size="9.00">is food right</text>
</g>
<!-- near edge right -->
<g id="node7" class="node">
<title>near edge right</title>
<polygon fill="lightgray" stroke="black" points="512.5,-117.83 444.5,-117.83 444.5,-99.83 512.5,-99.83 512.5,-117.83"/>
<text text-anchor="middle" x="478.5" y="-106.63" font-family="Times New Roman,serif" font-size="9.00">near edge right</text>
</g>
<!-- life pos x -->
<g id="node8" class="node">
<title>life pos x</title>
<polygon fill="lightgray" stroke="black" points="580.5,-117.83 530.5,-117.83 530.5,-99.83 580.5,-99.83 580.5,-117.83"/>
<text text-anchor="middle" x="555.5" y="-106.63" font-family="Times New Roman,serif" font-size="9.00">life pos x</text>
</g>
<!-- near edge left -->
<g id="node9" class="node">
<title>near edge left</title>
<polygon fill="lightgray" stroke="black" points="662.5,-117.83 598.5,-117.83 598.5,-99.83 662.5,-99.83 662.5,-117.83"/>
<text text-anchor="middle" x="630.5" y="-106.63" font-family="Times New Roman,serif" font-size="9.00">near edge left</text>
</g>
<!-- is food left -->
<g id="node10" class="node">
<title>is food left</title>
<polygon fill="lightgray" stroke="black" points="736.5,-117.83 680.5,-117.83 680.5,-99.83 736.5,-99.83 736.5,-117.83"/>
<text text-anchor="middle" x="708.5" y="-106.63" font-family="Times New Roman,serif" font-size="9.00">is food left</text>
</g>
<!-- stop -->
<g id="node11" class="node">
<title>stop</title>
<ellipse fill="lightblue" stroke="black" cx="777.5" cy="-108.83" rx="23.17" ry="23.17"/>
<text text-anchor="middle" x="777.5" y="-106.63" font-family="Times New Roman,serif" font-size="9.00">stop</text>
</g>
<!-- up -->
<g id="node12" class="node">
<title>up</title>
<ellipse fill="lightblue" stroke="black" cx="837.5" cy="-108.83" rx="18.27" ry="18.27"/>
<text text-anchor="middle" x="837.5" y="-106.63" font-family="Times New Roman,serif" font-size="9.00">up</text>
</g>
<!-- down -->
<g id="node13" class="node">
<title>down</title>
<ellipse fill="lightblue" stroke="black" cx="900.5" cy="-108.83" rx="26.33" ry="26.33"/>
<text text-anchor="middle" x="900.5" y="-106.63" font-family="Times New Roman,serif" font-size="9.00">down</text>
</g>
</g>
</svg>
