<?xml version="1.0" encoding="UTF-8" standalone="no"?>
<!DOCTYPE svg PUBLIC "-//W3C//DTD SVG 1.1//EN"
 "http://www.w3.org/Graphics/SVG/1.1/DTD/svg11.dtd">
<!-- Generated by graphviz version 7.1.0 (20230121.1956)
 -->
<!-- Pages: 1 -->
<svg width="339pt" height="300pt"
 viewBox="0.00 0.00 338.72 299.85" xmlns="http://www.w3.org/2000/svg" xmlns:xlink="http://www.w3.org/1999/xlink">
<g id="graph0" class="graph" transform="scale(1 1) rotate(0) translate(4 295.85)">
<polygon fill="white" stroke="none" points="-4,4 -4,-295.85 334.72,-295.85 334.72,4 -4,4"/>
<!-- pos y -->
<g id="node1" class="node">
<title>pos y</title>
<polygon fill="lightgray" stroke="black" points="137.51,-279.63 99.51,-279.63 99.51,-261.63 137.51,-261.63 137.51,-279.63"/>
<text text-anchor="middle" x="118.51" y="-268.43" font-family="Times New Roman,serif" font-size="9.00">pos y</text>
</g>
<!-- down -->
<g id="node6" class="node">
<title>down</title>
<ellipse fill="lightblue" stroke="black" cx="237.51" cy="-187.26" rx="26.33" ry="26.33"/>
<text text-anchor="middle" x="237.51" y="-185.06" font-family="Times New Roman,serif" font-size="9.00">down</text>
</g>
<!-- pos y&#45;&gt;down -->
<g id="edge4" class="edge">
<title>pos y&#45;&gt;down</title>
<path fill="none" stroke="red" stroke-width="0.61" d="M129.85,-261.23C134.9,-257.55 140.96,-253.2 146.51,-249.42 170.95,-232.76 178.04,-230.06 202.51,-213.42 204.22,-212.25 205.98,-211.04 207.75,-209.81"/>
<polygon fill="red" stroke="red" stroke-width="0.61" points="209.64,-212.76 215.78,-204.13 205.6,-207.05 209.64,-212.76"/>
</g>
<!-- left -->
<g id="node7" class="node">
<title>left</title>
<ellipse fill="lightblue" stroke="black" cx="20.51" cy="-187.26" rx="20.51" ry="20.51"/>
<text text-anchor="middle" x="20.51" y="-185.06" font-family="Times New Roman,serif" font-size="9.00">left</text>
</g>
<!-- pos y&#45;&gt;left -->
<g id="edge3" class="edge">
<title>pos y&#45;&gt;left</title>
<path fill="none" stroke="green" stroke-width="0.19" d="M108.39,-261.23C93.19,-248.61 64.07,-224.43 43.52,-207.37"/>
<polygon fill="green" stroke="green" stroke-width="0.19" points="46,-204.88 36.07,-201.18 41.53,-210.26 46,-204.88"/>
</g>
<!-- right -->
<g id="node8" class="node">
<title>right</title>
<ellipse fill="lightblue" stroke="black" cx="118.51" cy="-101.76" rx="23.17" ry="23.17"/>
<text text-anchor="middle" x="118.51" y="-99.56" font-family="Times New Roman,serif" font-size="9.00">right</text>
</g>
<!-- pos y&#45;&gt;right -->
<g id="edge1" class="edge">
<title>pos y&#45;&gt;right</title>
<path fill="none" stroke="red" stroke-width="0.16" stroke-dasharray="1,5" d="M112.43,-261.41C105.08,-250.91 93.12,-231.88 88.51,-213.42 82.86,-190.86 83.03,-183.7 88.51,-161.1 91.06,-150.55 95.86,-139.78 100.89,-130.41"/>
<polygon fill="red" stroke="red" stroke-width="0.16" points="103.9,-132.19 105.8,-121.77 97.82,-128.73 103.9,-132.19"/>
</g>
<!-- 246 -->
<g id="node10" class="node">
<title>246</title>
<ellipse fill="white" stroke="black" cx="118.51" cy="-187.26" rx="21.43" ry="21.43"/>
<text text-anchor="middle" x="118.51" y="-185.06" font-family="Times New Roman,serif" font-size="9.00">246</text>
</g>
<!-- pos y&#45;&gt;246 -->
<g id="edge9" class="edge">
<title>pos y&#45;&gt;246</title>
<path fill="none" stroke="red" stroke-width="0.2" d="M118.51,-261.23C118.51,-251.33 118.51,-234.32 118.51,-219.21"/>
<polygon fill="red" stroke="red" stroke-width="0.2" points="122.01,-219.47 118.51,-209.47 115.01,-219.47 122.01,-219.47"/>
</g>
<!-- 223 -->
<g id="node12" class="node">
<title>223</title>
<ellipse fill="white" stroke="black" cx="302.51" cy="-187.26" rx="21.43" ry="21.43"/>
<text text-anchor="middle" x="302.51" y="-185.06" font-family="Times New Roman,serif" font-size="9.00">223</text>
</g>
<!-- pos y&#45;&gt;223 -->
<g id="edge7" class="edge">
<title>pos y&#45;&gt;223</title>
<path fill="none" stroke="green" stroke-width="0.16" d="M128.34,-261.24C133.48,-257.2 140.03,-252.56 146.51,-249.42 198.9,-223.99 221.07,-240.73 272.51,-213.42 274.98,-212.11 277.44,-210.56 279.82,-208.9"/>
<polygon fill="green" stroke="green" stroke-width="0.16" points="281.58,-211.96 287.34,-203.07 277.29,-206.43 281.58,-211.96"/>
</g>
<!-- food rel pos -->
<g id="node2" class="node">
<title>food rel pos</title>
<polygon fill="lightgray" stroke="black" points="215.51,-279.63 155.51,-279.63 155.51,-261.63 215.51,-261.63 215.51,-279.63"/>
<text text-anchor="middle" x="185.51" y="-268.43" font-family="Times New Roman,serif" font-size="9.00">food rel pos</text>
</g>
<!-- pos x -->
<g id="node3" class="node">
<title>pos x</title>
<polygon fill="lightgray" stroke="black" points="193.51,-196.26 157.51,-196.26 157.51,-178.26 193.51,-178.26 193.51,-196.26"/>
<text text-anchor="middle" x="175.51" y="-185.06" font-family="Times New Roman,serif" font-size="9.00">pos x</text>
</g>
<!-- pos x&#45;&gt;right -->
<g id="edge2" class="edge">
<title>pos x&#45;&gt;right</title>
<path fill="none" stroke="green" stroke-width="0.25" d="M169.83,-177.95C162.21,-166.78 148.29,-146.39 136.87,-129.66"/>
<polygon fill="green" stroke="green" stroke-width="0.25" points="139.91,-127.91 131.38,-121.62 134.13,-131.85 139.91,-127.91"/>
</g>
<!-- 168 -->
<g id="node9" class="node">
<title>168</title>
<ellipse fill="white" stroke="black" cx="238.51" cy="-21.21" rx="21.43" ry="21.43"/>
<text text-anchor="middle" x="238.51" y="-19.01" font-family="Times New Roman,serif" font-size="9.00">168</text>
</g>
<!-- pos x&#45;&gt;168 -->
<g id="edge5" class="edge">
<title>pos x&#45;&gt;168</title>
<path fill="none" stroke="green" stroke-width="0.28" d="M178.72,-177.9C187.58,-154.82 212.69,-89.42 227.4,-51.13"/>
<polygon fill="green" stroke="green" stroke-width="0.28" points="230.61,-52.55 230.92,-41.96 224.07,-50.04 230.61,-52.55"/>
</g>
<!-- stop -->
<g id="node4" class="node">
<title>stop</title>
<ellipse fill="lightblue" stroke="black" cx="283.51" cy="-101.76" rx="23.17" ry="23.17"/>
<text text-anchor="middle" x="283.51" y="-99.56" font-family="Times New Roman,serif" font-size="9.00">stop</text>
</g>
<!-- stop&#45;&gt;168 -->
<g id="edge6" class="edge">
<title>stop&#45;&gt;168</title>
<path fill="none" stroke="green" stroke-width="0.61" d="M272.38,-81.34C266.88,-71.74 260.15,-60 254.14,-49.51"/>
<polygon fill="green" stroke="green" stroke-width="0.61" points="257.35,-48.06 249.34,-41.13 251.28,-51.54 257.35,-48.06"/>
</g>
<!-- up -->
<g id="node5" class="node">
<title>up</title>
<ellipse fill="lightblue" stroke="black" cx="251.51" cy="-270.63" rx="18.27" ry="18.27"/>
<text text-anchor="middle" x="251.51" y="-268.43" font-family="Times New Roman,serif" font-size="9.00">up</text>
</g>
<!-- 246&#45;&gt;right -->
<g id="edge10" class="edge">
<title>246&#45;&gt;right</title>
<path fill="none" stroke="red" stroke-width="0.31" d="M118.51,-165.62C118.51,-156.51 118.51,-145.59 118.51,-135.43"/>
<polygon fill="red" stroke="red" stroke-width="0.31" points="122.01,-135.68 118.51,-125.68 115.01,-135.68 122.01,-135.68"/>
</g>
<!-- 151 -->
<g id="node11" class="node">
<title>151</title>
<ellipse fill="white" stroke="black" cx="309.51" cy="-270.63" rx="21.43" ry="21.43"/>
<text text-anchor="middle" x="309.51" y="-268.43" font-family="Times New Roman,serif" font-size="9.00">151</text>
</g>
<!-- 223&#45;&gt;stop -->
<g id="edge8" class="edge">
<title>223&#45;&gt;stop</title>
<path fill="none" stroke="red" stroke-width="1.1" d="M297.91,-166.05C295.85,-157 293.37,-146.09 291.05,-135.9"/>
<polygon fill="red" stroke="red" stroke-width="1.1" points="294.53,-135.43 288.9,-126.46 287.7,-136.98 294.53,-135.43"/>
</g>
</g>
</svg>
