<?xml version="1.0" encoding="UTF-8" standalone="no"?>
<!DOCTYPE svg PUBLIC "-//W3C//DTD SVG 1.1//EN"
 "http://www.w3.org/Graphics/SVG/1.1/DTD/svg11.dtd">
<!-- Generated by graphviz version 7.1.0 (20230121.1956)
 -->
<!-- Pages: 1 -->
<svg width="620pt" height="216pt"
 viewBox="0.00 0.00 619.66 215.76" xmlns="http://www.w3.org/2000/svg" xmlns:xlink="http://www.w3.org/1999/xlink">
<g id="graph0" class="graph" transform="scale(1 1) rotate(0) translate(4 211.76)">
<polygon fill="white" stroke="none" points="-4,4 -4,-211.76 615.66,-211.76 615.66,4 -4,4"/>
<!-- is food up -->
<g id="node1" class="node">
<title>is food up</title>
<polygon fill="lightgray" stroke="black" points="53,-190.6 0,-190.6 0,-172.6 53,-172.6 53,-190.6"/>
<text text-anchor="middle" x="26.5" y="-179.4" font-family="Times New Roman,serif" font-size="9.00">is food up</text>
</g>
<!-- left -->
<g id="node11" class="node">
<title>left</title>
<ellipse fill="lightblue" stroke="black" cx="26.5" cy="-96.1" rx="20.51" ry="20.51"/>
<text text-anchor="middle" x="26.5" y="-93.9" font-family="Times New Roman,serif" font-size="9.00">left</text>
</g>
<!-- is food up&#45;&gt;left -->
<g id="edge3" class="edge">
<title>is food up&#45;&gt;left</title>
<path fill="none" stroke="green" stroke-width="0.89" d="M26.5,-172.29C26.5,-162 26.5,-143.89 26.5,-128.02"/>
<polygon fill="green" stroke="green" stroke-width="0.89" points="30,-128.36 26.5,-118.36 23,-128.36 30,-128.36"/>
</g>
<!-- pos y -->
<g id="node2" class="node">
<title>pos y</title>
<polygon fill="lightgray" stroke="black" points="109.5,-190.6 71.5,-190.6 71.5,-172.6 109.5,-172.6 109.5,-190.6"/>
<text text-anchor="middle" x="90.5" y="-179.4" font-family="Times New Roman,serif" font-size="9.00">pos y</text>
</g>
<!-- is food down -->
<g id="node3" class="node">
<title>is food down</title>
<polygon fill="lightgray" stroke="black" points="191.5,-190.6 127.5,-190.6 127.5,-172.6 191.5,-172.6 191.5,-190.6"/>
<text text-anchor="middle" x="159.5" y="-179.4" font-family="Times New Roman,serif" font-size="9.00">is food down</text>
</g>
<!-- up -->
<g id="node9" class="node">
<title>up</title>
<ellipse fill="lightblue" stroke="black" cx="249.5" cy="-18.38" rx="18.27" ry="18.27"/>
<text text-anchor="middle" x="249.5" y="-16.18" font-family="Times New Roman,serif" font-size="9.00">up</text>
</g>
<!-- is food down&#45;&gt;up -->
<g id="edge5" class="edge">
<title>is food down&#45;&gt;up</title>
<path fill="none" stroke="red" stroke-width="0.22" stroke-dasharray="1,5" d="M157.68,-172.31C153.97,-153.21 147.37,-105.27 166.5,-72.77 179.01,-51.52 203.68,-37.29 222.89,-28.9"/>
<polygon fill="red" stroke="red" stroke-width="0.22" points="224.1,-32.19 232.04,-25.17 221.46,-25.71 224.1,-32.19"/>
</g>
<!-- right -->
<g id="node12" class="node">
<title>right</title>
<ellipse fill="lightblue" stroke="black" cx="198.5" cy="-96.1" rx="23.17" ry="23.17"/>
<text text-anchor="middle" x="198.5" y="-93.9" font-family="Times New Roman,serif" font-size="9.00">right</text>
</g>
<!-- is food down&#45;&gt;right -->
<g id="edge1" class="edge">
<title>is food down&#45;&gt;right</title>
<path fill="none" stroke="green" stroke-width="0.15" d="M163.38,-172.29C168.31,-161.74 177.08,-142.96 184.62,-126.82"/>
<polygon fill="green" stroke="green" stroke-width="0.15" points="187.72,-128.45 188.78,-117.9 181.38,-125.48 187.72,-128.45"/>
</g>
<!-- near wall -->
<g id="node4" class="node">
<title>near wall</title>
<polygon fill="lightgray" stroke="black" points="345,-190.6 296,-190.6 296,-172.6 345,-172.6 345,-190.6"/>
<text text-anchor="middle" x="320.5" y="-179.4" font-family="Times New Roman,serif" font-size="9.00">near wall</text>
</g>
<!-- is food right -->
<g id="node5" class="node">
<title>is food right</title>
<polygon fill="lightgray" stroke="black" points="423.5,-190.6 363.5,-190.6 363.5,-172.6 423.5,-172.6 423.5,-190.6"/>
<text text-anchor="middle" x="393.5" y="-179.4" font-family="Times New Roman,serif" font-size="9.00">is food right</text>
</g>
<!-- pos x -->
<g id="node6" class="node">
<title>pos x</title>
<polygon fill="lightgray" stroke="black" points="477.5,-190.6 441.5,-190.6 441.5,-172.6 477.5,-172.6 477.5,-190.6"/>
<text text-anchor="middle" x="459.5" y="-179.4" font-family="Times New Roman,serif" font-size="9.00">pos x</text>
</g>
<!-- is food left -->
<g id="node7" class="node">
<title>is food left</title>
<polygon fill="lightgray" stroke="black" points="277.5,-190.6 221.5,-190.6 221.5,-172.6 277.5,-172.6 277.5,-190.6"/>
<text text-anchor="middle" x="249.5" y="-179.4" font-family="Times New Roman,serif" font-size="9.00">is food left</text>
</g>
<!-- is food left&#45;&gt;up -->
<g id="edge4" class="edge">
<title>is food left&#45;&gt;up</title>
<path fill="none" stroke="red" stroke-width="0.28" stroke-dasharray="1,5" d="M249.5,-172.39C249.5,-149.61 249.5,-84.88 249.5,-47.31"/>
<polygon fill="red" stroke="red" stroke-width="0.28" points="253,-47.47 249.5,-37.47 246,-47.47 253,-47.47"/>
</g>
<!-- is food left&#45;&gt;right -->
<g id="edge2" class="edge">
<title>is food left&#45;&gt;right</title>
<path fill="none" stroke="green" stroke-width="2.42" d="M244.42,-172.29C238.12,-161.97 227.01,-143.78 217.3,-127.88"/>
<polygon fill="green" stroke="green" stroke-width="2.42" points="220.35,-126.17 212.15,-119.46 214.38,-129.82 220.35,-126.17"/>
</g>
<!-- 594 -->
<g id="node13" class="node">
<title>594</title>
<ellipse fill="white" stroke="black" cx="298.5" cy="-96.1" rx="21.43" ry="21.43"/>
<text text-anchor="middle" x="298.5" y="-93.9" font-family="Times New Roman,serif" font-size="9.00">594</text>
</g>
<!-- is food left&#45;&gt;594 -->
<g id="edge6" class="edge">
<title>is food left&#45;&gt;594</title>
<path fill="none" stroke="green" stroke-width="0.33" d="M254.38,-172.29C260.95,-161.08 272.98,-140.6 282.81,-123.84"/>
<polygon fill="green" stroke="green" stroke-width="0.33" points="285.71,-125.82 287.75,-115.42 279.67,-122.28 285.71,-125.82"/>
</g>
<!-- stop -->
<g id="node8" class="node">
<title>stop</title>
<ellipse fill="lightblue" stroke="black" cx="518.5" cy="-181.6" rx="23.17" ry="23.17"/>
<text text-anchor="middle" x="518.5" y="-179.4" font-family="Times New Roman,serif" font-size="9.00">stop</text>
</g>
<!-- down -->
<g id="node10" class="node">
<title>down</title>
<ellipse fill="lightblue" stroke="black" cx="585.5" cy="-181.6" rx="26.33" ry="26.33"/>
<text text-anchor="middle" x="585.5" y="-179.4" font-family="Times New Roman,serif" font-size="9.00">down</text>
</g>
<!-- 594&#45;&gt;up -->
<g id="edge7" class="edge">
<title>594&#45;&gt;up</title>
<path fill="none" stroke="red" stroke-width="0.63" d="M287.14,-77.54C280.58,-67.41 272.23,-54.51 265.07,-43.44"/>
<polygon fill="red" stroke="red" stroke-width="0.63" points="268.04,-41.59 259.67,-35.1 262.16,-45.39 268.04,-41.59"/>
</g>
</g>
</svg>
