<?xml version="1.0" encoding="UTF-8" standalone="no"?>
<!DOCTYPE svg PUBLIC "-//W3C//DTD SVG 1.1//EN"
 "http://www.w3.org/Graphics/SVG/1.1/DTD/svg11.dtd">
<!-- Generated by graphviz version 7.1.0 (20230121.1956)
 -->
<!-- Pages: 1 -->
<svg width="498pt" height="337pt"
 viewBox="0.00 0.00 498.08 336.62" xmlns="http://www.w3.org/2000/svg" xmlns:xlink="http://www.w3.org/1999/xlink">
<g id="graph0" class="graph" transform="scale(1 1) rotate(0) translate(4 332.62)">
<polygon fill="white" stroke="none" points="-4,4 -4,-332.62 494.08,-332.62 494.08,4 -4,4"/>
<!-- food x -->
<g id="node1" class="node">
<title>food x</title>
<polygon fill="lightgray" stroke="black" points="40.01,-310.04 1.01,-310.04 1.01,-292.04 40.01,-292.04 40.01,-310.04"/>
<text text-anchor="middle" x="20.51" y="-298.84" font-family="Times New Roman,serif" font-size="9.00">food x</text>
</g>
<!-- left -->
<g id="node8" class="node">
<title>left</title>
<ellipse fill="lightblue" stroke="black" cx="20.51" cy="-209.89" rx="20.51" ry="20.51"/>
<text text-anchor="middle" x="20.51" y="-207.69" font-family="Times New Roman,serif" font-size="9.00">left</text>
</g>
<!-- food x&#45;&gt;left -->
<g id="edge1" class="edge">
<title>food x&#45;&gt;left</title>
<path fill="none" stroke="green" stroke-width="0.73" d="M20.51,-291.81C20.51,-280.5 20.51,-259.51 20.51,-241.75"/>
<polygon fill="green" stroke="green" stroke-width="0.73" points="24.01,-241.77 20.51,-231.77 17.01,-241.77 24.01,-241.77"/>
</g>
<!-- food rel y -->
<g id="node2" class="node">
<title>food rel y</title>
<polygon fill="lightgray" stroke="black" points="110.51,-310.04 58.51,-310.04 58.51,-292.04 110.51,-292.04 110.51,-310.04"/>
<text text-anchor="middle" x="84.51" y="-298.84" font-family="Times New Roman,serif" font-size="9.00">food rel y</text>
</g>
<!-- pos y -->
<g id="node3" class="node">
<title>pos y</title>
<polygon fill="lightgray" stroke="black" points="166.51,-310.04 128.51,-310.04 128.51,-292.04 166.51,-292.04 166.51,-310.04"/>
<text text-anchor="middle" x="147.51" y="-298.84" font-family="Times New Roman,serif" font-size="9.00">pos y</text>
</g>
<!-- food y -->
<g id="node4" class="node">
<title>food y</title>
<polygon fill="lightgray" stroke="black" points="226.01,-310.04 185.01,-310.04 185.01,-292.04 226.01,-292.04 226.01,-310.04"/>
<text text-anchor="middle" x="205.51" y="-298.84" font-family="Times New Roman,serif" font-size="9.00">food y</text>
</g>
<!-- right -->
<g id="node9" class="node">
<title>right</title>
<ellipse fill="lightblue" stroke="black" cx="136.51" cy="-209.89" rx="23.17" ry="23.17"/>
<text text-anchor="middle" x="136.51" y="-207.69" font-family="Times New Roman,serif" font-size="9.00">right</text>
</g>
<!-- food y&#45;&gt;right -->
<g id="edge2" class="edge">
<title>food y&#45;&gt;right</title>
<path fill="none" stroke="green" stroke-width="0.68" d="M199.14,-291.81C189.68,-279.59 171.48,-256.08 157.13,-237.53"/>
<polygon fill="green" stroke="green" stroke-width="0.68" points="159.97,-235.48 151.08,-229.71 154.43,-239.76 159.97,-235.48"/>
</g>
<!-- 24225 -->
<g id="node10" class="node">
<title>24225</title>
<ellipse fill="white" stroke="black" cx="205.51" cy="-209.89" rx="27.65" ry="27.65"/>
<text text-anchor="middle" x="205.51" y="-207.69" font-family="Times New Roman,serif" font-size="9.00">24225</text>
</g>
<!-- food y&#45;&gt;24225 -->
<g id="edge6" class="edge">
<title>food y&#45;&gt;24225</title>
<path fill="none" stroke="red" stroke-width="0.32" d="M205.51,-291.81C205.51,-281.84 205.51,-264.36 205.51,-248.19"/>
<polygon fill="red" stroke="red" stroke-width="0.32" points="209.01,-248.32 205.51,-238.32 202.01,-248.32 209.01,-248.32"/>
</g>
<!-- 18198 -->
<g id="node14" class="node">
<title>18198</title>
<ellipse fill="white" stroke="black" cx="233.51" cy="-118.73" rx="27.65" ry="27.65"/>
<text text-anchor="middle" x="233.51" y="-116.53" font-family="Times New Roman,serif" font-size="9.00">18198</text>
</g>
<!-- food y&#45;&gt;18198 -->
<g id="edge3" class="edge">
<title>food y&#45;&gt;18198</title>
<path fill="none" stroke="green" stroke-width="0.33" stroke-dasharray="1,5" d="M212.37,-291.8C221.36,-280.43 236.65,-258.89 242.51,-237.46 249.78,-210.89 246.93,-179.76 242.59,-156.19"/>
<polygon fill="green" stroke="green" stroke-width="0.33" points="246.02,-155.53 240.62,-146.42 239.16,-156.92 246.02,-155.53"/>
</g>
<!-- stop -->
<g id="node5" class="node">
<title>stop</title>
<ellipse fill="lightblue" stroke="black" cx="267.51" cy="-301.04" rx="23.17" ry="23.17"/>
<text text-anchor="middle" x="267.51" y="-298.84" font-family="Times New Roman,serif" font-size="9.00">stop</text>
</g>
<!-- up -->
<g id="node6" class="node">
<title>up</title>
<ellipse fill="lightblue" stroke="black" cx="327.51" cy="-301.04" rx="18.27" ry="18.27"/>
<text text-anchor="middle" x="327.51" y="-298.84" font-family="Times New Roman,serif" font-size="9.00">up</text>
</g>
<!-- down -->
<g id="node7" class="node">
<title>down</title>
<ellipse fill="lightblue" stroke="black" cx="390.51" cy="-301.04" rx="26.33" ry="26.33"/>
<text text-anchor="middle" x="390.51" y="-298.84" font-family="Times New Roman,serif" font-size="9.00">down</text>
</g>
<!-- 24225&#45;&gt;18198 -->
<g id="edge7" class="edge">
<title>24225&#45;&gt;18198</title>
<path fill="none" stroke="green" stroke-width="0.31" d="M213.6,-183.1C216.33,-174.41 219.43,-164.56 222.35,-155.26"/>
<polygon fill="green" stroke="green" stroke-width="0.31" points="225.63,-156.5 225.28,-145.91 218.95,-154.4 225.63,-156.5"/>
</g>
<!-- 14254 -->
<g id="node11" class="node">
<title>14254</title>
<ellipse fill="white" stroke="black" cx="269.51" cy="-27.58" rx="27.65" ry="27.65"/>
<text text-anchor="middle" x="269.51" y="-25.38" font-family="Times New Roman,serif" font-size="9.00">14254</text>
</g>
<!-- 16399 -->
<g id="node12" class="node">
<title>16399</title>
<ellipse fill="white" stroke="black" cx="462.51" cy="-301.04" rx="27.65" ry="27.65"/>
<text text-anchor="middle" x="462.51" y="-298.84" font-family="Times New Roman,serif" font-size="9.00">16399</text>
</g>
<!-- 23022 -->
<g id="node13" class="node">
<title>23022</title>
<ellipse fill="white" stroke="black" cx="306.51" cy="-118.73" rx="27.65" ry="27.65"/>
<text text-anchor="middle" x="306.51" y="-116.53" font-family="Times New Roman,serif" font-size="9.00">23022</text>
</g>
<!-- 23022&#45;&gt;14254 -->
<g id="edge5" class="edge">
<title>23022&#45;&gt;14254</title>
<path fill="none" stroke="red" stroke-width="0.21" d="M296.2,-92.9C292.34,-83.6 287.89,-72.88 283.74,-62.88"/>
<polygon fill="red" stroke="red" stroke-width="0.21" points="287.08,-61.78 280.01,-53.89 280.61,-64.47 287.08,-61.78"/>
</g>
<!-- 18198&#45;&gt;14254 -->
<g id="edge4" class="edge">
<title>18198&#45;&gt;14254</title>
<path fill="none" stroke="red" stroke-width="0.11" d="M243.53,-92.9C247.29,-83.6 251.62,-72.88 255.66,-62.88"/>
<polygon fill="red" stroke="red" stroke-width="0.11" points="258.84,-64.33 259.34,-53.75 252.35,-61.71 258.84,-64.33"/>
</g>
</g>
</svg>
